SplineFontDB: 3.2
FontName: ocra
FullName: ocra
FamilyName: ocra
Weight: Book
Copyright: Looks like i have not been licenced.
Version: 1
ItalicAngle: 0
UnderlinePosition: -171
UnderlineWidth: 170
Ascent: 1638
Descent: 410
InvalidEm: 0
sfntRevision: 0x00010000
LayerCount: 2
Layer: 0 1 "Back" 1
Layer: 1 1 "Fore" 0
XUID: [1021 400 1947487990 26217]
StyleMap: 0x0040
FSType: 8
OS2Version: 1
OS2_WeightWidthSlopeOnly: 0
OS2_UseTypoMetrics: 0
CreationTime: 1610455583
ModificationTime: 1613656438
PfmFamily: 17
TTFWeight: 400
TTFWidth: 5
LineGap: 0
VLineGap: 0
Panose: 2 1 5 9 2 1 2 1 3 3
OS2TypoAscent: 1329
OS2TypoAOffset: 0
OS2TypoDescent: -360
OS2TypoDOffset: 0
OS2TypoLinegap: 502
OS2WinAscent: 1757
OS2WinAOffset: 0
OS2WinDescent: 362
OS2WinDOffset: 0
HheadAscent: 1757
HheadAOffset: 0
HheadDescent: -362
HheadDOffset: 0
OS2SubXSize: 1434
OS2SubYSize: 1331
OS2SubXOff: 0
OS2SubYOff: 178
OS2SupXSize: 1434
OS2SupYSize: 1331
OS2SupXOff: 0
OS2SupYOff: 483
OS2StrikeYSize: 125
OS2StrikeYPos: 530
OS2FamilyClass: 2063
OS2Vendor: 'MONO'
OS2CodePages: 20000001.00000000
OS2UnicodeRanges: 00000003.00000000.00000000.00000000
MarkAttachClasses: 1
DEI: 91125
TtTable: prep
PUSHW_1
 -64
PUSHB_4
 202
 21
 24
 54
PUSHW_1
 -64
NPUSHB
 9
 201
 21
 24
 54
 128
 196
 224
 196
 2
PUSHW_1
 -64
PUSHB_6
 196
 10
 11
 54
 135
 127
PUSHW_1
 1000
PUSHB_7
 31
 147
 127
 50
 31
 129
 127
PUSHW_1
 1000
NPUSHB
 56
 31
 144
 127
 160
 127
 2
 31
 194
 1
 111
 194
 127
 194
 2
 127
 190
 1
 0
 183
 1
 0
 183
 96
 183
 144
 183
 160
 183
 4
 0
 181
 144
 181
 160
 181
 3
 30
 120
 22
 29
 119
 22
 28
 118
 22
 27
 117
 22
 26
 116
 22
 25
 115
 22
 112
 22
PUSHW_1
 2048
NPUSHB
 24
 29
 108
 111
 22
 23
 28
 108
 111
 23
 27
 108
 111
 25
 107
 110
 22
 27
 107
 110
 127
 114
 26
 106
 20
PUSHW_1
 2048
NPUSHB
 255
 29
 102
 105
 20
 21
 28
 102
 105
 21
 27
 102
 105
 25
 101
 104
 20
 27
 101
 104
 133
 113
 26
 153
 67
 250
 33
 151
 67
 250
 33
 147
 67
 250
 33
 145
 67
 250
 33
 141
 67
 250
 33
 139
 67

StartChar: .notdef
Encoding: 65536 -1 0
Width: 2048
Flags: W
LayerCount: 2
Fore
SplineSet
256 0 m 1,0,-1
 256 1536 l 1,1,-1
 1792 1536 l 1,2,-1
 1792 0 l 1,3,-1
 256 0 l 1,0,-1
384 128 m 1,4,-1
 1664 128 l 1,5,-1
 1664 1408 l 1,6,-1
 384 1408 l 1,7,-1
 384 128 l 1,4,-1
EndSplineSet
EndChar

StartChar: exclam
Encoding: 33 33 4
Width: 1237
Flags: W
LayerCount: 2
Fore
SplineSet
754 1243 m 2,0,-1
 713 592 l 2,1,2
 710 556 710 556 686 532 c 128,-1,3
 662 508 662 508 629 508 c 0,4,5
 592 508 592 508 568.5 533 c 128,-1,6
 545 558 545 558 543 592 c 2,7,-1
 502 1245 l 2,8,9
 500 1279 500 1279 525.5 1304 c 128,-1,10
 551 1329 551 1329 586 1329 c 2,11,-1
 670 1329 l 2,12,13
 705 1329 705 1329 730.5 1302.5 c 128,-1,14
 756 1276 756 1276 754 1243 c 2,0,-1
586 244 m 2,15,-1
 666 244 l 2,16,17
 701 244 701 244 726.5 219 c 128,-1,18
 752 194 752 194 752 160 c 2,19,-1
 752 86 l 2,20,21
 752 51 752 51 727.5 26.5 c 128,-1,22
 703 2 703 2 668 2 c 2,23,-1
 584 2 l 2,24,25
 549 2 549 2 524.5 26.5 c 128,-1,26
 500 51 500 51 500 86 c 2,27,-1
 500 158 l 2,28,29
 501 193 501 193 526 218.5 c 128,-1,30
 551 244 551 244 586 244 c 2,15,-1
EndSplineSet
EndChar

StartChar: quotedbl
Encoding: 34 34 5
Width: 1237
Flags: W
LayerCount: 2
Fore
SplineSet
203 1331 m 1,0,-1
 1051 1331 l 1,1,-1
 1051 1253 l 1,2,-1
 967 801 l 2,3,4
 952 729 952 729 881 729 c 0,5,6
 811 729 811 729 797 801 c 2,7,-1
 725 1161 l 1,8,-1
 530 1161 l 1,9,-1
 457 799 l 2,10,11
 440 727 440 727 373 727 c 0,12,13
 300 727 300 727 287 799 c 2,14,-1
 203 1253 l 1,15,-1
 203 1331 l 1,0,-1
EndSplineSet
EndChar

StartChar: numbersign
Encoding: 35 35 6
Width: 1237
Flags: W
LayerCount: 2
Fore
SplineSet
545 510 m 1,0,-1
 545 303 l 2,1,2
 545 268 545 268 520.5 242.5 c 128,-1,3
 496 217 496 217 461 217 c 256,4,5
 426 217 426 217 401.5 242.5 c 128,-1,6
 377 268 377 268 377 303 c 2,7,-1
 377 510 l 1,8,-1
 291 510 l 2,9,10
 256 510 256 510 231.5 534.5 c 128,-1,11
 207 559 207 559 207 594 c 0,12,13
 207 628 207 628 231.5 653 c 128,-1,14
 256 678 256 678 291 678 c 2,15,-1
 375 678 l 1,16,-1
 375 870 l 1,17,-1
 291 870 l 2,18,19
 256 870 256 870 231.5 894.5 c 128,-1,20
 207 919 207 919 207 954 c 0,21,22
 207 990 207 990 231.5 1014 c 128,-1,23
 256 1038 256 1038 291 1038 c 2,24,-1
 377 1038 l 1,25,-1
 377 1245 l 2,26,27
 377 1280 377 1280 401.5 1304.5 c 128,-1,28
 426 1329 426 1329 461 1329 c 0,29,30
 495 1329 495 1329 520 1304 c 128,-1,31
 545 1279 545 1279 545 1245 c 2,32,-1
 545 1038 l 1,33,-1
 713 1038 l 1,34,-1
 713 1245 l 2,35,36
 713 1280 713 1280 738 1304.5 c 128,-1,37
 763 1329 763 1329 797 1329 c 0,38,39
 832 1329 832 1329 857.5 1304 c 128,-1,40
 883 1279 883 1279 883 1245 c 2,41,-1
 883 1038 l 1,42,-1
 969 1038 l 2,43,44
 1003 1038 1003 1038 1028 1013.5 c 128,-1,45
 1053 989 1053 989 1053 954 c 0,46,47
 1053 918 1053 918 1026 893 c 128,-1,48
 999 868 999 868 969 868 c 2,49,-1
 885 868 l 1,50,-1
 885 678 l 1,51,-1
 969 678 l 2,52,53
 1002 678 1002 678 1027.5 653 c 128,-1,54
 1053 628 1053 628 1053 594 c 0,55,56
 1053 561 1053 561 1029.5 535.5 c 128,-1,57
 1006 510 1006 510 969 510 c 2,58,-1
 883 510 l 1,59,-1
 883 303 l 2,60,61
 883 268 883 268 857.5 242.5 c 128,-1,62
 832 217 832 217 797 217 c 0,63,64
 763 217 763 217 738 242.5 c 128,-1,65
 713 268 713 268 713 303 c 2,66,-1
 713 510 l 1,67,-1
 545 510 l 1,0,-1
545 868 m 1,68,-1
 545 678 l 1,69,-1
 713 678 l 1,70,-1
 713 868 l 1,71,-1
 545 868 l 1,68,-1
EndSplineSet
EndChar

StartChar: dollar
Encoding: 36 36 7
Width: 1237
Flags: W
LayerCount: 2
Fore
SplineSet
1055 666 m 2,0,-1
 1055 375 l 2,1,2
 1055 341 1055 341 1029.5 316 c 128,-1,3
 1004 291 1004 291 969 291 c 2,4,-1
 713 291 l 1,5,-1
 713 86 l 2,6,7
 713 51 713 51 688 26.5 c 128,-1,8
 663 2 663 2 629 2 c 0,9,10
 593 2 593 2 568 26.5 c 128,-1,11
 543 51 543 51 543 86 c 2,12,-1
 543 293 l 1,13,-1
 289 293 l 2,14,15
 255 293 255 293 230 317.5 c 128,-1,16
 205 342 205 342 205 377 c 256,17,18
 205 412 205 412 229.5 436.5 c 128,-1,19
 254 461 254 461 289 461 c 2,20,-1
 883 461 l 1,21,-1
 883 582 l 1,22,-1
 291 582 l 2,23,24
 256 582 256 582 231.5 606 c 128,-1,25
 207 630 207 630 207 666 c 2,26,-1
 207 956 l 2,27,28
 207 991 207 991 231.5 1015.5 c 128,-1,29
 256 1040 256 1040 291 1040 c 2,30,-1
 543 1040 l 1,31,-1
 543 1245 l 2,32,33
 543 1279 543 1279 566.5 1304 c 128,-1,34
 590 1329 590 1329 630 1329 c 0,35,36
 664 1329 664 1329 688.5 1304.5 c 128,-1,37
 713 1280 713 1280 713 1245 c 2,38,-1
 713 1040 l 1,39,-1
 971 1040 l 2,40,41
 1006 1040 1006 1040 1031.5 1015 c 128,-1,42
 1057 990 1057 990 1057 956 c 0,43,44
 1057 921 1057 921 1031.5 895.5 c 128,-1,45
 1006 870 1006 870 971 870 c 2,46,-1
 377 870 l 1,47,-1
 377 750 l 1,48,-1
 969 750 l 2,49,50
 1004 750 1004 750 1029.5 725 c 128,-1,51
 1055 700 1055 700 1055 666 c 2,0,-1
EndSplineSet
EndChar

StartChar: percent
Encoding: 37 37 8
Width: 1237
Flags: W
LayerCount: 2
Fore
SplineSet
287 1329 m 2,0,-1
 457 1329 l 2,1,2
 492 1329 492 1329 517.5 1303.5 c 128,-1,3
 543 1278 543 1278 543 1243 c 2,4,-1
 543 1098 l 2,5,6
 543 1063 543 1063 518 1037.5 c 128,-1,7
 493 1012 493 1012 459 1012 c 2,8,-1
 285 1012 l 2,9,10
 251 1012 251 1012 227 1037 c 128,-1,11
 203 1062 203 1062 203 1096 c 2,12,-1
 203 1243 l 2,13,14
 203 1278 203 1278 228 1303.5 c 128,-1,15
 253 1329 253 1329 287 1329 c 2,0,-1
1028 1036 m 2,16,-1
 348 170 l 2,17,18
 327 145 327 145 293 145 c 0,19,20
 260 145 260 145 232.5 169.5 c 128,-1,21
 205 194 205 194 205 228 c 0,22,23
 205 260 205 260 227 289 c 2,24,-1
 907 1157 l 2,25,26
 928 1182 928 1182 965 1182 c 0,27,28
 1000 1182 1000 1182 1025.5 1159 c 128,-1,29
 1051 1136 1051 1136 1051 1100 c 0,30,31
 1051 1066 1051 1066 1028 1036 c 2,16,-1
795 315 m 2,32,-1
 965 315 l 2,33,34
 1000 315 1000 315 1024.5 291 c 128,-1,35
 1049 267 1049 267 1049 231 c 2,36,-1
 1049 84 l 2,37,38
 1049 49 1049 49 1024.5 24.5 c 128,-1,39
 1000 0 1000 0 965 0 c 2,40,-1
 793 0 l 2,41,42
 758 0 758 0 734.5 24 c 128,-1,43
 711 48 711 48 711 84 c 2,44,-1
 711 231 l 2,45,46
 711 267 711 267 735 291 c 128,-1,47
 759 315 759 315 795 315 c 2,32,-1
EndSplineSet
EndChar

StartChar: ampersand
Encoding: 38 38 9
Width: 1237
Flags: W
LayerCount: 2
Fore
SplineSet
913 25 m 2,0,-1
 813 129 l 1,1,-1
 684 18 l 1,2,3
 672 2 672 2 637 2 c 2,4,-1
 463 2 l 2,5,6
 358 2 358 2 283.5 77 c 128,-1,7
 209 152 209 152 209 258 c 2,8,-1
 209 375 l 2,9,10
 209 416 209 416 242 444 c 2,11,-1
 395 575 l 1,12,-1
 240 745 l 2,13,14
 209 779 209 779 209 823 c 2,15,-1
 209 928 l 2,16,17
 209 1032 209 1032 284 1107 c 128,-1,18
 359 1182 359 1182 463 1182 c 2,19,-1
 633 1182 l 2,20,21
 737 1182 737 1182 812 1107 c 128,-1,22
 887 1032 887 1032 887 928 c 2,23,-1
 887 815 l 2,24,25
 887 768 887 768 844 731 c 2,26,-1
 643 559 l 1,27,-1
 827 365 l 1,28,-1
 913 436 l 2,29,30
 942 461 942 461 977 461 c 0,31,32
 1011 461 1011 461 1034.5 436 c 128,-1,33
 1058 411 1058 411 1058 377 c 0,34,35
 1058 342 1058 342 1032 319 c 2,36,-1
 944 242 l 1,37,-1
 1032 143 l 2,38,39
 1056 116 1056 116 1056 82 c 256,40,41
 1056 48 1056 48 1031.5 24 c 128,-1,42
 1007 0 1007 0 972 0 c 256,43,44
 937 0 937 0 913 25 c 2,0,-1
719 848 m 1,45,-1
 719 930 l 2,46,47
 719 965 719 965 694.5 990.5 c 128,-1,48
 670 1016 670 1016 635 1016 c 2,49,-1
 463 1016 l 2,50,51
 428 1016 428 1016 403.5 990.5 c 128,-1,52
 379 965 379 965 379 930 c 2,53,-1
 379 846 l 1,54,-1
 528 686 l 1,55,-1
 719 848 l 1,45,-1
379 336 m 1,56,-1
 379 254 l 2,57,58
 379 219 379 219 404 194.5 c 128,-1,59
 429 170 429 170 463 170 c 2,60,-1
 600 170 l 1,61,-1
 696 254 l 1,62,-1
 514 451 l 1,63,-1
 379 336 l 1,56,-1
EndSplineSet
EndChar

StartChar: quotesingle
Encoding: 39 39 10
Width: 1237
Flags: W
LayerCount: 2
Fore
SplineSet
551 1329 m 2,0,-1
 717 1329 l 2,1,2
 752 1329 752 1329 777 1303.5 c 128,-1,3
 802 1278 802 1278 802 1244 c 0,4,5
 802 1233 802 1233 799 1223 c 2,6,-1
 631 645 l 2,7,8
 611 582 611 582 549 582 c 0,9,10
 512 582 512 582 487.5 608 c 128,-1,11
 463 634 463 634 463 672 c 2,12,-1
 463 1235 l 2,13,14
 463 1275 463 1275 486.5 1302 c 128,-1,15
 510 1329 510 1329 551 1329 c 2,0,-1
EndSplineSet
EndChar

StartChar: parenleft
Encoding: 40 40 11
Width: 1237
Flags: W
LayerCount: 2
Fore
SplineSet
629 825 m 2,0,-1
 629 502 l 2,1,2
 629 437 629 437 668 387 c 2,3,-1
 868 131 l 2,4,5
 883 114 883 114 883 83 c 0,6,7
 883 43 883 43 857 20 c 128,-1,8
 831 -3 831 -3 796 -3 c 0,9,10
 759 -3 759 -3 739 23 c 2,11,-1
 537 281 l 2,12,13
 461 375 461 375 461 485 c 2,14,-1
 461 844 l 2,15,16
 461 950 461 950 537 1047 c 2,17,-1
 739 1305 l 2,18,19
 760 1331 760 1331 795 1331 c 256,20,21
 830 1331 830 1331 856.5 1308 c 128,-1,22
 883 1285 883 1285 883 1244 c 0,23,24
 883 1214 883 1214 868 1196 c 2,25,-1
 668 942 l 2,26,27
 629 891 629 891 629 825 c 2,0,-1
EndSplineSet
EndChar

StartChar: parenright
Encoding: 41 41 12
Width: 1237
Flags: W
LayerCount: 2
Fore
SplineSet
643 502 m 2,0,-1
 643 827 l 2,1,2
 643 890 643 890 602 942 c 2,3,-1
 401 1196 l 2,4,5
 387 1215 387 1215 387 1243 c 0,6,7
 387 1282 387 1282 413.5 1306.5 c 128,-1,8
 440 1331 440 1331 474 1331 c 0,9,10
 509 1331 509 1331 530 1305 c 2,11,-1
 735 1047 l 2,12,13
 809 954 809 954 809 844 c 2,14,-1
 809 485 l 2,15,16
 809 373 809 373 735 281 c 2,17,-1
 530 23 l 2,18,19
 509 -3 509 -3 473 -3 c 0,20,21
 439 -3 439 -3 413 21 c 128,-1,22
 387 45 387 45 387 85 c 0,23,24
 387 115 387 115 401 133 c 2,25,-1
 602 387 l 2,26,27
 643 437 643 437 643 502 c 2,0,-1
EndSplineSet
EndChar

StartChar: asterisk
Encoding: 42 42 13
Width: 1237
Flags: W
LayerCount: 2
Fore
SplineSet
568 850 m 1,0,-1
 568 1098 l 2,1,2
 568 1132 568 1132 593.5 1157 c 128,-1,3
 619 1182 619 1182 654 1182 c 0,4,5
 688 1182 688 1182 713 1157 c 128,-1,6
 738 1132 738 1132 738 1098 c 2,7,-1
 738 846 l 1,8,-1
 934 1014 l 2,9,10
 962 1037 962 1037 998 1037 c 256,11,12
 1034 1037 1034 1037 1057 1011.5 c 128,-1,13
 1080 986 1080 986 1080 953 c 0,14,15
 1080 917 1080 917 1055 895 c 2,16,-1
 785 664 l 1,17,-1
 1053 434 l 2,18,19
 1078 412 1078 412 1078 377 c 256,20,21
 1078 342 1078 342 1054 317 c 128,-1,22
 1030 292 1030 292 995 292 c 0,23,24
 962 292 962 292 934 315 c 2,25,-1
 738 483 l 1,26,-1
 738 231 l 2,27,28
 738 197 738 197 713 172 c 128,-1,29
 688 147 688 147 654 147 c 0,30,31
 618 147 618 147 593 172 c 128,-1,32
 568 197 568 197 568 231 c 2,33,-1
 568 479 l 1,34,-1
 375 313 l 2,35,36
 348 291 348 291 315 291 c 0,37,38
 280 291 280 291 255.5 316.5 c 128,-1,39
 231 342 231 342 231 377 c 0,40,41
 231 413 231 413 256 434 c 2,42,-1
 527 664 l 1,43,-1
 258 895 l 2,44,45
 232 918 232 918 232 955 c 0,46,47
 232 989 232 989 257 1014.5 c 128,-1,48
 282 1040 282 1040 316 1040 c 256,49,50
 350 1040 350 1040 377 1016 c 2,51,-1
 568 850 l 1,0,-1
EndSplineSet
EndChar

StartChar: plus
Encoding: 43 43 14
Width: 1237
Flags: W
LayerCount: 2
Fore
SplineSet
545 752 m 1,0,-1
 545 1010 l 2,1,2
 545 1044 545 1044 570 1068 c 128,-1,3
 595 1092 595 1092 631 1092 c 0,4,5
 665 1092 665 1092 689 1068 c 128,-1,6
 713 1044 713 1044 713 1010 c 2,7,-1
 713 752 l 1,8,-1
 971 752 l 2,9,10
 1006 752 1006 752 1031.5 727.5 c 128,-1,11
 1057 703 1057 703 1057 668 c 256,12,13
 1057 633 1057 633 1031.5 608.5 c 128,-1,14
 1006 584 1006 584 971 584 c 2,15,-1
 715 584 l 1,16,-1
 715 326 l 2,17,18
 715 290 715 290 689.5 265 c 128,-1,19
 664 240 664 240 629 240 c 256,20,21
 594 240 594 240 569.5 265 c 128,-1,22
 545 290 545 290 545 326 c 2,23,-1
 545 584 l 1,24,-1
 287 584 l 2,25,26
 253 584 253 584 228 608.5 c 128,-1,27
 203 633 203 633 203 668 c 0,28,29
 203 702 203 702 228 727 c 128,-1,30
 253 752 253 752 287 752 c 2,31,-1
 545 752 l 1,0,-1
EndSplineSet
EndChar

StartChar: comma
Encoding: 44 44 15
Width: 1237
Flags: W
LayerCount: 2
Fore
SplineSet
883 522 m 2,0,-1
 883 86 l 2,1,2
 883 51 883 51 858.5 26.5 c 128,-1,3
 834 2 834 2 799 2 c 256,4,5
 764 2 764 2 739.5 26.5 c 128,-1,6
 715 51 715 51 715 86 c 2,7,-1
 715 438 l 1,8,-1
 459 438 l 2,9,10
 424 438 424 438 399.5 463.5 c 128,-1,11
 375 489 375 489 375 524 c 0,12,13
 375 558 375 558 400 583 c 128,-1,14
 425 608 425 608 459 608 c 2,15,-1
 799 608 l 2,16,17
 834 608 834 608 858.5 583 c 128,-1,18
 883 558 883 558 883 522 c 2,0,-1
EndSplineSet
EndChar

StartChar: hyphen
Encoding: 45 45 16
Width: 1237
Flags: W
LayerCount: 2
Fore
SplineSet
1053 670 m 2,0,-1
 1053 596 l 2,1,2
 1053 561 1053 561 1028.5 535.5 c 128,-1,3
 1004 510 1004 510 969 510 c 2,4,-1
 291 510 l 2,5,6
 256 510 256 510 231.5 535.5 c 128,-1,7
 207 561 207 561 207 596 c 2,8,-1
 207 670 l 2,9,10
 207 705 207 705 231.5 729.5 c 128,-1,11
 256 754 256 754 291 754 c 2,12,-1
 969 754 l 2,13,14
 1001 754 1001 754 1027 730.5 c 128,-1,15
 1053 707 1053 707 1053 670 c 2,0,-1
EndSplineSet
EndChar

StartChar: period
Encoding: 46 46 17
Width: 1237
Flags: W
LayerCount: 2
Fore
SplineSet
543 530 m 2,0,-1
 713 530 l 2,1,2
 747 530 747 530 772 505.5 c 128,-1,3
 797 481 797 481 797 446 c 2,4,-1
 797 303 l 2,5,6
 797 268 797 268 772.5 242.5 c 128,-1,7
 748 217 748 217 713 217 c 2,8,-1
 541 217 l 2,9,10
 506 217 506 217 481.5 242 c 128,-1,11
 457 267 457 267 457 301 c 2,12,-1
 457 446 l 2,13,14
 457 481 457 481 482 505.5 c 128,-1,15
 507 530 507 530 543 530 c 2,0,-1
EndSplineSet
EndChar

StartChar: slash
Encoding: 47 47 18
Width: 1237
Flags: W
LayerCount: 2
Fore
SplineSet
1050 1184 m 2,0,-1
 368 25 l 2,1,2
 352 -1 352 -1 317 -1 c 0,3,4
 284 -1 284 -1 255.5 21.5 c 128,-1,5
 227 44 227 44 227 79 c 0,6,7
 227 110 227 110 247 145 c 2,8,-1
 929 1303 l 2,9,10
 946 1330 946 1330 982 1330 c 0,11,12
 1014 1330 1014 1330 1042.5 1308.5 c 128,-1,13
 1071 1287 1071 1287 1071 1252 c 0,14,15
 1071 1219 1071 1219 1050 1184 c 2,0,-1
EndSplineSet
EndChar

StartChar: zero
Encoding: 48 48 19
Width: 1237
Flags: W
LayerCount: 2
Fore
SplineSet
203 164 m 2,0,-1
 203 1169 l 2,1,2
 203 1235 203 1235 251 1283 c 128,-1,3
 299 1331 299 1331 365 1331 c 2,4,-1
 889 1331 l 2,5,6
 954 1331 954 1331 1001.5 1283 c 128,-1,7
 1049 1235 1049 1235 1049 1169 c 2,8,-1
 1049 164 l 2,9,10
 1049 97 1049 97 1001.5 49.5 c 128,-1,11
 954 2 954 2 887 2 c 2,12,-1
 365 2 l 2,13,14
 297 2 297 2 250 49.5 c 128,-1,15
 203 97 203 97 203 164 c 2,0,-1
883 170 m 1,16,-1
 883 1161 l 1,17,-1
 371 1161 l 1,18,-1
 371 170 l 1,19,-1
 883 170 l 1,16,-1
EndSplineSet
EndChar

StartChar: one
Encoding: 49 49 20
Width: 1237
Flags: W
LayerCount: 2
Fore
SplineSet
285 170 m 2,0,-1
 543 170 l 1,1,-1
 543 1161 l 1,2,-1
 289 1161 l 2,3,4
 254 1161 254 1161 229.5 1185.5 c 128,-1,5
 205 1210 205 1210 205 1245 c 256,6,7
 205 1280 205 1280 229.5 1304.5 c 128,-1,8
 254 1329 254 1329 289 1329 c 2,9,-1
 711 1329 l 1,10,-1
 711 170 l 1,11,-1
 879 170 l 1,12,-1
 879 520 l 2,13,14
 879 554 879 554 903.5 579 c 128,-1,15
 928 604 928 604 963 604 c 256,16,17
 998 604 998 604 1022.5 579.5 c 128,-1,18
 1047 555 1047 555 1047 520 c 2,19,-1
 1047 86 l 2,20,21
 1047 51 1047 51 1022.5 26.5 c 128,-1,22
 998 2 998 2 963 2 c 2,23,-1
 285 2 l 2,24,25
 250 2 250 2 225.5 27.5 c 128,-1,26
 201 53 201 53 201 88 c 0,27,28
 201 122 201 122 225.5 146 c 128,-1,29
 250 170 250 170 285 170 c 2,0,-1
EndSplineSet
EndChar

StartChar: two
Encoding: 50 50 21
Width: 1237
Flags: W
LayerCount: 2
Fore
SplineSet
969 2 m 2,0,-1
 205 2 l 1,1,-1
 205 582 l 2,2,3
 205 652 205 652 254.5 702 c 128,-1,4
 304 752 304 752 373 752 c 2,5,-1
 883 752 l 1,6,-1
 883 1161 l 1,7,-1
 283 1161 l 2,8,9
 247 1161 247 1161 223 1185.5 c 128,-1,10
 199 1210 199 1210 199 1245 c 256,11,12
 199 1280 199 1280 223 1304.5 c 128,-1,13
 247 1329 247 1329 283 1329 c 2,14,-1
 883 1329 l 2,15,16
 953 1329 953 1329 1003 1279.5 c 128,-1,17
 1053 1230 1053 1230 1053 1161 c 2,18,-1
 1053 752 l 2,19,20
 1053 681 1053 681 1003 631.5 c 128,-1,21
 953 582 953 582 883 582 c 2,22,-1
 373 582 l 1,23,-1
 373 170 l 1,24,-1
 969 170 l 2,25,26
 1003 170 1003 170 1028 145.5 c 128,-1,27
 1053 121 1053 121 1053 86 c 256,28,29
 1053 51 1053 51 1028 26.5 c 128,-1,30
 1003 2 1003 2 969 2 c 2,0,-1
EndSplineSet
EndChar

StartChar: three
Encoding: 51 51 22
Width: 1237
Flags: W
LayerCount: 2
Fore
SplineSet
1053 1161 m 2,0,-1
 1053 846 l 2,1,2
 1053 736 1053 736 985 668 c 1,3,4
 1055 590 1055 590 1055 498 c 2,5,-1
 1055 170 l 2,6,7
 1055 101 1055 101 1005 51.5 c 128,-1,8
 955 2 955 2 885 2 c 2,9,-1
 291 2 l 2,10,11
 256 2 256 2 231.5 26.5 c 128,-1,12
 207 51 207 51 207 86 c 256,13,14
 207 121 207 121 231.5 145.5 c 128,-1,15
 256 170 256 170 291 170 c 2,16,-1
 883 170 l 1,17,-1
 883 498 l 2,18,19
 883 533 883 533 858.5 558.5 c 128,-1,20
 834 584 834 584 799 584 c 2,21,-1
 461 584 l 2,22,23
 426 584 426 584 401.5 608 c 128,-1,24
 377 632 377 632 377 668 c 0,25,26
 377 703 377 703 401.5 727.5 c 128,-1,27
 426 752 426 752 461 752 c 2,28,-1
 801 752 l 2,29,30
 835 752 835 752 860 776.5 c 128,-1,31
 885 801 885 801 885 836 c 2,32,-1
 885 1161 l 1,33,-1
 285 1161 l 2,34,35
 250 1161 250 1161 225.5 1185.5 c 128,-1,36
 201 1210 201 1210 201 1245 c 256,37,38
 201 1280 201 1280 225.5 1304.5 c 128,-1,39
 250 1329 250 1329 285 1329 c 2,40,-1
 885 1329 l 2,41,42
 955 1329 955 1329 1004 1279.5 c 128,-1,43
 1053 1230 1053 1230 1053 1161 c 2,0,-1
EndSplineSet
EndChar

StartChar: four
Encoding: 52 52 23
Width: 1237
Flags: W
LayerCount: 2
Fore
SplineSet
756 86 m 2,0,-1
 756 436 l 1,1,-1
 250 436 l 1,2,-1
 250 1245 l 2,3,4
 250 1280 250 1280 275.5 1305.5 c 128,-1,5
 301 1331 301 1331 336 1331 c 0,6,7
 370 1331 370 1331 395 1305.5 c 128,-1,8
 420 1280 420 1280 420 1245 c 2,9,-1
 420 606 l 1,10,-1
 756 606 l 1,11,-1
 756 1098 l 2,12,13
 756 1133 756 1133 780.5 1158.5 c 128,-1,14
 805 1184 805 1184 840 1184 c 256,15,16
 875 1184 875 1184 899.5 1158.5 c 128,-1,17
 924 1133 924 1133 924 1098 c 2,18,-1
 924 606 l 1,19,20
 959 606 959 606 983.5 581.5 c 128,-1,21
 1008 557 1008 557 1008 522 c 256,22,23
 1008 487 1008 487 983.5 462.5 c 128,-1,24
 959 438 959 438 924 438 c 1,25,-1
 924 86 l 2,26,27
 924 51 924 51 899 26.5 c 128,-1,28
 874 2 874 2 840 2 c 0,29,30
 805 2 805 2 780.5 26.5 c 128,-1,31
 756 51 756 51 756 86 c 2,0,-1
EndSplineSet
EndChar

StartChar: five
Encoding: 53 53 24
Width: 1237
Flags: W
LayerCount: 2
Fore
SplineSet
514 170 m 2,0,-1
 903 170 l 1,1,-1
 903 582 l 1,2,-1
 395 582 l 1,3,-1
 395 1329 l 1,4,-1
 987 1329 l 2,5,6
 1021 1329 1021 1329 1046 1304 c 128,-1,7
 1071 1279 1071 1279 1071 1245 c 0,8,9
 1071 1210 1071 1210 1046.5 1185.5 c 128,-1,10
 1022 1161 1022 1161 987 1161 c 2,11,-1
 565 1161 l 1,12,-1
 565 750 l 1,13,-1
 903 750 l 2,14,15
 971 750 971 750 1021 700 c 128,-1,16
 1071 650 1071 650 1071 582 c 2,17,-1
 1071 170 l 2,18,19
 1071 101 1071 101 1021.5 51.5 c 128,-1,20
 972 2 972 2 903 2 c 2,21,-1
 514 2 l 2,22,23
 462 2 462 2 403 27 c 2,24,-1
 276 80 l 2,25,26
 225 101 225 101 225 160 c 0,27,28
 225 195 225 195 248 219.5 c 128,-1,29
 271 244 271 244 304 244 c 0,30,31
 329 244 329 244 362 229 c 2,32,-1
 473 182 l 2,33,34
 493 170 493 170 514 170 c 2,0,-1
EndSplineSet
EndChar

StartChar: six
Encoding: 54 54 25
Width: 1237
Flags: W
LayerCount: 2
Fore
SplineSet
293 1329 m 2,0,-1
 377 1329 l 2,1,2
 412 1329 412 1329 436.5 1304 c 128,-1,3
 461 1279 461 1279 461 1245 c 0,4,5
 461 1210 461 1210 436.5 1185.5 c 128,-1,6
 412 1161 412 1161 377 1161 c 1,7,-1
 377 606 l 1,8,-1
 969 606 l 2,9,10
 1003 606 1003 606 1028 580.5 c 128,-1,11
 1053 555 1053 555 1053 520 c 2,12,-1
 1053 86 l 2,13,14
 1053 51 1053 51 1027.5 26.5 c 128,-1,15
 1002 2 1002 2 967 2 c 2,16,-1
 293 2 l 2,17,18
 258 2 258 2 232.5 27 c 128,-1,19
 207 52 207 52 207 86 c 2,20,-1
 207 1245 l 2,21,22
 207 1280 207 1280 232 1304.5 c 128,-1,23
 257 1329 257 1329 293 1329 c 2,0,-1
375 436 m 1,24,-1
 375 170 l 1,25,-1
 883 170 l 1,26,-1
 883 436 l 1,27,-1
 375 436 l 1,24,-1
EndSplineSet
EndChar

StartChar: seven
Encoding: 55 55 26
Width: 1237
Flags: W
LayerCount: 2
Fore
SplineSet
203 1171 m 2,0,-1
 203 1243 l 2,1,2
 203 1278 203 1278 227.5 1302.5 c 128,-1,3
 252 1327 252 1327 287 1327 c 2,4,-1
 1049 1327 l 1,5,-1
 1049 811 l 2,6,7
 1049 770 1049 770 1018 743 c 2,8,-1
 709 479 l 1,9,-1
 709 88 l 2,10,11
 709 53 709 53 684.5 27.5 c 128,-1,12
 660 2 660 2 625 2 c 256,13,14
 590 2 590 2 564.5 27 c 128,-1,15
 539 52 539 52 539 86 c 2,16,-1
 539 510 l 2,17,18
 539 558 539 558 569 584 c 2,19,-1
 879 846 l 1,20,-1
 879 1159 l 1,21,-1
 371 1159 l 1,22,23
 353 1087 353 1087 287 1087 c 0,24,25
 252 1087 252 1087 227.5 1111.5 c 128,-1,26
 203 1136 203 1136 203 1171 c 2,0,-1
EndSplineSet
EndChar

StartChar: eight
Encoding: 56 56 27
Width: 1237
Flags: W
LayerCount: 2
Fore
SplineSet
201 172 m 2,0,-1
 201 582 l 2,1,2
 201 651 201 651 251 700.5 c 128,-1,3
 301 750 301 750 371 750 c 1,4,-1
 371 1245 l 2,5,6
 371 1280 371 1280 395 1304.5 c 128,-1,7
 419 1329 419 1329 455 1329 c 2,8,-1
 797 1329 l 2,9,10
 832 1329 832 1329 856.5 1304.5 c 128,-1,11
 881 1280 881 1280 881 1245 c 2,12,-1
 881 750 l 1,13,14
 949 750 949 750 999 701.5 c 128,-1,15
 1049 653 1049 653 1049 582 c 2,16,-1
 1049 170 l 2,17,18
 1049 101 1049 101 999 51.5 c 128,-1,19
 949 2 949 2 881 2 c 2,20,-1
 371 2 l 2,21,22
 300 2 300 2 250.5 54 c 128,-1,23
 201 106 201 106 201 172 c 2,0,-1
539 1161 m 1,24,-1
 539 750 l 1,25,-1
 713 750 l 1,26,-1
 713 1161 l 1,27,-1
 539 1161 l 1,24,-1
371 582 m 1,28,-1
 371 170 l 1,29,-1
 881 170 l 1,30,-1
 881 582 l 1,31,-1
 371 582 l 1,28,-1
EndSplineSet
EndChar

StartChar: nine
Encoding: 57 57 28
Width: 1237
Flags: W
LayerCount: 2
Fore
SplineSet
969 4 m 2,0,-1
 885 4 l 2,1,2
 851 4 851 4 826 28.5 c 128,-1,3
 801 53 801 53 801 88 c 256,4,5
 801 123 801 123 825.5 147.5 c 128,-1,6
 850 172 850 172 885 172 c 1,7,-1
 885 727 l 1,8,-1
 293 727 l 2,9,10
 259 727 259 727 234 752 c 128,-1,11
 209 777 209 777 209 811 c 2,12,-1
 209 1247 l 2,13,14
 209 1281 209 1281 234 1306 c 128,-1,15
 259 1331 259 1331 293 1331 c 2,16,-1
 969 1331 l 2,17,18
 1003 1331 1003 1331 1028 1306 c 128,-1,19
 1053 1281 1053 1281 1053 1247 c 2,20,-1
 1053 88 l 2,21,22
 1053 53 1053 53 1028.5 28.5 c 128,-1,23
 1004 4 1004 4 969 4 c 2,0,-1
887 897 m 1,24,-1
 887 1161 l 1,25,-1
 377 1161 l 1,26,-1
 377 897 l 1,27,-1
 887 897 l 1,24,-1
EndSplineSet
EndChar

StartChar: colon
Encoding: 58 58 29
Width: 1237
Flags: W
LayerCount: 2
Fore
SplineSet
545 1110 m 2,0,-1
 713 1110 l 2,1,2
 749 1110 749 1110 774 1083 c 128,-1,3
 799 1056 799 1056 799 1026 c 2,4,-1
 799 881 l 2,5,6
 799 847 799 847 773.5 822 c 128,-1,7
 748 797 748 797 715 797 c 2,8,-1
 543 797 l 2,9,10
 508 797 508 797 484.5 821 c 128,-1,11
 461 845 461 845 461 881 c 2,12,-1
 461 1026 l 2,13,14
 461 1060 461 1060 485.5 1085 c 128,-1,15
 510 1110 510 1110 545 1110 c 2,0,-1
545 530 m 2,16,-1
 713 530 l 2,17,18
 748 530 748 530 773.5 505.5 c 128,-1,19
 799 481 799 481 799 446 c 2,20,-1
 799 303 l 2,21,22
 799 268 799 268 774 242.5 c 128,-1,23
 749 217 749 217 715 217 c 2,24,-1
 543 217 l 2,25,26
 508 217 508 217 484.5 242 c 128,-1,27
 461 267 461 267 461 301 c 2,28,-1
 461 446 l 2,29,30
 461 482 461 482 485.5 506 c 128,-1,31
 510 530 510 530 545 530 c 2,16,-1
EndSplineSet
EndChar

StartChar: semicolon
Encoding: 59 59 30
Width: 1237
Flags: W
LayerCount: 2
Fore
SplineSet
457 1186 m 2,0,-1
 627 1186 l 2,1,2
 662 1186 662 1186 686.5 1161.5 c 128,-1,3
 711 1137 711 1137 711 1102 c 2,4,-1
 711 958 l 2,5,6
 711 923 711 923 686.5 898.5 c 128,-1,7
 662 874 662 874 627 874 c 2,8,-1
 457 874 l 2,9,10
 422 874 422 874 397.5 898.5 c 128,-1,11
 373 923 373 923 373 958 c 2,12,-1
 373 1102 l 2,13,14
 373 1136 373 1136 398 1161 c 128,-1,15
 423 1186 423 1186 457 1186 c 2,0,-1
877 522 m 2,16,-1
 877 86 l 2,17,18
 877 51 877 51 852 26.5 c 128,-1,19
 827 2 827 2 793 2 c 0,20,21
 757 2 757 2 732 26.5 c 128,-1,22
 707 51 707 51 707 86 c 2,23,-1
 707 438 l 1,24,-1
 451 438 l 2,25,26
 417 438 417 438 393 463.5 c 128,-1,27
 369 489 369 489 369 524 c 0,28,29
 369 558 369 558 393.5 583 c 128,-1,30
 418 608 418 608 453 608 c 2,31,-1
 793 608 l 2,32,33
 826 608 826 608 851.5 582.5 c 128,-1,34
 877 557 877 557 877 522 c 2,16,-1
EndSplineSet
EndChar

StartChar: less
Encoding: 60 60 31
Width: 1237
Flags: W
LayerCount: 2
Fore
SplineSet
207 633 m 2,0,-1
 207 698 l 2,1,2
 207 748 207 748 258 778 c 2,3,-1
 920 1169 l 2,4,5
 947 1187 947 1187 974 1187 c 0,6,7
 1006 1187 1006 1187 1031.5 1162 c 128,-1,8
 1057 1137 1057 1137 1057 1101 c 0,9,10
 1057 1054 1057 1054 1020 1032 c 2,11,-1
 401 666 l 1,12,-1
 1020 301 l 2,13,14
 1057 277 1057 277 1057 230 c 0,15,16
 1057 194 1057 194 1031.5 169 c 128,-1,17
 1006 144 1006 144 974 144 c 0,18,19
 949 144 949 144 920 162 c 2,20,-1
 258 553 l 2,21,22
 207 581 207 581 207 633 c 2,0,-1
EndSplineSet
EndChar

StartChar: equal
Encoding: 61 61 32
Width: 1237
Flags: W
LayerCount: 2
Fore
SplineSet
967 799 m 2,0,-1
 287 799 l 2,1,2
 253 799 253 799 228 824 c 128,-1,3
 203 849 203 849 203 883 c 256,4,5
 203 917 203 917 228 942 c 128,-1,6
 253 967 253 967 287 967 c 2,7,-1
 967 967 l 2,8,9
 1002 967 1002 967 1026.5 942.5 c 128,-1,10
 1051 918 1051 918 1051 883 c 256,11,12
 1051 848 1051 848 1026.5 823.5 c 128,-1,13
 1002 799 1002 799 967 799 c 2,0,-1
967 436 m 2,14,-1
 287 436 l 2,15,16
 253 436 253 436 228 461.5 c 128,-1,17
 203 487 203 487 203 522 c 256,18,19
 203 557 203 557 228 581.5 c 128,-1,20
 253 606 253 606 287 606 c 2,21,-1
 967 606 l 2,22,23
 1001 606 1001 606 1026 581 c 128,-1,24
 1051 556 1051 556 1051 522 c 0,25,26
 1051 487 1051 487 1026.5 461.5 c 128,-1,27
 1002 436 1002 436 967 436 c 2,14,-1
EndSplineSet
EndChar

StartChar: greater
Encoding: 62 62 33
Width: 1237
Flags: W
LayerCount: 2
Fore
SplineSet
1078 698 m 2,0,-1
 1078 633 l 2,1,2
 1078 582 1078 582 1029 553 c 2,3,-1
 367 162 l 2,4,5
 338 144 338 144 312 144 c 0,6,7
 280 144 280 144 254.5 168 c 128,-1,8
 229 192 229 192 229 229 c 0,9,10
 229 277 229 277 267 299 c 2,11,-1
 885 666 l 1,12,-1
 267 1030 l 2,13,14
 229 1054 229 1054 229 1102 c 0,15,16
 229 1139 229 1139 254.5 1163 c 128,-1,17
 280 1187 280 1187 312 1187 c 0,18,19
 337 1187 337 1187 367 1169 c 2,20,-1
 1029 778 l 2,21,22
 1078 749 1078 749 1078 698 c 2,0,-1
EndSplineSet
EndChar

StartChar: question
Encoding: 63 63 34
Width: 1237
Flags: W
LayerCount: 2
Fore
SplineSet
1052 897 m 2,0,-1
 567 479 l 1,1,-1
 567 375 l 2,2,3
 567 341 567 341 542 316 c 128,-1,4
 517 291 517 291 483 291 c 0,5,6
 448 291 448 291 423.5 316 c 128,-1,7
 399 341 399 341 399 375 c 2,8,-1
 399 514 l 2,9,10
 399 559 399 559 425 582 c 2,11,-1
 905 995 l 1,12,-1
 905 1057 l 1,13,-1
 821 1133 l 1,14,-1
 374 750 l 2,15,16
 344 724 344 724 312 724 c 0,17,18
 281 724 281 724 255 748 c 128,-1,19
 229 772 229 772 229 810 c 0,20,21
 229 851 229 851 251 870 c 2,22,-1
 767 1309 l 2,23,24
 790 1328 790 1328 823 1328 c 0,25,26
 854 1328 854 1328 874 1311 c 2,27,-1
 1046 1161 l 2,28,29
 1075 1139 1075 1139 1075 1098 c 2,30,-1
 1075 954 l 2,31,32
 1075 916 1075 916 1052 897 c 2,0,-1
481 172 m 256,33,34
 516 172 516 172 540.5 146.5 c 128,-1,35
 565 121 565 121 565 86 c 256,36,37
 565 51 565 51 540.5 26.5 c 128,-1,38
 516 2 516 2 481 2 c 256,39,40
 446 2 446 2 421.5 26.5 c 128,-1,41
 397 51 397 51 397 86 c 256,42,43
 397 121 397 121 421.5 146.5 c 128,-1,44
 446 172 446 172 481 172 c 256,33,34
EndSplineSet
EndChar

StartChar: at
Encoding: 64 64 35
Width: 1237
Flags: W
LayerCount: 2
Fore
SplineSet
885 254 m 2,0,-1
 885 1040 l 2,1,2
 885 1086 885 1086 848 1123.5 c 128,-1,3
 811 1161 811 1161 764 1161 c 2,4,-1
 506 1161 l 2,5,6
 449 1161 449 1161 423 1140 c 128,-1,7
 397 1119 397 1119 369.5 1067.5 c 128,-1,8
 342 1016 342 1016 293 1016 c 0,9,10
 254 1016 254 1016 230.5 1040 c 128,-1,11
 207 1064 207 1064 207 1096 c 0,12,13
 207 1160 207 1160 288.5 1244.5 c 128,-1,14
 370 1329 370 1329 481 1329 c 2,15,-1
 768 1329 l 2,16,17
 879 1329 879 1329 966 1241.5 c 128,-1,18
 1053 1154 1053 1154 1053 1034 c 2,19,-1
 1053 244 l 2,20,21
 1053 150 1053 150 979 76 c 128,-1,22
 905 2 905 2 805 2 c 0,23,24
 700 2 700 2 633 68 c 1,25,26
 567 2 567 2 463 2 c 0,27,28
 356 2 356 2 282.5 77 c 128,-1,29
 209 152 209 152 209 244 c 2,30,-1
 209 567 l 2,31,32
 209 671 209 671 283.5 746 c 128,-1,33
 358 821 358 821 463 821 c 2,34,-1
 627 821 l 2,35,36
 717 821 717 821 717 731 c 2,37,-1
 717 254 l 2,38,39
 717 219 717 219 741.5 194.5 c 128,-1,40
 766 170 766 170 801 170 c 0,41,42
 835 170 835 170 860 194.5 c 128,-1,43
 885 219 885 219 885 254 c 2,0,-1
549 254 m 2,44,-1
 549 653 l 1,45,-1
 473 653 l 2,46,47
 379 653 379 653 379 559 c 2,48,-1
 379 254 l 2,49,50
 379 219 379 219 404 194.5 c 128,-1,51
 429 170 429 170 463 170 c 0,52,53
 498 170 498 170 523.5 194.5 c 128,-1,54
 549 219 549 219 549 254 c 2,44,-1
EndSplineSet
EndChar

StartChar: A
Encoding: 65 65 36
Width: 1237
Flags: W
LayerCount: 2
Fore
SplineSet
212 117 m 2,0,-1
 552 1266 l 2,1,2
 572 1329 572 1329 636 1329 c 0,3,4
 698 1329 698 1329 714 1276 c 2,5,-1
 1049 109 l 2,6,7
 1053 96 1053 96 1053 84 c 0,8,9
 1053 49 1053 49 1029 24.5 c 128,-1,10
 1005 0 1005 0 974 0 c 0,11,12
 908 0 908 0 890 61 c 2,13,-1
 822 289 l 1,14,-1
 439 289 l 1,15,-1
 365 45 l 2,16,17
 362 29 362 29 340 14.5 c 128,-1,18
 318 0 318 0 292 0 c 0,19,20
 255 0 255 0 231 25 c 128,-1,21
 207 50 207 50 207 86 c 0,22,23
 207 101 207 101 212 117 c 2,0,-1
634 940 m 1,24,-1
 490 459 l 1,25,-1
 773 459 l 1,26,-1
 634 940 l 1,24,-1
EndSplineSet
EndChar

StartChar: B
Encoding: 66 66 37
Width: 1237
Flags: W
LayerCount: 2
Fore
SplineSet
1053 412 m 2,0,-1
 1053 338 l 2,1,2
 1053 199 1053 199 954.5 99.5 c 128,-1,3
 856 0 856 0 717 0 c 2,4,-1
 203 0 l 1,5,-1
 203 1329 l 1,6,-1
 717 1329 l 2,7,8
 856 1329 856 1329 954.5 1230 c 128,-1,9
 1053 1131 1053 1131 1053 991 c 2,10,-1
 1053 920 l 2,11,12
 1053 771 1053 771 938 666 c 1,13,14
 1053 559 1053 559 1053 412 c 2,0,-1
881 922 m 2,15,-1
 881 991 l 2,16,17
 881 1061 881 1061 831.5 1111 c 128,-1,18
 782 1161 782 1161 713 1161 c 2,19,-1
 371 1161 l 1,20,-1
 371 754 l 1,21,-1
 713 754 l 2,22,23
 781 754 781 754 831 803.5 c 128,-1,24
 881 853 881 853 881 922 c 2,15,-1
881 338 m 2,25,-1
 881 408 l 2,26,27
 881 478 881 478 831.5 528 c 128,-1,28
 782 578 782 578 713 578 c 2,29,-1
 373 578 l 1,30,-1
 373 170 l 1,31,-1
 713 170 l 2,32,33
 781 170 781 170 831 219.5 c 128,-1,34
 881 269 881 269 881 338 c 2,25,-1
EndSplineSet
EndChar

StartChar: C
Encoding: 67 67 38
Width: 1237
Flags: W
LayerCount: 2
Fore
SplineSet
668 168 m 2,0,-1
 971 168 l 2,1,2
 1006 168 1006 168 1031.5 143.5 c 128,-1,3
 1057 119 1057 119 1057 84 c 256,4,5
 1057 49 1057 49 1031.5 24.5 c 128,-1,6
 1006 0 1006 0 971 0 c 2,7,-1
 657 0 l 2,8,9
 597 0 597 0 533 38 c 128,-1,10
 469 76 469 76 444 123 c 2,11,-1
 250 498 l 2,12,13
 211 579 211 579 211 664 c 0,14,15
 211 758 211 758 248 827 c 2,16,-1
 444 1198 l 2,17,18
 472 1250 472 1250 531 1289.5 c 128,-1,19
 590 1329 590 1329 645 1329 c 2,20,-1
 977 1329 l 2,21,22
 1012 1329 1012 1329 1036.5 1304 c 128,-1,23
 1061 1279 1061 1279 1061 1245 c 0,24,25
 1061 1210 1061 1210 1036.5 1184.5 c 128,-1,26
 1012 1159 1012 1159 977 1159 c 2,27,-1
 657 1159 l 2,28,29
 617 1159 617 1159 592 1112 c 2,30,-1
 406 764 l 2,31,32
 384 723 384 723 384 667 c 0,33,34
 384 608 384 608 408 563 c 2,35,-1
 586 221 l 2,36,37
 611 168 611 168 668 168 c 2,0,-1
EndSplineSet
EndChar

StartChar: D
Encoding: 68 68 39
Width: 1237
Flags: W
LayerCount: 2
Fore
SplineSet
289 1329 m 2,0,-1
 621 1329 l 2,1,2
 686 1328 686 1328 747.5 1287 c 128,-1,3
 809 1246 809 1246 838 1188 c 2,4,-1
 1004 852 l 2,5,6
 1051 761 1051 761 1051 662 c 0,7,8
 1051 570 1051 570 1001 473 c 2,9,-1
 834 141 l 2,10,11
 802 77 802 77 742 38.5 c 128,-1,12
 682 0 682 0 608 0 c 2,13,-1
 287 0 l 2,14,15
 252 0 252 0 227.5 25 c 128,-1,16
 203 50 203 50 203 84 c 0,17,18
 203 119 203 119 227.5 144.5 c 128,-1,19
 252 170 252 170 287 170 c 2,20,-1
 375 170 l 1,21,-1
 375 1159 l 1,22,-1
 289 1159 l 2,23,24
 254 1159 254 1159 229.5 1184.5 c 128,-1,25
 205 1210 205 1210 205 1245 c 0,26,27
 205 1279 205 1279 229.5 1304 c 128,-1,28
 254 1329 254 1329 289 1329 c 2,0,-1
543 1159 m 1,29,-1
 543 168 l 1,30,-1
 602 168 l 2,31,32
 658 168 658 168 686 223 c 2,33,-1
 852 553 l 2,34,35
 883 618 883 618 883 662 c 0,36,37
 883 717 883 717 858 766 c 2,38,-1
 686 1108 l 2,39,40
 659 1159 659 1159 598 1159 c 2,41,-1
 543 1159 l 1,29,-1
EndSplineSet
EndChar

StartChar: E
Encoding: 69 69 40
Width: 1237
Flags: W
LayerCount: 2
Fore
SplineSet
969 1159 m 2,0,-1
 375 1159 l 1,1,-1
 375 750 l 1,2,-1
 631 750 l 2,3,4
 665 750 665 750 690 725 c 128,-1,5
 715 700 715 700 715 666 c 0,6,7
 715 630 715 630 690.5 605 c 128,-1,8
 666 580 666 580 631 580 c 2,9,-1
 375 580 l 1,10,-1
 375 168 l 1,11,-1
 971 168 l 2,12,13
 1005 168 1005 168 1030 143.5 c 128,-1,14
 1055 119 1055 119 1055 84 c 256,15,16
 1055 49 1055 49 1029.5 24.5 c 128,-1,17
 1004 0 1004 0 969 0 c 2,18,-1
 207 0 l 1,19,-1
 207 1329 l 1,20,-1
 969 1329 l 2,21,22
 1004 1329 1004 1329 1029.5 1303.5 c 128,-1,23
 1055 1278 1055 1278 1055 1243 c 0,24,25
 1055 1209 1055 1209 1029.5 1184 c 128,-1,26
 1004 1159 1004 1159 969 1159 c 2,0,-1
EndSplineSet
EndChar

StartChar: F
Encoding: 70 70 41
Width: 1237
Flags: W
LayerCount: 2
Fore
SplineSet
207 84 m 2,0,-1
 207 1329 l 1,1,-1
 969 1329 l 2,2,3
 1002 1329 1002 1329 1027.5 1304 c 128,-1,4
 1053 1279 1053 1279 1053 1245 c 0,5,6
 1053 1210 1053 1210 1028 1184.5 c 128,-1,7
 1003 1159 1003 1159 969 1159 c 2,8,-1
 375 1159 l 1,9,-1
 375 895 l 1,10,-1
 801 895 l 2,11,12
 836 895 836 895 860.5 870.5 c 128,-1,13
 885 846 885 846 885 811 c 256,14,15
 885 776 885 776 860.5 751.5 c 128,-1,16
 836 727 836 727 801 727 c 2,17,-1
 375 727 l 1,18,-1
 375 84 l 2,19,20
 375 49 375 49 350.5 24.5 c 128,-1,21
 326 0 326 0 291 0 c 256,22,23
 256 0 256 0 231.5 24.5 c 128,-1,24
 207 49 207 49 207 84 c 2,0,-1
EndSplineSet
EndChar

StartChar: G
Encoding: 71 71 42
Width: 1237
Flags: W
LayerCount: 2
Fore
SplineSet
694 1329 m 2,0,-1
 973 1329 l 2,1,2
 1008 1329 1008 1329 1032.5 1304.5 c 128,-1,3
 1057 1280 1057 1280 1057 1245 c 0,4,5
 1057 1208 1057 1208 1030.5 1183.5 c 128,-1,6
 1004 1159 1004 1159 973 1159 c 2,7,-1
 707 1159 l 2,8,9
 668 1159 668 1159 639 1122 c 2,10,-1
 403 819 l 2,11,12
 373 783 373 783 373 719 c 2,13,-1
 373 254 l 2,14,15
 373 218 373 218 397.5 193 c 128,-1,16
 422 168 422 168 457 168 c 2,17,-1
 799 168 l 2,18,19
 833 168 833 168 858 193 c 128,-1,20
 883 218 883 218 883 252 c 2,21,-1
 883 434 l 1,22,-1
 709 434 l 2,23,24
 673 434 673 434 649 458.5 c 128,-1,25
 625 483 625 483 625 518 c 256,26,27
 625 553 625 553 649 577.5 c 128,-1,28
 673 602 673 602 709 602 c 2,29,-1
 1051 602 l 1,30,-1
 1051 252 l 2,31,32
 1051 148 1051 148 977 74 c 128,-1,33
 903 0 903 0 799 0 c 2,34,-1
 457 0 l 2,35,36
 352 0 352 0 277.5 74 c 128,-1,37
 203 148 203 148 203 252 c 2,38,-1
 203 717 l 2,39,40
 203 842 203 842 270 928 c 2,41,-1
 518 1243 l 2,42,43
 545 1279 545 1279 593.5 1304 c 128,-1,44
 642 1329 642 1329 694 1329 c 2,0,-1
EndSplineSet
EndChar

StartChar: H
Encoding: 72 72 43
Width: 1237
Flags: W
LayerCount: 2
Fore
SplineSet
203 84 m 2,0,-1
 203 1245 l 2,1,2
 203 1279 203 1279 227.5 1304 c 128,-1,3
 252 1329 252 1329 287 1329 c 0,4,5
 321 1329 321 1329 346 1304 c 128,-1,6
 371 1279 371 1279 371 1245 c 2,7,-1
 371 750 l 1,8,-1
 883 750 l 1,9,-1
 883 1245 l 2,10,11
 883 1279 883 1279 907.5 1304 c 128,-1,12
 932 1329 932 1329 967 1329 c 256,13,14
 1002 1329 1002 1329 1026.5 1304 c 128,-1,15
 1051 1279 1051 1279 1051 1243 c 2,16,-1
 1051 84 l 2,17,18
 1051 50 1051 50 1025.5 25 c 128,-1,19
 1000 0 1000 0 967 0 c 0,20,21
 931 0 931 0 907 24.5 c 128,-1,22
 883 49 883 49 883 84 c 2,23,-1
 883 582 l 1,24,-1
 373 582 l 1,25,-1
 373 84 l 2,26,27
 373 50 373 50 347.5 25 c 128,-1,28
 322 0 322 0 287 0 c 0,29,30
 253 0 253 0 228 24.5 c 128,-1,31
 203 49 203 49 203 84 c 2,0,-1
EndSplineSet
EndChar

StartChar: I
Encoding: 73 73 44
Width: 1237
Flags: W
LayerCount: 2
Fore
SplineSet
289 1329 m 2,0,-1
 969 1329 l 2,1,2
 1002 1329 1002 1329 1027.5 1304 c 128,-1,3
 1053 1279 1053 1279 1053 1245 c 0,4,5
 1053 1210 1053 1210 1028 1184.5 c 128,-1,6
 1003 1159 1003 1159 969 1159 c 2,7,-1
 715 1159 l 1,8,-1
 715 168 l 1,9,-1
 969 168 l 2,10,11
 1004 168 1004 168 1028.5 143.5 c 128,-1,12
 1053 119 1053 119 1053 84 c 256,13,14
 1053 49 1053 49 1028 24.5 c 128,-1,15
 1003 0 1003 0 969 0 c 2,16,-1
 289 0 l 2,17,18
 254 0 254 0 229.5 24.5 c 128,-1,19
 205 49 205 49 205 84 c 256,20,21
 205 119 205 119 229.5 143.5 c 128,-1,22
 254 168 254 168 289 168 c 2,23,-1
 547 168 l 1,24,-1
 547 1159 l 1,25,-1
 289 1159 l 2,26,27
 254 1159 254 1159 229.5 1184 c 128,-1,28
 205 1209 205 1209 205 1243 c 0,29,30
 205 1279 205 1279 229.5 1304 c 128,-1,31
 254 1329 254 1329 289 1329 c 2,0,-1
EndSplineSet
EndChar

StartChar: J
Encoding: 74 74 45
Width: 1237
Flags: W
LayerCount: 2
Fore
SplineSet
289 254 m 2,0,-1
 289 520 l 2,1,2
 289 555 289 555 313.5 579.5 c 128,-1,3
 338 604 338 604 373 604 c 256,4,5
 408 604 408 604 432.5 579.5 c 128,-1,6
 457 555 457 555 457 520 c 2,7,-1
 457 252 l 2,8,9
 457 218 457 218 482 194 c 128,-1,10
 507 170 507 170 543 170 c 2,11,-1
 713 170 l 2,12,13
 748 170 748 170 773.5 194.5 c 128,-1,14
 799 219 799 219 799 254 c 2,15,-1
 799 1245 l 2,16,17
 799 1280 799 1280 823 1304.5 c 128,-1,18
 847 1329 847 1329 881 1329 c 256,19,20
 915 1329 915 1329 941 1302 c 128,-1,21
 967 1275 967 1275 967 1241 c 2,22,-1
 967 254 l 2,23,24
 967 148 967 148 890 74 c 128,-1,25
 813 0 813 0 713 0 c 2,26,-1
 543 0 l 2,27,28
 438 0 438 0 363.5 75 c 128,-1,29
 289 150 289 150 289 254 c 2,0,-1
EndSplineSet
EndChar

StartChar: K
Encoding: 75 75 46
Width: 1237
Flags: W
LayerCount: 2
Fore
SplineSet
205 84 m 2,0,-1
 205 1243 l 2,1,2
 205 1279 205 1279 229.5 1304 c 128,-1,3
 254 1329 254 1329 289 1329 c 256,4,5
 324 1329 324 1329 348.5 1304.5 c 128,-1,6
 373 1280 373 1280 373 1245 c 2,7,-1
 373 848 l 1,8,-1
 911 1307 l 2,9,10
 939 1330 939 1330 974 1330 c 256,11,12
 1009 1330 1009 1330 1033 1304 c 128,-1,13
 1057 1278 1057 1278 1057 1244 c 0,14,15
 1057 1209 1057 1209 1030 1186 c 2,16,-1
 420 668 l 1,17,-1
 1030 141 l 2,18,19
 1055 120 1055 120 1055 87 c 256,20,21
 1055 54 1055 54 1030.5 27 c 128,-1,22
 1006 0 1006 0 970 0 c 0,23,24
 936 0 936 0 909 23 c 2,25,-1
 373 485 l 1,26,-1
 373 84 l 2,27,28
 373 49 373 49 348.5 24.5 c 128,-1,29
 324 0 324 0 289 0 c 0,30,31
 255 0 255 0 230 24.5 c 128,-1,32
 205 49 205 49 205 84 c 2,0,-1
EndSplineSet
EndChar

StartChar: L
Encoding: 76 76 47
Width: 1237
Flags: W
LayerCount: 2
Fore
SplineSet
207 0 m 1,0,-1
 207 1245 l 2,1,2
 207 1279 207 1279 232 1304 c 128,-1,3
 257 1329 257 1329 291 1329 c 256,4,5
 325 1329 325 1329 350 1304 c 128,-1,6
 375 1279 375 1279 375 1245 c 2,7,-1
 375 168 l 1,8,-1
 969 168 l 2,9,10
 1004 168 1004 168 1029.5 143.5 c 128,-1,11
 1055 119 1055 119 1055 84 c 256,12,13
 1055 49 1055 49 1029.5 24.5 c 128,-1,14
 1004 0 1004 0 969 0 c 2,15,-1
 207 0 l 1,0,-1
EndSplineSet
EndChar

StartChar: M
Encoding: 77 77 48
Width: 1237
Flags: W
LayerCount: 2
Fore
SplineSet
545 807 m 2,0,-1
 545 850 l 1,1,-1
 371 1098 l 1,2,-1
 371 84 l 2,3,4
 371 49 371 49 346.5 24.5 c 128,-1,5
 322 0 322 0 287 0 c 256,6,7
 252 0 252 0 227.5 25 c 128,-1,8
 203 50 203 50 203 84 c 2,9,-1
 203 1329 l 1,10,-1
 420 1329 l 1,11,-1
 627 1028 l 1,12,-1
 840 1329 l 1,13,-1
 1053 1329 l 1,14,-1
 1053 84 l 2,15,16
 1053 49 1053 49 1027.5 24.5 c 128,-1,17
 1002 0 1002 0 967 0 c 0,18,19
 933 0 933 0 908 25 c 128,-1,20
 883 50 883 50 883 84 c 2,21,-1
 883 1094 l 1,22,-1
 713 854 l 1,23,-1
 713 807 l 2,24,25
 713 773 713 773 688 748 c 128,-1,26
 663 723 663 723 629 723 c 0,27,28
 594 723 594 723 569.5 748 c 128,-1,29
 545 773 545 773 545 807 c 2,0,-1
EndSplineSet
EndChar

StartChar: N
Encoding: 78 78 49
Width: 1237
Flags: W
LayerCount: 2
Fore
SplineSet
1053 1243 m 2,0,-1
 1053 0 l 1,1,-1
 827 0 l 1,2,-1
 375 1032 l 1,3,-1
 375 84 l 2,4,5
 375 49 375 49 350.5 24.5 c 128,-1,6
 326 0 326 0 291 0 c 256,7,8
 256 0 256 0 231.5 24.5 c 128,-1,9
 207 49 207 49 207 84 c 2,10,-1
 207 1329 l 1,11,-1
 430 1329 l 1,12,-1
 883 299 l 1,13,-1
 883 1243 l 2,14,15
 883 1278 883 1278 908.5 1303.5 c 128,-1,16
 934 1329 934 1329 969 1329 c 256,17,18
 1004 1329 1004 1329 1028.5 1304 c 128,-1,19
 1053 1279 1053 1279 1053 1243 c 2,0,-1
EndSplineSet
EndChar

StartChar: O
Encoding: 79 79 50
Width: 1237
Flags: W
LayerCount: 2
Fore
SplineSet
829 1206 m 2,0,-1
 1014 829 l 2,1,2
 1053 752 1053 752 1053 662 c 0,3,4
 1053 574 1053 574 1014 496 c 2,5,-1
 829 123 l 2,6,7
 770 0 770 0 629 0 c 0,8,9
 562 0 562 0 508.5 35 c 128,-1,10
 455 70 455 70 428 123 c 2,11,-1
 242 496 l 2,12,13
 205 569 205 569 205 662 c 256,14,15
 205 755 205 755 242 829 c 2,16,-1
 428 1206 l 2,17,18
 491 1329 491 1329 629 1329 c 0,19,20
 769 1329 769 1329 829 1206 c 2,0,-1
573 1122 m 2,21,-1
 399 768 l 2,22,23
 375 715 375 715 375 664 c 0,24,25
 375 609 375 609 399 559 c 2,26,-1
 578 201 l 2,27,28
 592 168 592 168 629 168 c 0,29,30
 661 168 661 168 678 201 c 2,31,-1
 858 559 l 2,32,33
 883 612 883 612 883 664 c 0,34,35
 883 719 883 719 858 768 c 2,36,-1
 682 1122 l 2,37,38
 665 1161 665 1161 629 1161 c 256,39,40
 593 1161 593 1161 573 1122 c 2,21,-1
EndSplineSet
EndChar

StartChar: P
Encoding: 80 80 51
Width: 1237
Flags: W
LayerCount: 2
Fore
SplineSet
207 84 m 2,0,-1
 207 1329 l 1,1,-1
 803 1329 l 2,2,3
 906 1329 906 1329 980.5 1254 c 128,-1,4
 1055 1179 1055 1179 1055 1075 c 2,5,-1
 1055 760 l 2,6,7
 1055 656 1055 656 981 582 c 128,-1,8
 907 508 907 508 803 508 c 2,9,-1
 377 508 l 1,10,-1
 377 84 l 2,11,12
 377 49 377 49 352.5 24.5 c 128,-1,13
 328 0 328 0 293 0 c 0,14,15
 257 0 257 0 232 24.5 c 128,-1,16
 207 49 207 49 207 84 c 2,0,-1
377 676 m 1,17,-1
 803 676 l 2,18,19
 837 676 837 676 862 700.5 c 128,-1,20
 887 725 887 725 887 760 c 2,21,-1
 887 1075 l 2,22,23
 887 1110 887 1110 862 1134.5 c 128,-1,24
 837 1159 837 1159 803 1159 c 2,25,-1
 377 1159 l 1,26,-1
 377 676 l 1,17,-1
EndSplineSet
EndChar

StartChar: Q
Encoding: 81 81 52
Width: 1237
Flags: W
LayerCount: 2
Fore
SplineSet
340 961 m 2,0,-1
 698 1270 l 2,1,2
 770 1329 770 1329 846 1329 c 0,3,4
 930 1329 930 1329 991.5 1268 c 128,-1,5
 1053 1207 1053 1207 1053 1137 c 2,6,-1
 1053 623 l 2,7,8
 1053 477 1053 477 928 371 c 2,9,-1
 815 274 l 1,10,-1
 858 168 l 1,11,-1
 971 168 l 2,12,13
 1006 168 1006 168 1030.5 143.5 c 128,-1,14
 1055 119 1055 119 1055 84 c 256,15,16
 1055 49 1055 49 1030.5 24.5 c 128,-1,17
 1006 0 1006 0 971 0 c 2,18,-1
 741 0 l 1,19,-1
 680 158 l 1,20,-1
 565 63 l 2,21,22
 489 0 489 0 412 0 c 0,23,24
 324 0 324 0 264.5 60.5 c 128,-1,25
 205 121 205 121 205 207 c 2,26,-1
 205 676 l 2,27,28
 205 764 205 764 232 827.5 c 128,-1,29
 259 891 259 891 340 961 c 2,0,-1
809 1147 m 2,30,-1
 451 838 l 2,31,32
 404 797 404 797 388.5 760 c 128,-1,33
 373 723 373 723 373 655 c 2,34,-1
 373 217 l 2,35,36
 373 165 373 165 413 165 c 0,37,38
 429 165 429 165 444 178 c 2,39,-1
 614 324 l 1,40,-1
 559 471 l 2,41,42
 547 500 547 500 547 521 c 0,43,44
 547 552 547 552 572 576.5 c 128,-1,45
 597 601 597 601 631 601 c 0,46,47
 690 601 690 601 709 553 c 2,48,-1
 752 440 l 1,49,50
 825 497 825 497 854 534.5 c 128,-1,51
 883 572 883 572 883 623 c 2,52,-1
 883 1118 l 2,53,54
 883 1160 883 1160 845 1160 c 0,55,56
 824 1160 824 1160 809 1147 c 2,30,-1
EndSplineSet
EndChar

StartChar: R
Encoding: 82 82 53
Width: 1237
Flags: W
LayerCount: 2
Fore
SplineSet
209 84 m 2,0,-1
 209 1329 l 1,1,-1
 803 1329 l 2,2,3
 906 1329 906 1329 980.5 1254 c 128,-1,4
 1055 1179 1055 1179 1055 1075 c 2,5,-1
 1055 979 l 2,6,7
 1055 874 1055 874 981 799.5 c 128,-1,8
 907 725 907 725 803 725 c 2,9,-1
 696 725 l 1,10,-1
 1040 135 l 2,11,12
 1056 109 1056 109 1056 83 c 0,13,14
 1056 49 1056 49 1030 24.5 c 128,-1,15
 1004 0 1004 0 971 0 c 0,16,17
 921 0 921 0 895 45 c 2,18,-1
 500 725 l 1,19,-1
 379 725 l 1,20,-1
 379 84 l 2,21,22
 379 49 379 49 353.5 24.5 c 128,-1,23
 328 0 328 0 293 0 c 256,24,25
 258 0 258 0 233.5 24.5 c 128,-1,26
 209 49 209 49 209 84 c 2,0,-1
377 893 m 1,27,-1
 803 893 l 2,28,29
 838 893 838 893 862.5 917.5 c 128,-1,30
 887 942 887 942 887 977 c 2,31,-1
 887 1075 l 2,32,33
 887 1110 887 1110 862.5 1134.5 c 128,-1,34
 838 1159 838 1159 803 1159 c 2,35,-1
 377 1159 l 1,36,-1
 377 893 l 1,27,-1
EndSplineSet
EndChar

StartChar: S
Encoding: 83 83 54
Width: 1237
Flags: W
LayerCount: 2
Fore
SplineSet
397 1329 m 2,0,-1
 834 1329 l 2,1,2
 914 1329 914 1329 985.5 1261.5 c 128,-1,3
 1057 1194 1057 1194 1057 1098 c 0,4,5
 1057 1062 1057 1062 1031.5 1037 c 128,-1,6
 1006 1012 1006 1012 975 1012 c 0,7,8
 932 1012 932 1012 916 1031.5 c 128,-1,9
 900 1051 900 1051 885.5 1104 c 128,-1,10
 871 1157 871 1157 821 1157 c 2,11,-1
 406 1157 l 2,12,13
 376 1157 376 1157 376 1138 c 0,14,15
 376 1126 376 1126 389 1110 c 2,16,-1
 1012 313 l 2,17,18
 1057 255 1057 255 1057 189 c 0,19,20
 1057 114 1057 114 1002.5 57 c 128,-1,21
 948 0 948 0 881 0 c 2,22,-1
 428 0 l 2,23,24
 338 0 338 0 271.5 68.5 c 128,-1,25
 205 137 205 137 205 219 c 0,26,27
 205 313 205 313 293 313 c 0,28,29
 327 313 327 313 351 288.5 c 128,-1,30
 375 264 375 264 375 231 c 0,31,32
 375 204 375 204 393.5 186 c 128,-1,33
 412 168 412 168 440 168 c 2,34,-1
 858 168 l 2,35,36
 885 168 885 168 885 189 c 0,37,38
 885 199 885 199 872 215 c 2,39,-1
 250 1012 l 2,40,41
 206 1069 206 1069 206 1136 c 0,42,43
 206 1214 206 1214 262 1271.5 c 128,-1,44
 318 1329 318 1329 397 1329 c 2,0,-1
EndSplineSet
EndChar

StartChar: T
Encoding: 84 84 55
Width: 1237
Flags: W
LayerCount: 2
Fore
SplineSet
205 1100 m 2,0,-1
 205 1327 l 1,1,-1
 1053 1327 l 1,2,-1
 1053 1098 l 2,3,4
 1053 1063 1053 1063 1028 1038.5 c 128,-1,5
 1003 1014 1003 1014 969 1014 c 0,6,7
 934 1014 934 1014 908.5 1039 c 128,-1,8
 883 1064 883 1064 883 1098 c 2,9,-1
 883 1159 l 1,10,-1
 713 1159 l 1,11,-1
 713 84 l 2,12,13
 713 49 713 49 688 24.5 c 128,-1,14
 663 0 663 0 629 0 c 0,15,16
 593 0 593 0 568 24.5 c 128,-1,17
 543 49 543 49 543 84 c 2,18,-1
 543 1159 l 1,19,-1
 373 1159 l 1,20,-1
 373 1100 l 2,21,22
 373 1065 373 1065 348.5 1040.5 c 128,-1,23
 324 1016 324 1016 289 1016 c 256,24,25
 254 1016 254 1016 229.5 1040.5 c 128,-1,26
 205 1065 205 1065 205 1100 c 2,0,-1
EndSplineSet
EndChar

StartChar: U
Encoding: 85 85 56
Width: 1237
Flags: W
LayerCount: 2
Fore
SplineSet
205 252 m 2,0,-1
 205 1243 l 2,1,2
 205 1278 205 1278 230 1303.5 c 128,-1,3
 255 1329 255 1329 289 1329 c 256,4,5
 323 1329 323 1329 348 1304 c 128,-1,6
 373 1279 373 1279 373 1245 c 2,7,-1
 373 252 l 2,8,9
 373 219 373 219 398 194.5 c 128,-1,10
 423 170 423 170 457 170 c 2,11,-1
 801 170 l 2,12,13
 836 170 836 170 860.5 194 c 128,-1,14
 885 218 885 218 885 252 c 2,15,-1
 885 1243 l 2,16,17
 885 1279 885 1279 909.5 1304 c 128,-1,18
 934 1329 934 1329 969 1329 c 256,19,20
 1004 1329 1004 1329 1028.5 1304 c 128,-1,21
 1053 1279 1053 1279 1053 1243 c 2,22,-1
 1053 254 l 2,23,24
 1053 150 1053 150 978.5 75 c 128,-1,25
 904 0 904 0 801 0 c 2,26,-1
 457 0 l 2,27,28
 353 0 353 0 279 74 c 128,-1,29
 205 148 205 148 205 252 c 2,0,-1
EndSplineSet
EndChar

StartChar: V
Encoding: 86 86 57
Width: 1237
Flags: W
LayerCount: 2
Fore
SplineSet
1057 1243 m 2,0,-1
 1057 934 l 1,1,-1
 715 63 l 2,2,3
 689 0 689 0 633 0 c 0,4,5
 574 0 574 0 549 63 c 2,6,-1
 209 934 l 1,7,-1
 209 1243 l 2,8,9
 209 1279 209 1279 233.5 1304 c 128,-1,10
 258 1329 258 1329 293 1329 c 256,11,12
 328 1329 328 1329 352.5 1304 c 128,-1,13
 377 1279 377 1279 377 1243 c 2,14,-1
 377 969 l 1,15,-1
 633 317 l 1,16,-1
 889 967 l 1,17,-1
 889 1243 l 2,18,19
 889 1279 889 1279 913.5 1304 c 128,-1,20
 938 1329 938 1329 973 1329 c 256,21,22
 1008 1329 1008 1329 1032.5 1304 c 128,-1,23
 1057 1279 1057 1279 1057 1243 c 2,0,-1
EndSplineSet
EndChar

StartChar: W
Encoding: 87 87 58
Width: 1237
Flags: W
LayerCount: 2
Fore
SplineSet
715 809 m 2,0,-1
 715 250 l 1,1,-1
 764 168 l 1,2,-1
 834 168 l 1,3,-1
 885 252 l 1,4,-1
 885 1243 l 2,5,6
 885 1278 885 1278 910.5 1303.5 c 128,-1,7
 936 1329 936 1329 971 1329 c 0,8,9
 1005 1329 1005 1329 1030 1304 c 128,-1,10
 1055 1279 1055 1279 1055 1245 c 2,11,-1
 1055 225 l 2,12,13
 1055 206 1055 206 1034 172 c 2,14,-1
 956 43 l 2,15,16
 932 0 932 0 883 0 c 2,17,-1
 725 0 l 2,18,19
 650 0 650 0 629 68 c 1,20,21
 606 0 606 0 537 0 c 2,22,-1
 389 0 l 2,23,24
 325 0 325 0 297 47 c 2,25,-1
 225 168 l 2,26,27
 205 201 205 201 205 225 c 2,28,-1
 205 1243 l 2,29,30
 205 1278 205 1278 230.5 1303.5 c 128,-1,31
 256 1329 256 1329 291 1329 c 0,32,33
 324 1329 324 1329 348.5 1303.5 c 128,-1,34
 373 1278 373 1278 373 1243 c 2,35,-1
 373 248 l 1,36,-1
 422 168 l 1,37,-1
 494 168 l 1,38,-1
 547 252 l 1,39,-1
 547 809 l 2,40,41
 547 844 547 844 571.5 868.5 c 128,-1,42
 596 893 596 893 631 893 c 256,43,44
 666 893 666 893 690.5 868.5 c 128,-1,45
 715 844 715 844 715 809 c 2,0,-1
EndSplineSet
EndChar

StartChar: X
Encoding: 88 88 59
Width: 1237
Flags: W
LayerCount: 2
Fore
SplineSet
644 498 m 1,0,-1
 377 41 l 2,1,2
 354 1 354 1 306 1 c 0,3,4
 270 1 270 1 244.5 27 c 128,-1,5
 219 53 219 53 219 84 c 0,6,7
 219 108 219 108 234 133 c 2,8,-1
 547 664 l 1,9,-1
 240 1192 l 2,10,11
 222 1223 222 1223 222 1249 c 0,12,13
 222 1281 222 1281 247 1305.5 c 128,-1,14
 272 1330 272 1330 305 1330 c 0,15,16
 354 1330 354 1330 377 1290 c 2,17,-1
 648 834 l 1,18,-1
 914 1288 l 2,19,20
 939 1329 939 1329 985 1329 c 0,21,22
 1020 1329 1020 1329 1046 1305 c 128,-1,23
 1072 1281 1072 1281 1072 1247 c 0,24,25
 1072 1224 1072 1224 1059 1202 c 2,26,-1
 744 666 l 1,27,-1
 1057 127 l 2,28,29
 1069 107 1069 107 1069 84 c 0,30,31
 1069 48 1069 48 1044.5 24 c 128,-1,32
 1020 0 1020 0 985 0 c 0,33,34
 936 0 936 0 912 41 c 2,35,-1
 644 498 l 1,0,-1
EndSplineSet
EndChar

StartChar: Y
Encoding: 89 89 60
Width: 1237
Flags: W
LayerCount: 2
Fore
SplineSet
717 637 m 1,0,-1
 717 84 l 2,1,2
 717 49 717 49 692 24.5 c 128,-1,3
 667 0 667 0 633 0 c 0,4,5
 597 0 597 0 572 24.5 c 128,-1,6
 547 49 547 49 547 84 c 2,7,-1
 547 637 l 1,8,-1
 209 1065 l 1,9,-1
 209 1243 l 2,10,11
 209 1279 209 1279 233.5 1304 c 128,-1,12
 258 1329 258 1329 293 1329 c 256,13,14
 328 1329 328 1329 353.5 1303.5 c 128,-1,15
 379 1278 379 1278 379 1243 c 2,16,-1
 379 1128 l 1,17,-1
 631 803 l 1,18,-1
 887 1126 l 1,19,-1
 887 1243 l 2,20,21
 887 1278 887 1278 912 1303.5 c 128,-1,22
 937 1329 937 1329 971 1329 c 0,23,24
 1004 1329 1004 1329 1029.5 1305.5 c 128,-1,25
 1055 1282 1055 1282 1055 1243 c 2,26,-1
 1055 1067 l 1,27,-1
 717 637 l 1,0,-1
EndSplineSet
EndChar

StartChar: Z
Encoding: 90 90 61
Width: 1237
Flags: W
LayerCount: 2
Fore
SplineSet
287 1329 m 2,0,-1
 1053 1329 l 1,1,-1
 1053 1221 l 1,2,-1
 436 168 l 1,3,-1
 969 168 l 2,4,5
 1004 168 1004 168 1028.5 143.5 c 128,-1,6
 1053 119 1053 119 1053 84 c 0,7,8
 1053 50 1053 50 1028 25 c 128,-1,9
 1003 0 1003 0 969 0 c 2,10,-1
 205 0 l 1,11,-1
 205 111 l 1,12,-1
 821 1159 l 1,13,-1
 287 1159 l 2,14,15
 253 1159 253 1159 229 1184.5 c 128,-1,16
 205 1210 205 1210 205 1245 c 0,17,18
 205 1279 205 1279 229 1304 c 128,-1,19
 253 1329 253 1329 287 1329 c 2,0,-1
EndSplineSet
EndChar

StartChar: bracketleft
Encoding: 91 91 62
Width: 1237
Flags: W
LayerCount: 2
Fore
SplineSet
631 170 m 1,0,-1
 969 170 l 2,1,2
 1004 170 1004 170 1028.5 145.5 c 128,-1,3
 1053 121 1053 121 1053 86 c 256,4,5
 1053 51 1053 51 1028.5 26.5 c 128,-1,6
 1004 2 1004 2 969 2 c 2,7,-1
 291 2 l 2,8,9
 257 2 257 2 232 27 c 128,-1,10
 207 52 207 52 207 86 c 2,11,-1
 207 1245 l 2,12,13
 207 1281 207 1281 231.5 1306 c 128,-1,14
 256 1331 256 1331 291 1331 c 2,15,-1
 969 1331 l 2,16,17
 1003 1331 1003 1331 1028 1306 c 128,-1,18
 1053 1281 1053 1281 1053 1247 c 0,19,20
 1053 1212 1053 1212 1028.5 1186.5 c 128,-1,21
 1004 1161 1004 1161 969 1161 c 2,22,-1
 631 1161 l 1,23,-1
 631 170 l 1,0,-1
463 170 m 1,24,-1
 463 1161 l 1,25,-1
 375 1161 l 1,26,-1
 375 170 l 1,27,-1
 463 170 l 1,24,-1
EndSplineSet
EndChar

StartChar: backslash
Encoding: 92 92 63
Width: 1237
Flags: W
LayerCount: 2
Fore
SplineSet
932 25 m 2,0,-1
 250 1184 l 2,1,2
 229 1222 229 1222 229 1252 c 0,3,4
 229 1287 229 1287 257 1308.5 c 128,-1,5
 285 1330 285 1330 318 1330 c 0,6,7
 355 1330 355 1330 371 1303 c 2,8,-1
 1051 145 l 2,9,10
 1073 109 1073 109 1073 79 c 0,11,12
 1073 44 1073 44 1045 21.5 c 128,-1,13
 1017 -1 1017 -1 984 -1 c 0,14,15
 948 -1 948 -1 932 25 c 2,0,-1
EndSplineSet
EndChar

StartChar: bracketright
Encoding: 93 93 64
Width: 1237
Flags: W
LayerCount: 2
Fore
SplineSet
627 1161 m 1,0,-1
 291 1161 l 2,1,2
 255 1161 255 1161 230 1185.5 c 128,-1,3
 205 1210 205 1210 205 1245 c 0,4,5
 205 1279 205 1279 230.5 1304 c 128,-1,6
 256 1329 256 1329 291 1329 c 2,7,-1
 967 1329 l 2,8,9
 1002 1329 1002 1329 1027.5 1304.5 c 128,-1,10
 1053 1280 1053 1280 1053 1245 c 2,11,-1
 1053 86 l 2,12,13
 1053 51 1053 51 1028 26.5 c 128,-1,14
 1003 2 1003 2 969 2 c 2,15,-1
 291 2 l 2,16,17
 256 2 256 2 231.5 27.5 c 128,-1,18
 207 53 207 53 207 88 c 0,19,20
 207 122 207 122 231.5 146 c 128,-1,21
 256 170 256 170 291 170 c 2,22,-1
 627 170 l 1,23,-1
 627 1161 l 1,0,-1
797 1161 m 1,24,-1
 797 170 l 1,25,-1
 885 170 l 1,26,-1
 885 1161 l 1,27,-1
 797 1161 l 1,24,-1
EndSplineSet
EndChar

StartChar: asciicircum
Encoding: 94 94 65
Width: 1237
Flags: W
LayerCount: 2
Fore
SplineSet
239 356 m 2,0,-1
 571 991 l 2,1,2
 597 1040 597 1040 647 1040 c 256,3,4
 697 1040 697 1040 723 991 c 2,5,-1
 1054 356 l 2,6,7
 1071 326 1071 326 1071 300 c 0,8,9
 1071 269 1071 269 1046.5 244.5 c 128,-1,10
 1022 220 1022 220 988 220 c 0,11,12
 942 220 942 220 917 256 c 2,13,-1
 647 659 l 1,14,-1
 378 256 l 2,15,16
 352 220 352 220 306 220 c 0,17,18
 272 220 272 220 247.5 244 c 128,-1,19
 223 268 223 268 223 299 c 0,20,21
 223 326 223 326 239 356 c 2,0,-1
EndSplineSet
EndChar

StartChar: underscore
Encoding: 95 95 66
Width: 1237
Flags: W
LayerCount: 2
Fore
SplineSet
1247 -256 m 1,0,-1
 -10 -256 l 1,1,-1
 -10 -86 l 1,2,-1
 1247 -86 l 1,3,-1
 1247 -256 l 1,0,-1
EndSplineSet
EndChar

StartChar: grave
Encoding: 96 96 67
Width: 1237
Flags: W
LayerCount: 2
Fore
SplineSet
815 1180 m 2,0,1
 862 1156 862 1156 862 1104 c 0,2,3
 862 1071 862 1071 839 1044.5 c 128,-1,4
 816 1018 816 1018 780 1018 c 0,5,6
 761 1018 761 1018 743 1026 c 2,7,-1
 438 1167 l 2,8,9
 391 1191 391 1191 391 1243 c 0,10,11
 391 1276 391 1276 414 1302.5 c 128,-1,12
 437 1329 437 1329 473 1329 c 0,13,14
 492 1329 492 1329 510 1321 c 2,15,-1
 815 1180 l 2,0,1
EndSplineSet
EndChar

StartChar: a
Encoding: 97 97 68
Width: 1237
Flags: W
LayerCount: 2
Fore
SplineSet
457 606 m 2,0,-1
 786 606 l 2,1,2
 813 606 813 606 864 594 c 1,3,-1
 862 713 l 2,4,5
 862 748 862 748 837.5 772.5 c 128,-1,6
 813 797 813 797 778 797 c 2,7,-1
 459 797 l 2,8,9
 425 797 425 797 400 822 c 128,-1,10
 375 847 375 847 375 881 c 0,11,12
 375 916 375 916 399.5 940.5 c 128,-1,13
 424 965 424 965 459 965 c 2,14,-1
 778 965 l 2,15,16
 882 965 882 965 955.5 892 c 128,-1,17
 1029 819 1029 819 1032 713 c 2,18,-1
 1053 84 l 2,19,20
 1053 49 1053 49 1028 24.5 c 128,-1,21
 1003 0 1003 0 969 0 c 0,22,23
 933 0 933 0 908 24.5 c 128,-1,24
 883 49 883 49 883 84 c 1,25,-1
 741 0 l 1,26,-1
 457 0 l 2,27,28
 351 0 351 0 277 74 c 128,-1,29
 203 148 203 148 203 254 c 2,30,-1
 203 352 l 2,31,32
 203 457 203 457 277.5 531.5 c 128,-1,33
 352 606 352 606 457 606 c 2,0,-1
877 279 m 1,34,-1
 872 350 l 2,35,36
 871 386 871 386 847 410 c 128,-1,37
 823 434 823 434 788 434 c 2,38,-1
 457 434 l 2,39,40
 422 434 422 434 397.5 409.5 c 128,-1,41
 373 385 373 385 373 350 c 2,42,-1
 373 256 l 2,43,44
 373 222 373 222 398 197 c 128,-1,45
 423 172 423 172 457 172 c 2,46,-1
 694 172 l 1,47,-1
 877 279 l 1,34,-1
EndSplineSet
EndChar

StartChar: b
Encoding: 98 98 69
Width: 1237
Flags: W
LayerCount: 2
Fore
SplineSet
379 1245 m 2,0,-1
 379 850 l 1,1,-1
 453 909 l 2,2,3
 523 967 523 967 598 967 c 2,4,-1
 752 967 l 2,5,6
 837 967 837 967 903 909 c 2,7,-1
 983 840 l 2,8,9
 1016 811 1016 811 1037.5 757 c 128,-1,10
 1059 703 1059 703 1059 651 c 2,11,-1
 1059 311 l 2,12,13
 1059 265 1059 265 1039 214 c 128,-1,14
 1019 163 1019 163 993 139 c 2,15,-1
 920 70 l 2,16,17
 892 43 892 43 840 21.5 c 128,-1,18
 788 0 788 0 752 0 c 2,19,-1
 608 0 l 2,20,21
 503 0 503 0 379 117 c 1,22,-1
 379 84 l 2,23,24
 379 49 379 49 354.5 24.5 c 128,-1,25
 330 0 330 0 295 0 c 256,26,27
 260 0 260 0 235.5 24.5 c 128,-1,28
 211 49 211 49 211 84 c 2,29,-1
 211 1245 l 2,30,31
 211 1280 211 1280 236 1304.5 c 128,-1,32
 261 1329 261 1329 295 1329 c 0,33,34
 330 1329 330 1329 354.5 1304.5 c 128,-1,35
 379 1280 379 1280 379 1245 c 2,0,-1
739 797 m 2,36,-1
 623 797 l 2,37,38
 581 797 581 797 559 778 c 2,39,-1
 408 649 l 2,40,41
 379 623 379 623 379 571 c 2,42,-1
 379 381 l 2,43,44
 379 339 379 339 412 311 c 2,45,-1
 547 197 l 2,46,47
 576 170 576 170 608 170 c 2,48,-1
 745 170 l 2,49,50
 774 170 774 170 795 188 c 2,51,-1
 862 248 l 2,52,53
 889 268 889 268 889 305 c 2,54,-1
 889 659 l 2,55,56
 889 701 889 701 862 723 c 2,57,-1
 801 774 l 2,58,59
 773 797 773 797 739 797 c 2,36,-1
EndSplineSet
EndChar

StartChar: c
Encoding: 99 99 70
Width: 1237
Flags: W
LayerCount: 2
Fore
SplineSet
971 0 m 2,0,-1
 612 0 l 2,1,2
 517 0 517 0 450 57 c 2,3,-1
 287 199 l 2,4,5
 209 264 209 264 209 375 c 2,6,-1
 209 594 l 1,7,8
 205 701 205 701 297 780 c 2,9,-1
 444 907 l 2,10,11
 515 965 515 965 596 965 c 2,12,-1
 973 965 l 2,13,14
 1008 965 1008 965 1032.5 940.5 c 128,-1,15
 1057 916 1057 916 1057 881 c 0,16,17
 1057 845 1057 845 1032.5 821 c 128,-1,18
 1008 797 1008 797 973 797 c 2,19,-1
 612 797 l 2,20,21
 578 797 578 797 547 770 c 2,22,-1
 412 655 l 2,23,24
 379 627 379 627 379 580 c 2,25,-1
 379 375 l 2,26,27
 379 342 379 342 405 319 c 2,28,-1
 553 193 l 2,29,30
 581 168 581 168 627 168 c 2,31,-1
 971 168 l 2,32,33
 1005 168 1005 168 1030 143.5 c 128,-1,34
 1055 119 1055 119 1055 84 c 256,35,36
 1055 49 1055 49 1030.5 24.5 c 128,-1,37
 1006 0 1006 0 971 0 c 2,0,-1
EndSplineSet
EndChar

StartChar: d
Encoding: 100 100 71
Width: 1237
Flags: W
LayerCount: 2
Fore
SplineSet
883 848 m 1,0,-1
 883 1245 l 2,1,2
 883 1280 883 1280 907 1304.5 c 128,-1,3
 931 1329 931 1329 965 1329 c 0,4,5
 1000 1329 1000 1329 1025.5 1304.5 c 128,-1,6
 1051 1280 1051 1280 1051 1245 c 2,7,-1
 1051 84 l 2,8,9
 1051 49 1051 49 1026 24.5 c 128,-1,10
 1001 0 1001 0 967 0 c 0,11,12
 931 0 931 0 907 24.5 c 128,-1,13
 883 49 883 49 883 84 c 2,14,-1
 883 121 l 1,15,16
 760 0 760 0 653 0 c 2,17,-1
 510 0 l 2,18,19
 424 0 424 0 338 74 c 2,20,-1
 268 133 l 2,21,22
 244 156 244 156 222.5 210 c 128,-1,23
 201 264 201 264 201 311 c 2,24,-1
 201 653 l 2,25,26
 201 710 201 710 225 763.5 c 128,-1,27
 249 817 249 817 281 844 c 2,28,-1
 350 903 l 2,29,30
 424 967 424 967 524 967 c 2,31,-1
 645 967 l 2,32,33
 744 967 744 967 825 897 c 2,34,-1
 883 848 l 1,0,-1
639 797 m 2,35,-1
 522 797 l 2,36,37
 485 797 485 797 455 770 c 2,38,-1
 401 723 l 2,39,40
 373 698 373 698 373 659 c 2,41,-1
 373 303 l 2,42,43
 373 268 373 268 406 240 c 2,44,-1
 461 193 l 2,45,46
 487 170 487 170 516 170 c 2,47,-1
 653 170 l 2,48,49
 680 170 680 170 717 201 c 2,50,-1
 850 311 l 2,51,52
 883 340 883 340 883 383 c 2,53,-1
 883 565 l 2,54,55
 883 626 883 626 848 655 c 2,56,-1
 711 772 l 2,57,58
 684 797 684 797 639 797 c 2,35,-1
EndSplineSet
EndChar

StartChar: e
Encoding: 101 101 72
Width: 1237
Flags: W
LayerCount: 2
Fore
SplineSet
1053 649 m 2,0,-1
 1053 446 l 2,1,2
 1053 412 1053 412 1028 387 c 128,-1,3
 1003 362 1003 362 969 362 c 2,4,-1
 375 362 l 1,5,-1
 375 313 l 2,6,7
 375 270 375 270 412 240 c 2,8,-1
 461 199 l 2,9,10
 501 168 501 168 537 168 c 2,11,-1
 969 168 l 2,12,13
 1003 168 1003 168 1028 143.5 c 128,-1,14
 1053 119 1053 119 1053 84 c 0,15,16
 1053 50 1053 50 1027.5 25 c 128,-1,17
 1002 0 1002 0 969 0 c 2,18,-1
 526 0 l 2,19,20
 482 0 482 0 433.5 18.5 c 128,-1,21
 385 37 385 37 362 57 c 2,22,-1
 287 123 l 2,23,24
 252 151 252 151 228.5 201 c 128,-1,25
 205 251 205 251 205 293 c 2,26,-1
 205 678 l 2,27,28
 205 711 205 711 230.5 767 c 128,-1,29
 256 823 256 823 295 854 c 2,30,-1
 365 909 l 2,31,32
 434 965 434 965 518 965 c 2,33,-1
 754 965 l 2,34,35
 843 965 843 965 922 891 c 2,36,-1
 985 831 l 2,37,38
 1053 770 1053 770 1053 649 c 2,0,-1
377 662 m 2,39,-1
 377 532 l 1,40,-1
 887 532 l 1,41,-1
 887 649 l 2,42,43
 887 696 887 696 858 721 c 2,44,-1
 809 764 l 2,45,46
 771 795 771 795 741 795 c 2,47,-1
 530 795 l 2,48,49
 491 795 491 795 459 768 c 2,50,-1
 410 727 l 2,51,52
 377 702 377 702 377 662 c 2,39,-1
EndSplineSet
EndChar

StartChar: f
Encoding: 102 102 73
Width: 1237
Flags: W
LayerCount: 2
Fore
SplineSet
590 797 m 1,0,-1
 590 84 l 2,1,2
 590 49 590 49 565 24.5 c 128,-1,3
 540 0 540 0 506 0 c 0,4,5
 470 0 470 0 445 24.5 c 128,-1,6
 420 49 420 49 420 84 c 2,7,-1
 420 797 l 1,8,-1
 334 797 l 2,9,10
 299 797 299 797 274.5 822 c 128,-1,11
 250 847 250 847 250 881 c 0,12,13
 250 914 250 914 272.5 939.5 c 128,-1,14
 295 965 295 965 334 965 c 2,15,-1
 422 965 l 1,16,-1
 422 1030 l 2,17,18
 422 1159 422 1159 510.5 1244 c 128,-1,19
 599 1329 599 1329 731 1329 c 2,20,-1
 928 1329 l 2,21,22
 963 1329 963 1329 987.5 1304 c 128,-1,23
 1012 1279 1012 1279 1012 1243 c 0,24,25
 1012 1209 1012 1209 987 1184 c 128,-1,26
 962 1159 962 1159 928 1159 c 2,27,-1
 731 1159 l 2,28,29
 671 1159 671 1159 631.5 1123 c 128,-1,30
 592 1087 592 1087 592 1030 c 2,31,-1
 592 965 l 1,32,-1
 760 965 l 2,33,34
 794 966 794 966 819 941 c 128,-1,35
 844 916 844 916 844 881 c 0,36,37
 844 847 844 847 819 822 c 128,-1,38
 794 797 794 797 760 797 c 2,39,-1
 590 797 l 1,0,-1
EndSplineSet
EndChar

StartChar: g
Encoding: 103 103 74
Width: 1237
Flags: W
LayerCount: 2
Fore
SplineSet
735 -360 m 2,0,-1
 371 -360 l 2,1,2
 336 -360 336 -360 311.5 -336 c 128,-1,3
 287 -312 287 -312 287 -276 c 0,4,5
 287 -241 287 -241 311.5 -217 c 128,-1,6
 336 -193 336 -193 371 -193 c 2,7,-1
 735 -193 l 2,8,9
 768 -193 768 -193 797 -168 c 2,10,-1
 854 -119 l 2,11,12
 883 -97 883 -97 883 -61 c 2,13,-1
 883 195 l 1,14,15
 765 76 765 76 653 76 c 2,16,-1
 524 76 l 2,17,18
 424 76 424 76 344 145 c 2,19,-1
 281 201 l 2,20,21
 250 227 250 227 227.5 277 c 128,-1,22
 205 327 205 327 205 375 c 2,23,-1
 205 653 l 2,24,25
 205 712 205 712 227.5 765 c 128,-1,26
 250 818 250 818 281 844 c 2,27,-1
 350 903 l 2,28,29
 424 967 424 967 524 967 c 2,30,-1
 645 967 l 2,31,32
 744 967 744 967 825 897 c 2,33,-1
 883 848 l 1,34,-1
 881 881 l 2,35,36
 881 915 881 915 906 940 c 128,-1,37
 931 965 931 965 965 965 c 0,38,39
 1000 965 1000 965 1025.5 940.5 c 128,-1,40
 1051 916 1051 916 1051 881 c 2,41,-1
 1051 -61 l 2,42,43
 1051 -168 1051 -168 965 -244 c 2,44,-1
 897 -303 l 2,45,46
 871 -326 871 -326 823.5 -343 c 128,-1,47
 776 -360 776 -360 735 -360 c 2,0,-1
639 799 m 2,48,-1
 526 799 l 2,49,50
 489 799 489 799 455 770 c 2,51,-1
 403 727 l 2,52,53
 373 702 373 702 373 659 c 2,54,-1
 373 379 l 2,55,56
 373 345 373 345 406 315 c 2,57,-1
 461 266 l 2,58,59
 487 244 487 244 516 244 c 2,60,-1
 653 244 l 2,61,62
 683 244 683 244 719 274 c 2,63,-1
 852 387 l 2,64,65
 883 414 883 414 883 453 c 2,66,-1
 883 580 l 2,67,68
 883 626 883 626 848 655 c 2,69,-1
 711 772 l 2,70,71
 682 799 682 799 639 799 c 2,48,-1
EndSplineSet
EndChar

StartChar: h
Encoding: 104 104 75
Width: 1237
Flags: W
LayerCount: 2
Fore
SplineSet
205 84 m 2,0,-1
 205 1245 l 2,1,2
 205 1279 205 1279 229.5 1303 c 128,-1,3
 254 1327 254 1327 289 1327 c 256,4,5
 324 1327 324 1327 348.5 1302.5 c 128,-1,6
 373 1278 373 1278 373 1243 c 2,7,-1
 373 819 l 1,8,-1
 508 907 l 2,9,10
 600 965 600 965 672 965 c 2,11,-1
 776 965 l 2,12,13
 879 965 879 965 953 891.5 c 128,-1,14
 1027 818 1027 818 1030 713 c 2,15,-1
 1051 84 l 2,16,17
 1052 49 1052 49 1027 24.5 c 128,-1,18
 1002 0 1002 0 967 0 c 256,19,20
 932 0 932 0 908 25.5 c 128,-1,21
 884 51 884 51 883 84 c 2,22,-1
 862 715 l 2,23,24
 861 749 861 749 836 774 c 128,-1,25
 811 799 811 799 776 799 c 2,26,-1
 682 799 l 2,27,28
 650 799 650 799 612 774 c 2,29,-1
 373 618 l 1,30,-1
 373 84 l 2,31,32
 373 49 373 49 348.5 24.5 c 128,-1,33
 324 0 324 0 289 0 c 256,34,35
 254 0 254 0 229.5 24.5 c 128,-1,36
 205 49 205 49 205 84 c 2,0,-1
EndSplineSet
EndChar

StartChar: i
Encoding: 105 105 76
Width: 1237
Flags: W
LayerCount: 2
Fore
SplineSet
543 1403 m 2,0,-1
 631 1403 l 2,1,2
 666 1403 666 1403 690.5 1378.5 c 128,-1,3
 715 1354 715 1354 715 1319 c 2,4,-1
 715 1247 l 2,5,6
 715 1212 715 1212 690.5 1186.5 c 128,-1,7
 666 1161 666 1161 631 1161 c 2,8,-1
 541 1161 l 2,9,10
 505 1161 505 1161 480.5 1187 c 128,-1,11
 456 1213 456 1213 457 1245 c 2,12,-1
 459 1319 l 2,13,14
 459 1354 459 1354 483.5 1378.5 c 128,-1,15
 508 1403 508 1403 543 1403 c 2,0,-1
885 2 m 2,16,-1
 373 2 l 2,17,18
 338 2 338 2 313.5 26.5 c 128,-1,19
 289 51 289 51 289 86 c 0,20,21
 289 120 289 120 313.5 145 c 128,-1,22
 338 170 338 170 373 170 c 2,23,-1
 545 170 l 1,24,-1
 545 797 l 1,25,-1
 375 797 l 2,26,27
 340 797 340 797 315.5 822 c 128,-1,28
 291 847 291 847 291 881 c 0,29,30
 291 916 291 916 315.5 941.5 c 128,-1,31
 340 967 340 967 375 967 c 2,32,-1
 631 967 l 2,33,34
 666 967 666 967 690.5 941.5 c 128,-1,35
 715 916 715 916 715 881 c 2,36,-1
 715 170 l 1,37,-1
 883 170 l 2,38,39
 918 170 918 170 943.5 145.5 c 128,-1,40
 969 121 969 121 969 86 c 256,41,42
 969 51 969 51 944 26.5 c 128,-1,43
 919 2 919 2 885 2 c 2,16,-1
EndSplineSet
EndChar

StartChar: j
Encoding: 106 106 77
Width: 1237
Flags: W
LayerCount: 2
Fore
SplineSet
799 1399 m 2,0,-1
 889 1399 l 2,1,2
 922 1399 922 1399 947.5 1373.5 c 128,-1,3
 973 1348 973 1348 973 1315 c 2,4,-1
 973 1241 l 2,5,6
 973 1207 973 1207 948.5 1182 c 128,-1,7
 924 1157 924 1157 889 1157 c 2,8,-1
 799 1157 l 2,9,10
 764 1157 764 1157 739.5 1181.5 c 128,-1,11
 715 1206 715 1206 715 1241 c 2,12,-1
 715 1315 l 2,13,14
 716 1349 716 1349 741 1374 c 128,-1,15
 766 1399 766 1399 799 1399 c 2,0,-1
719 -360 m 2,16,-1
 541 -360 l 2,17,18
 439 -360 439 -360 363 -286.5 c 128,-1,19
 287 -213 287 -213 287 -129 c 0,20,21
 287 -99 287 -99 312 -74 c 128,-1,22
 337 -49 337 -49 373 -49 c 0,23,24
 411 -49 411 -49 426.5 -66 c 128,-1,25
 442 -83 442 -83 455.5 -119 c 128,-1,26
 469 -155 469 -155 487 -174 c 128,-1,27
 505 -193 505 -193 549 -193 c 2,28,-1
 717 -193 l 2,29,30
 752 -193 752 -193 776.5 -168.5 c 128,-1,31
 801 -144 801 -144 801 -109 c 2,32,-1
 801 797 l 1,33,-1
 545 797 l 2,34,35
 510 797 510 797 485.5 821 c 128,-1,36
 461 845 461 845 461 881 c 0,37,38
 461 915 461 915 485.5 940 c 128,-1,39
 510 965 510 965 545 965 c 2,40,-1
 887 965 l 2,41,42
 922 965 922 965 946.5 939.5 c 128,-1,43
 971 914 971 914 971 879 c 2,44,-1
 971 -109 l 2,45,46
 971 -212 971 -212 897 -286 c 128,-1,47
 823 -360 823 -360 719 -360 c 2,16,-1
EndSplineSet
EndChar

StartChar: k
Encoding: 107 107 78
Width: 1237
Flags: W
LayerCount: 2
Fore
SplineSet
207 84 m 2,0,-1
 207 1243 l 2,1,2
 207 1279 207 1279 231.5 1304 c 128,-1,3
 256 1329 256 1329 291 1329 c 256,4,5
 326 1329 326 1329 350.5 1304 c 128,-1,6
 375 1279 375 1279 375 1243 c 2,7,-1
 375 557 l 1,8,-1
 827 942 l 2,9,10
 856 966 856 966 890 966 c 0,11,12
 926 966 926 966 950 940.5 c 128,-1,13
 974 915 974 915 974 880 c 0,14,15
 974 843 974 843 948 821 c 2,16,-1
 596 522 l 1,17,-1
 1030 141 l 2,18,19
 1056 120 1056 120 1056 86 c 0,20,21
 1056 53 1056 53 1032 26.5 c 128,-1,22
 1008 0 1008 0 973 0 c 256,23,24
 938 0 938 0 911 23 c 2,25,-1
 463 412 l 1,26,-1
 375 338 l 1,27,-1
 375 84 l 2,28,29
 375 49 375 49 350.5 24.5 c 128,-1,30
 326 0 326 0 291 0 c 256,31,32
 256 0 256 0 231.5 24.5 c 128,-1,33
 207 49 207 49 207 84 c 2,0,-1
EndSplineSet
EndChar

StartChar: l
Encoding: 108 108 79
Width: 1237
Flags: W
LayerCount: 2
Fore
SplineSet
885 0 m 2,0,-1
 377 0 l 2,1,2
 342 0 342 0 317.5 25.5 c 128,-1,3
 293 51 293 51 293 86 c 0,4,5
 293 120 293 120 317.5 145 c 128,-1,6
 342 170 342 170 377 170 c 2,7,-1
 545 170 l 1,8,-1
 545 1161 l 1,9,-1
 375 1161 l 2,10,11
 340 1161 340 1161 315.5 1185.5 c 128,-1,12
 291 1210 291 1210 291 1245 c 256,13,14
 291 1280 291 1280 315.5 1304.5 c 128,-1,15
 340 1329 340 1329 375 1329 c 2,16,-1
 631 1329 l 2,17,18
 665 1329 665 1329 690 1304 c 128,-1,19
 715 1279 715 1279 715 1245 c 2,20,-1
 715 170 l 1,21,-1
 885 170 l 2,22,23
 919 170 919 170 944 145 c 128,-1,24
 969 120 969 120 969 86 c 0,25,26
 969 51 969 51 944.5 25.5 c 128,-1,27
 920 0 920 0 885 0 c 2,0,-1
EndSplineSet
EndChar

StartChar: m
Encoding: 109 109 80
Width: 1237
Flags: W
LayerCount: 2
Fore
SplineSet
186 84 m 2,0,-1
 186 881 l 2,1,2
 186 916 186 916 210.5 940.5 c 128,-1,3
 235 965 235 965 270 965 c 0,4,5
 335 965 335 965 352 901 c 1,6,7
 422 967 422 967 508 967 c 0,8,9
 609 967 609 967 674 881 c 1,10,11
 754 967 754 967 850 967 c 0,12,13
 928 967 928 967 985.5 911.5 c 128,-1,14
 1043 856 1043 856 1047 770 c 2,15,-1
 1071 84 l 2,16,17
 1071 50 1071 50 1046 25 c 128,-1,18
 1021 0 1021 0 987 0 c 0,19,20
 952 0 952 0 927 25 c 128,-1,21
 902 50 902 50 901 84 c 2,22,-1
 881 743 l 2,23,24
 879 797 879 797 848 797 c 0,25,26
 831 797 831 797 813 782 c 2,27,-1
 713 698 l 1,28,-1
 713 84 l 2,29,30
 713 50 713 50 688.5 26 c 128,-1,31
 664 2 664 2 629 2 c 0,32,33
 595 2 595 2 570 26.5 c 128,-1,34
 545 51 545 51 545 86 c 2,35,-1
 545 754 l 2,36,37
 545 797 545 797 508 797 c 0,38,39
 490 797 490 797 475 784 c 2,40,-1
 354 682 l 1,41,-1
 354 84 l 2,42,43
 354 50 354 50 330 25 c 128,-1,44
 306 0 306 0 272 0 c 0,45,46
 237 0 237 0 211.5 25 c 128,-1,47
 186 50 186 50 186 84 c 2,0,-1
EndSplineSet
EndChar

StartChar: n
Encoding: 110 110 81
Width: 1237
Flags: W
LayerCount: 2
Fore
SplineSet
604 770 m 2,0,-1
 375 621 l 1,1,-1
 375 84 l 2,2,3
 375 50 375 50 350 25 c 128,-1,4
 325 0 325 0 291 0 c 256,5,6
 257 0 257 0 232 25 c 128,-1,7
 207 50 207 50 207 84 c 2,8,-1
 207 881 l 2,9,10
 207 916 207 916 231.5 941.5 c 128,-1,11
 256 967 256 967 291 967 c 0,12,13
 325 967 325 967 350 941.5 c 128,-1,14
 375 916 375 916 375 881 c 2,15,-1
 375 825 l 1,16,-1
 528 918 l 2,17,18
 605 967 605 967 702 967 c 2,19,-1
 780 967 l 2,20,21
 880 967 880 967 953 896 c 128,-1,22
 1026 825 1026 825 1030 721 c 2,23,-1
 1053 84 l 2,24,25
 1054 50 1054 50 1029 25 c 128,-1,26
 1004 0 1004 0 969 0 c 0,27,28
 936 0 936 0 911 22.5 c 128,-1,29
 886 45 886 45 885 84 c 2,30,-1
 860 711 l 2,31,32
 857 799 857 799 768 799 c 2,33,-1
 686 799 l 2,34,35
 648 799 648 799 604 770 c 2,0,-1
EndSplineSet
EndChar

StartChar: o
Encoding: 111 111 82
Width: 1237
Flags: W
LayerCount: 2
Fore
SplineSet
1053 662 m 2,0,-1
 1053 307 l 2,1,2
 1053 194 1053 194 946.5 98 c 128,-1,3
 840 2 840 2 727 2 c 2,4,-1
 530 2 l 2,5,6
 415 2 415 2 310 99.5 c 128,-1,7
 205 197 205 197 205 307 c 2,8,-1
 205 662 l 2,9,10
 205 772 205 772 307.5 869.5 c 128,-1,11
 410 967 410 967 530 967 c 2,12,-1
 727 967 l 2,13,14
 840 969 840 969 946.5 873 c 128,-1,15
 1053 777 1053 777 1053 662 c 2,0,-1
375 655 m 2,16,-1
 375 315 l 2,17,18
 375 269 375 269 408 242 c 2,19,-1
 471 188 l 2,20,21
 492 170 492 170 530 170 c 2,22,-1
 725 170 l 2,23,24
 768 170 768 170 803 201 c 2,25,-1
 854 246 l 2,26,27
 885 270 885 270 885 313 c 2,28,-1
 885 653 l 2,29,30
 885 703 885 703 854 727 c 2,31,-1
 795 774 l 2,32,33
 765 799 765 799 725 799 c 2,34,-1
 551 799 l 2,35,36
 494 799 494 799 463 772 c 2,37,-1
 406 723 l 2,38,39
 375 697 375 697 375 655 c 2,16,-1
EndSplineSet
EndChar

StartChar: p
Encoding: 112 112 83
Width: 1237
Flags: W
LayerCount: 2
Fore
SplineSet
377 96 m 1,0,-1
 377 -276 l 2,1,2
 377 -312 377 -312 352.5 -337 c 128,-1,3
 328 -362 328 -362 293 -362 c 256,4,5
 258 -362 258 -362 232.5 -337 c 128,-1,6
 207 -312 207 -312 207 -276 c 2,7,-1
 207 922 l 2,8,9
 207 956 207 956 232 981 c 128,-1,10
 257 1006 257 1006 293 1006 c 0,11,12
 327 1006 327 1006 352 981 c 128,-1,13
 377 956 377 956 377 922 c 2,14,-1
 377 868 l 1,15,16
 499 1004 499 1004 618 1004 c 2,17,-1
 657 1004 l 2,18,19
 746 1004 746 1004 821 938 c 2,20,-1
 961 817 l 2,21,22
 1053 737 1053 737 1053 614 c 2,23,-1
 1053 352 l 2,24,25
 1053 228 1053 228 954 143 c 2,26,-1
 817 25 l 2,27,28
 749 -37 749 -37 645 -37 c 2,29,-1
 608 -37 l 2,30,31
 510 -37 510 -37 442 31 c 2,32,-1
 377 96 l 1,0,-1
614 133 m 2,33,-1
 657 133 l 2,34,35
 688 133 688 133 723 164 c 2,36,-1
 854 279 l 2,37,38
 887 305 887 305 887 350 c 2,39,-1
 887 621 l 2,40,41
 887 661 887 661 850 692 c 2,42,-1
 709 813 l 2,43,44
 685 834 685 834 657 834 c 2,45,-1
 608 834 l 2,46,47
 580 834 580 834 535 788 c 2,48,-1
 410 664 l 2,49,50
 377 631 377 631 377 590 c 2,51,-1
 377 375 l 2,52,53
 377 336 377 336 414 299 c 2,54,-1
 535 178 l 2,55,56
 580 133 580 133 614 133 c 2,33,-1
EndSplineSet
EndChar

StartChar: q
Encoding: 113 113 84
Width: 1237
Flags: W
LayerCount: 2
Fore
SplineSet
885 -274 m 2,0,-1
 885 121 l 1,1,-1
 821 68 l 2,2,3
 738 0 738 0 645 0 c 2,4,-1
 532 0 l 2,5,6
 433 0 433 0 365 57 c 2,7,-1
 287 123 l 2,8,9
 252 152 252 152 229.5 203.5 c 128,-1,10
 207 255 207 255 207 303 c 2,11,-1
 207 653 l 2,12,13
 207 774 207 774 281 838 c 2,14,-1
 342 891 l 2,15,16
 425 967 425 967 530 967 c 2,17,-1
 653 967 l 2,18,19
 759 967 759 967 885 848 c 1,20,-1
 885 883 l 2,21,22
 885 918 885 918 909.5 942.5 c 128,-1,23
 934 967 934 967 969 967 c 256,24,25
 1004 967 1004 967 1028.5 942.5 c 128,-1,26
 1053 918 1053 918 1053 883 c 2,27,-1
 1053 -274 l 2,28,29
 1053 -310 1053 -310 1028.5 -335 c 128,-1,30
 1004 -360 1004 -360 969 -360 c 256,31,32
 934 -360 934 -360 909.5 -335 c 128,-1,33
 885 -310 885 -310 885 -274 c 2,0,-1
524 170 m 2,34,-1
 641 170 l 2,35,36
 685 170 685 170 707 188 c 2,37,-1
 858 317 l 2,38,39
 885 341 885 341 885 395 c 2,40,-1
 885 588 l 2,41,42
 885 622 885 622 850 653 c 2,43,-1
 723 766 l 2,44,45
 692 797 692 797 655 797 c 2,46,-1
 518 797 l 2,47,48
 490 797 490 797 469 778 c 2,49,-1
 406 723 l 2,50,51
 375 696 375 696 375 662 c 2,52,-1
 375 307 l 2,53,54
 375 273 375 273 410 242 c 2,55,-1
 465 193 l 2,56,57
 493 170 493 170 524 170 c 2,34,-1
EndSplineSet
EndChar

StartChar: r
Encoding: 114 114 85
Width: 1237
Flags: W
LayerCount: 2
Fore
SplineSet
207 84 m 2,0,-1
 207 881 l 2,1,2
 207 916 207 916 231.5 941.5 c 128,-1,3
 256 967 256 967 291 967 c 256,4,5
 326 967 326 967 350.5 942 c 128,-1,6
 375 917 375 917 375 881 c 2,7,-1
 375 776 l 1,8,-1
 512 893 l 2,9,10
 597 965 597 965 678 965 c 2,11,-1
 801 965 l 2,12,13
 905 965 905 965 979 891 c 128,-1,14
 1053 817 1053 817 1053 713 c 2,15,-1
 1053 668 l 2,16,17
 1053 632 1053 632 1028.5 607 c 128,-1,18
 1004 582 1004 582 969 582 c 256,19,20
 934 582 934 582 909.5 606.5 c 128,-1,21
 885 631 885 631 885 666 c 2,22,-1
 885 713 l 2,23,24
 885 748 885 748 860.5 772.5 c 128,-1,25
 836 797 836 797 801 797 c 2,26,-1
 692 797 l 2,27,28
 657 797 657 797 614 760 c 2,29,-1
 375 553 l 1,30,-1
 375 84 l 2,31,32
 375 49 375 49 350 24.5 c 128,-1,33
 325 0 325 0 291 0 c 0,34,35
 256 0 256 0 231.5 24.5 c 128,-1,36
 207 49 207 49 207 84 c 2,0,-1
EndSplineSet
EndChar

StartChar: s
Encoding: 115 115 86
Width: 1237
Flags: W
LayerCount: 2
Fore
SplineSet
442 965 m 2,0,-1
 827 965 l 2,1,2
 917 965 917 965 986 911.5 c 128,-1,3
 1055 858 1055 858 1055 807 c 0,4,5
 1055 771 1055 771 1029.5 748 c 128,-1,6
 1004 725 1004 725 973 725 c 0,7,8
 933 725 933 725 900 761 c 128,-1,9
 867 797 867 797 831 797 c 2,10,-1
 451 797 l 2,11,12
 395 797 395 797 395 750 c 0,13,14
 395 717 395 717 432 700 c 2,15,-1
 879 502 l 2,16,17
 947 472 947 472 990.5 405.5 c 128,-1,18
 1034 339 1034 339 1034 258 c 0,19,20
 1034 150 1034 150 957.5 75 c 128,-1,21
 881 0 881 0 784 0 c 2,22,-1
 444 0 l 2,23,24
 356 0 356 0 280.5 53 c 128,-1,25
 205 106 205 106 205 156 c 0,26,27
 205 189 205 189 229.5 214.5 c 128,-1,28
 254 240 254 240 293 240 c 0,29,30
 325 240 325 240 361.5 204 c 128,-1,31
 398 168 398 168 467 168 c 2,32,-1
 780 168 l 2,33,34
 817 168 817 168 842 196.5 c 128,-1,35
 867 225 867 225 867 262 c 0,36,37
 867 319 867 319 811 344 c 2,38,-1
 360 547 l 2,39,40
 295 576 295 576 260 631 c 128,-1,41
 225 686 225 686 225 743 c 0,42,43
 225 833 225 833 287.5 899 c 128,-1,44
 350 965 350 965 442 965 c 2,0,-1
EndSplineSet
EndChar

StartChar: t
Encoding: 116 116 87
Width: 1237
Flags: W
LayerCount: 2
Fore
SplineSet
797 0 m 2,0,-1
 629 0 l 2,1,2
 525 0 525 0 450 74 c 128,-1,3
 375 148 375 148 375 252 c 2,4,-1
 375 797 l 1,5,-1
 289 797 l 2,6,7
 254 797 254 797 229.5 821 c 128,-1,8
 205 845 205 845 205 881 c 0,9,10
 205 916 205 916 229.5 940.5 c 128,-1,11
 254 965 254 965 289 965 c 2,12,-1
 377 965 l 1,13,-1
 377 1171 l 2,14,15
 377 1206 377 1206 401.5 1230.5 c 128,-1,16
 426 1255 426 1255 461 1255 c 0,17,18
 494 1255 494 1255 519.5 1230 c 128,-1,19
 545 1205 545 1205 545 1171 c 2,20,-1
 545 965 l 1,21,-1
 883 965 l 2,22,23
 917 965 917 965 942 940 c 128,-1,24
 967 915 967 915 967 881 c 0,25,26
 967 846 967 846 942 821.5 c 128,-1,27
 917 797 917 797 883 797 c 2,28,-1
 543 797 l 1,29,-1
 543 252 l 2,30,31
 543 218 543 218 568.5 193 c 128,-1,32
 594 168 594 168 629 168 c 2,33,-1
 793 168 l 2,34,35
 860 168 860 168 882 240.5 c 128,-1,36
 904 313 904 313 967 313 c 0,37,38
 1004 313 1004 313 1027.5 288.5 c 128,-1,39
 1051 264 1051 264 1051 227 c 0,40,41
 1051 151 1051 151 979.5 75.5 c 128,-1,42
 908 0 908 0 797 0 c 2,0,-1
EndSplineSet
EndChar

StartChar: u
Encoding: 117 117 88
Width: 1237
Flags: W
LayerCount: 2
Fore
SplineSet
606 170 m 1,0,-1
 889 350 l 1,1,-1
 889 881 l 2,2,3
 889 916 889 916 913.5 941.5 c 128,-1,4
 938 967 938 967 973 967 c 256,5,6
 1008 967 1008 967 1032.5 941.5 c 128,-1,7
 1057 916 1057 916 1057 881 c 2,8,-1
 1057 84 l 2,9,10
 1057 50 1057 50 1032 25 c 128,-1,11
 1007 0 1007 0 973 0 c 256,12,13
 939 0 939 0 914 25 c 128,-1,14
 889 50 889 50 889 84 c 2,15,-1
 889 150 l 1,16,-1
 743 55 l 2,17,18
 657 0 657 0 569 0 c 2,19,-1
 491 0 l 2,20,21
 388 0 388 0 314 72 c 128,-1,22
 240 144 240 144 235 248 c 2,23,-1
 211 881 l 2,24,25
 209 914 209 914 234.5 939.5 c 128,-1,26
 260 965 260 965 295 965 c 0,27,28
 329 965 329 965 353.5 940 c 128,-1,29
 378 915 378 915 379 881 c 2,30,-1
 401 260 l 2,31,32
 404 170 404 170 504 170 c 2,33,-1
 606 170 l 1,0,-1
EndSplineSet
EndChar

StartChar: v
Encoding: 118 118 89
Width: 1237
Flags: W
LayerCount: 2
Fore
SplineSet
1053 881 m 2,0,-1
 1053 721 l 1,1,-1
 762 59 l 2,2,3
 734 0 734 0 688 0 c 2,4,-1
 580 0 l 2,5,6
 521 0 521 0 494 61 c 2,7,-1
 205 719 l 1,8,-1
 205 881 l 2,9,10
 205 916 205 916 229.5 940.5 c 128,-1,11
 254 965 254 965 289 965 c 256,12,13
 324 965 324 965 348.5 940.5 c 128,-1,14
 373 916 373 916 373 881 c 2,15,-1
 373 752 l 1,16,-1
 629 176 l 1,17,-1
 883 754 l 1,18,-1
 883 881 l 2,19,20
 883 916 883 916 908 940.5 c 128,-1,21
 933 965 933 965 969 965 c 0,22,23
 1004 965 1004 965 1028.5 940.5 c 128,-1,24
 1053 916 1053 916 1053 881 c 2,0,-1
EndSplineSet
EndChar

StartChar: w
Encoding: 119 119 90
Width: 1237
Flags: W
LayerCount: 2
Fore
SplineSet
714 592 m 2,0,-1
 714 391 l 1,1,-1
 826 199 l 1,2,-1
 884 391 l 1,3,-1
 902 881 l 2,4,5
 904 915 904 915 928.5 940 c 128,-1,6
 953 965 953 965 986 965 c 0,7,8
 1021 965 1021 965 1046 940.5 c 128,-1,9
 1071 916 1071 916 1070 881 c 2,10,-1
 1052 358 l 1,11,-1
 962 61 l 2,12,13
 943 0 943 0 884 0 c 2,14,-1
 794 0 l 2,15,16
 747 0 747 0 720 47 c 2,17,-1
 628 205 l 1,18,-1
 536 49 l 2,19,20
 505 0 505 0 462 0 c 2,21,-1
 374 0 l 2,22,23
 345 0 345 0 321.5 17 c 128,-1,24
 298 34 298 34 292 57 c 2,25,-1
 204 365 l 1,26,-1
 185 881 l 2,27,28
 184 914 184 914 210 939.5 c 128,-1,29
 236 965 236 965 271 965 c 0,30,31
 303 965 303 965 327.5 941.5 c 128,-1,32
 352 918 352 918 353 881 c 2,33,-1
 372 389 l 1,34,-1
 427 201 l 1,35,-1
 544 397 l 1,36,-1
 544 592 l 2,37,38
 544 627 544 627 569 651.5 c 128,-1,39
 594 676 594 676 630 676 c 0,40,41
 664 676 664 676 689 651.5 c 128,-1,42
 714 627 714 627 714 592 c 2,0,-1
EndSplineSet
EndChar

StartChar: x
Encoding: 120 120 91
Width: 1237
Flags: W
LayerCount: 2
Fore
SplineSet
645 362 m 1,0,-1
 370 35 l 2,1,2
 343 0 343 0 303 0 c 0,3,4
 267 0 267 0 243 25 c 128,-1,5
 219 50 219 50 219 86 c 0,6,7
 219 118 219 118 235 137 c 2,8,-1
 536 498 l 1,9,-1
 258 829 l 2,10,11
 239 851 239 851 239 879 c 0,12,13
 239 912 239 912 262.5 938.5 c 128,-1,14
 286 965 286 965 323 965 c 0,15,16
 365 965 365 965 391 934 c 2,17,-1
 645 629 l 1,18,-1
 905 936 l 2,19,20
 929 965 929 965 965 965 c 0,21,22
 997 965 997 965 1023 942.5 c 128,-1,23
 1049 920 1049 920 1049 885 c 0,24,25
 1049 851 1049 851 1038 838 c 2,26,-1
 755 496 l 1,27,-1
 1052 137 l 2,28,29
 1069 118 1069 118 1069 90 c 0,30,31
 1069 52 1069 52 1043.5 26.5 c 128,-1,32
 1018 1 1018 1 985 1 c 0,33,34
 946 1 946 1 917 35 c 2,35,-1
 645 362 l 1,0,-1
EndSplineSet
EndChar

StartChar: y
Encoding: 121 121 92
Width: 1237
Flags: W
LayerCount: 2
Fore
SplineSet
1055 719 m 1,0,-1
 602 -305 l 2,1,2
 579 -360 579 -360 522 -360 c 2,3,-1
 289 -360 l 2,4,5
 254 -360 254 -360 229.5 -336 c 128,-1,6
 205 -312 205 -312 205 -276 c 0,7,8
 205 -241 205 -241 229.5 -217 c 128,-1,9
 254 -193 254 -193 289 -193 c 2,10,-1
 469 -193 l 1,11,-1
 584 74 l 1,12,-1
 543 74 l 2,13,14
 486 74 486 74 461 133 c 2,15,-1
 209 719 l 1,16,-1
 209 881 l 2,17,18
 209 916 209 916 233 940.5 c 128,-1,19
 257 965 257 965 291 965 c 0,20,21
 326 965 326 965 351.5 940.5 c 128,-1,22
 377 916 377 916 377 881 c 2,23,-1
 377 756 l 1,24,-1
 598 244 l 1,25,-1
 657 244 l 1,26,-1
 885 754 l 1,27,-1
 885 883 l 2,28,29
 885 916 885 916 910.5 941.5 c 128,-1,30
 936 967 936 967 971 967 c 0,31,32
 1005 967 1005 967 1030 942 c 128,-1,33
 1055 917 1055 917 1055 883 c 2,34,-1
 1055 719 l 1,0,-1
EndSplineSet
EndChar

StartChar: z
Encoding: 122 122 93
Width: 1237
Flags: W
LayerCount: 2
Fore
SplineSet
1055 881 m 2,0,-1
 1055 813 l 2,1,2
 1055 773 1055 773 1026 745 c 2,3,-1
 430 168 l 1,4,-1
 969 168 l 2,5,6
 1004 168 1004 168 1028.5 143.5 c 128,-1,7
 1053 119 1053 119 1053 84 c 256,8,9
 1053 49 1053 49 1028.5 24.5 c 128,-1,10
 1004 0 1004 0 969 0 c 2,11,-1
 293 0 l 2,12,13
 257 0 257 0 232 24.5 c 128,-1,14
 207 49 207 49 207 84 c 2,15,-1
 207 156 l 2,16,17
 207 192 207 192 252 236 c 2,18,-1
 836 797 l 1,19,-1
 332 797 l 2,20,21
 297 797 297 797 272.5 822 c 128,-1,22
 248 847 248 847 248 883 c 0,23,24
 248 916 248 916 273 941.5 c 128,-1,25
 298 967 298 967 332 967 c 2,26,-1
 971 967 l 2,27,28
 1006 967 1006 967 1030.5 941.5 c 128,-1,29
 1055 916 1055 916 1055 881 c 2,0,-1
EndSplineSet
EndChar

StartChar: braceleft
Encoding: 123 123 94
Width: 1237
Flags: W
LayerCount: 2
Fore
SplineSet
715 1161 m 1,0,-1
 715 834 l 2,1,2
 715 730 715 730 647 666 c 1,3,4
 715 604 715 604 715 498 c 2,5,-1
 715 170 l 1,6,-1
 971 170 l 2,7,8
 1006 170 1006 170 1030.5 145.5 c 128,-1,9
 1055 121 1055 121 1055 86 c 0,10,11
 1055 52 1055 52 1030 27 c 128,-1,12
 1005 2 1005 2 971 2 c 2,13,-1
 715 2 l 2,14,15
 646 2 646 2 596.5 53 c 128,-1,16
 547 104 547 104 547 170 c 2,17,-1
 547 492 l 2,18,19
 547 527 547 527 521 554.5 c 128,-1,20
 495 582 495 582 461 582 c 2,21,-1
 293 582 l 2,22,23
 258 582 258 582 233.5 606 c 128,-1,24
 209 630 209 630 209 666 c 0,25,26
 209 701 209 701 233.5 725.5 c 128,-1,27
 258 750 258 750 293 750 c 2,28,-1
 461 750 l 2,29,30
 495 750 495 750 521 777 c 128,-1,31
 547 804 547 804 547 840 c 2,32,-1
 547 1163 l 2,33,34
 547 1228 547 1228 597 1278.5 c 128,-1,35
 647 1329 647 1329 715 1329 c 2,36,-1
 971 1329 l 2,37,38
 1006 1329 1006 1329 1030.5 1304.5 c 128,-1,39
 1055 1280 1055 1280 1055 1245 c 256,40,41
 1055 1210 1055 1210 1030.5 1185.5 c 128,-1,42
 1006 1161 1006 1161 971 1161 c 2,43,-1
 715 1161 l 1,0,-1
EndSplineSet
EndChar

StartChar: bar
Encoding: 124 124 95
Width: 1237
Flags: W
LayerCount: 2
Fore
SplineSet
705 86 m 2,0,1
 705 51 705 51 679.5 25.5 c 128,-1,2
 654 0 654 0 618 0 c 0,3,4
 584 0 584 0 559.5 25.5 c 128,-1,5
 535 51 535 51 535 86 c 2,6,-1
 535 1247 l 2,7,8
 535 1282 535 1282 560 1305.5 c 128,-1,9
 585 1329 585 1329 621 1329 c 0,10,11
 655 1329 655 1329 680 1305.5 c 128,-1,12
 705 1282 705 1282 705 1247 c 2,13,-1
 705 86 l 2,0,1
EndSplineSet
EndChar

StartChar: braceright
Encoding: 125 125 96
Width: 1237
Flags: W
LayerCount: 2
Fore
SplineSet
549 170 m 1,0,-1
 549 498 l 2,1,2
 549 601 549 601 616 666 c 1,3,4
 549 727 549 727 549 831 c 2,5,-1
 549 1161 l 1,6,-1
 293 1161 l 2,7,8
 258 1161 258 1161 233.5 1185.5 c 128,-1,9
 209 1210 209 1210 209 1245 c 0,10,11
 209 1279 209 1279 233.5 1304 c 128,-1,12
 258 1329 258 1329 293 1329 c 2,13,-1
 549 1329 l 2,14,15
 617 1329 617 1329 667 1278 c 128,-1,16
 717 1227 717 1227 717 1161 c 2,17,-1
 717 838 l 2,18,19
 717 803 717 803 742.5 776.5 c 128,-1,20
 768 750 768 750 803 750 c 2,21,-1
 971 750 l 2,22,23
 1006 750 1006 750 1030.5 725.5 c 128,-1,24
 1055 701 1055 701 1055 666 c 0,25,26
 1055 630 1055 630 1030.5 605 c 128,-1,27
 1006 580 1006 580 971 580 c 2,28,-1
 803 580 l 2,29,30
 767 580 767 580 742 553.5 c 128,-1,31
 717 527 717 527 717 492 c 2,32,-1
 717 168 l 2,33,34
 717 104 717 104 666.5 53 c 128,-1,35
 616 2 616 2 549 2 c 2,36,-1
 293 2 l 2,37,38
 258 2 258 2 233.5 26.5 c 128,-1,39
 209 51 209 51 209 86 c 256,40,41
 209 121 209 121 233.5 145.5 c 128,-1,42
 258 170 258 170 293 170 c 2,43,-1
 549 170 l 1,0,-1
EndSplineSet
EndChar

StartChar: asciitilde
Encoding: 126 126 97
Width: 1237
Flags: W
LayerCount: 2
Fore
SplineSet
1061 608 m 2,0,-1
 909 516 l 2,1,2
 881 502 881 502 864 502 c 2,3,-1
 811 502 l 2,4,5
 803 502 803 502 784 508 c 2,6,-1
 528 594 l 1,7,-1
 504 594 l 1,8,-1
 377 516 l 2,9,10
 354 502 354 502 330 502 c 0,11,12
 296 502 296 502 271 529 c 128,-1,13
 246 556 246 556 246 590 c 0,14,15
 246 634 246 634 287 659 c 2,16,-1
 438 752 l 2,17,18
 457 764 457 764 483 764 c 2,19,-1
 537 764 l 2,20,21
 551 764 551 764 563 760 c 2,22,-1
 825 672 l 1,23,-1
 840 672 l 1,24,-1
 971 752 l 2,25,26
 994 766 994 766 1017 766 c 0,27,28
 1052 766 1052 766 1077 739 c 128,-1,29
 1102 712 1102 712 1102 677 c 0,30,31
 1102 633 1102 633 1061 608 c 2,0,-1
EndSplineSet
EndChar

StartChar: exclamdown
Encoding: 161 161 99
Width: 1237
Flags: W
LayerCount: 2
Fore
SplineSet
752 807 m 2,0,1
 752 773 752 773 726.5 748 c 128,-1,2
 701 723 701 723 666 723 c 2,3,-1
 586 723 l 2,4,5
 549 723 549 723 524.5 750 c 128,-1,6
 500 777 500 777 500 809 c 2,7,-1
 500 881 l 2,8,9
 500 916 500 916 524.5 940.5 c 128,-1,10
 549 965 549 965 584 965 c 2,11,-1
 668 965 l 2,12,13
 703 965 703 965 727.5 940.5 c 128,-1,14
 752 916 752 916 752 881 c 2,15,-1
 752 807 l 2,0,1
754 -276 m 2,16,17
 756 -309 756 -309 730.5 -335.5 c 128,-1,18
 705 -362 705 -362 670 -362 c 2,19,-1
 586 -362 l 2,20,21
 550 -362 550 -362 525 -336.5 c 128,-1,22
 500 -311 500 -311 502 -279 c 2,23,-1
 543 375 l 2,24,25
 546 412 546 412 569.5 435.5 c 128,-1,26
 593 459 593 459 629 459 c 0,27,28
 663 459 663 459 687 433.5 c 128,-1,29
 711 408 711 408 713 375 c 2,30,-1
 754 -276 l 2,16,17
EndSplineSet
EndChar

StartChar: cent
Encoding: 162 162 100
Width: 1237
Flags: W
LayerCount: 2
Fore
SplineSet
717 965 m 1,0,-1
 973 965 l 2,1,2
 1008 965 1008 965 1032.5 940.5 c 128,-1,3
 1057 916 1057 916 1057 881 c 0,4,5
 1057 845 1057 845 1032.5 821 c 128,-1,6
 1008 797 1008 797 973 797 c 2,7,-1
 612 797 l 2,8,9
 578 797 578 797 547 770 c 2,10,-1
 412 655 l 2,11,12
 379 627 379 627 379 580 c 2,13,-1
 379 375 l 2,14,15
 379 342 379 342 405 319 c 2,16,-1
 553 193 l 2,17,18
 581 168 581 168 627 168 c 2,19,-1
 971 168 l 2,20,21
 1005 168 1005 168 1030 143.5 c 128,-1,22
 1055 119 1055 119 1055 84 c 256,23,24
 1055 49 1055 49 1030.5 24.5 c 128,-1,25
 1006 0 1006 0 971 0 c 2,26,-1
 717 0 l 1,27,-1
 717 -203 l 2,28,29
 717 -238 717 -238 691.5 -263.5 c 128,-1,30
 666 -289 666 -289 631 -289 c 256,31,32
 596 -289 596 -289 571.5 -263.5 c 128,-1,33
 547 -238 547 -238 547 -203 c 2,34,-1
 547 8 l 1,35,36
 490 23 490 23 450 57 c 2,37,-1
 287 199 l 2,38,39
 209 264 209 264 209 375 c 2,40,-1
 209 594 l 1,41,42
 205 701 205 701 297 780 c 2,43,-1
 444 907 l 2,44,45
 493 947 493 947 547 958 c 1,46,-1
 547 1171 l 2,47,48
 547 1206 547 1206 572 1229.5 c 128,-1,49
 597 1253 597 1253 633 1253 c 0,50,51
 667 1253 667 1253 692 1229.5 c 128,-1,52
 717 1206 717 1206 717 1171 c 2,53,-1
 717 965 l 1,0,-1
EndSplineSet
EndChar

StartChar: sterling
Encoding: 163 163 101
Width: 1237
Flags: W
LayerCount: 2
Fore
SplineSet
963 2 m 2,0,-1
 283 2 l 2,1,2
 249 2 249 2 224 27 c 128,-1,3
 199 52 199 52 199 86 c 0,4,5
 199 121 199 121 223 145.5 c 128,-1,6
 247 170 247 170 283 170 c 2,7,-1
 389 170 l 1,8,-1
 512 584 l 1,9,-1
 285 584 l 2,10,11
 250 584 250 584 225.5 609 c 128,-1,12
 201 634 201 634 201 670 c 0,13,14
 201 704 201 704 225.5 729 c 128,-1,15
 250 754 250 754 285 754 c 2,16,-1
 561 754 l 1,17,-1
 674 1130 l 2,18,19
 734 1331 734 1331 944 1331 c 0,20,21
 1053 1331 1053 1331 1053 1247 c 0,22,23
 1053 1213 1053 1213 1028.5 1187 c 128,-1,24
 1004 1161 1004 1161 969 1161 c 2,25,-1
 926 1161 l 2,26,27
 859 1161 859 1161 838 1090 c 2,28,-1
 737 752 l 1,29,-1
 963 752 l 2,30,31
 998 752 998 752 1023.5 727.5 c 128,-1,32
 1049 703 1049 703 1049 668 c 0,33,34
 1049 634 1049 634 1023.5 609 c 128,-1,35
 998 584 998 584 965 584 c 2,36,-1
 688 584 l 1,37,-1
 567 170 l 1,38,-1
 963 170 l 2,39,40
 998 170 998 170 1023.5 145.5 c 128,-1,41
 1049 121 1049 121 1049 86 c 0,42,43
 1049 52 1049 52 1023.5 27 c 128,-1,44
 998 2 998 2 963 2 c 2,0,-1
EndSplineSet
EndChar

StartChar: currency
Encoding: 164 164 102
Width: 1237
Flags: W
LayerCount: 2
Fore
SplineSet
992 365 m 1,0,-1
 1082 274 l 2,1,2
 1106 250 1106 250 1106 215 c 256,3,4
 1106 180 1106 180 1081.5 155.5 c 128,-1,5
 1057 131 1057 131 1022 131 c 0,6,7
 988 131 988 131 963 156 c 2,8,-1
 867 252 l 1,9,10
 803 205 803 205 711 205 c 2,11,-1
 596 205 l 2,12,13
 509 205 509 205 441 250 c 1,14,-1
 344 156 l 2,15,16
 320 131 320 131 285 131 c 256,17,18
 250 131 250 131 225.5 155.5 c 128,-1,19
 201 180 201 180 201 215 c 256,20,21
 201 250 201 250 226 274 c 2,22,-1
 316 365 l 1,23,24
 271 429 271 429 271 528 c 2,25,-1
 271 641 l 2,26,27
 271 741 271 741 316 803 c 1,28,-1
 226 893 l 2,29,30
 201 918 201 918 201 952 c 0,31,32
 201 987 201 987 225.5 1011.5 c 128,-1,33
 250 1036 250 1036 285 1036 c 256,34,35
 320 1036 320 1036 344 1012 c 2,36,-1
 439 918 l 1,37,38
 505 965 505 965 596 965 c 2,39,-1
 711 965 l 2,40,41
 802 965 802 965 869 918 c 1,42,-1
 963 1012 l 2,43,44
 988 1036 988 1036 1022 1036 c 0,45,46
 1057 1036 1057 1036 1081.5 1011.5 c 128,-1,47
 1106 987 1106 987 1106 952 c 0,48,49
 1106 918 1106 918 1082 893 c 2,50,-1
 992 803 l 1,51,52
 1037 742 1037 742 1037 641 c 2,53,-1
 1037 528 l 2,54,55
 1037 429 1037 429 992 365 c 1,0,-1
867 549 m 2,56,-1
 867 621 l 2,57,58
 867 695 867 695 836 721 c 2,59,-1
 779 770 l 2,60,61
 750 797 750 797 691 797 c 2,62,-1
 617 797 l 2,63,64
 560 797 560 797 529 770 c 2,65,-1
 471 721 l 2,66,67
 441 693 441 693 441 621 c 2,68,-1
 441 549 l 2,69,70
 441 475 441 475 471 449 c 2,71,-1
 529 399 l 2,72,73
 560 373 560 373 617 373 c 2,74,-1
 691 373 l 2,75,76
 748 373 748 373 779 399 c 2,77,-1
 836 449 l 2,78,79
 867 477 867 477 867 549 c 2,56,-1
EndSplineSet
EndChar

StartChar: yen
Encoding: 165 165 103
Width: 1237
Flags: W
LayerCount: 2
Fore
SplineSet
713 606 m 1,0,-1
 975 606 l 2,1,2
 1010 606 1010 606 1035.5 581 c 128,-1,3
 1061 556 1061 556 1061 522 c 0,4,5
 1061 487 1061 487 1035.5 461.5 c 128,-1,6
 1010 436 1010 436 975 436 c 2,7,-1
 713 436 l 1,8,-1
 713 88 l 2,9,10
 713 53 713 53 688.5 28.5 c 128,-1,11
 664 4 664 4 629 4 c 256,12,13
 594 4 594 4 569.5 28.5 c 128,-1,14
 545 53 545 53 545 88 c 2,15,-1
 545 436 l 1,16,-1
 287 436 l 2,17,18
 253 436 253 436 228 461.5 c 128,-1,19
 203 487 203 487 203 522 c 256,20,21
 203 557 203 557 228 581.5 c 128,-1,22
 253 606 253 606 287 606 c 2,23,-1
 545 606 l 1,24,-1
 545 645 l 1,25,-1
 223 1192 l 2,26,27
 205 1224 205 1224 205 1251 c 0,28,29
 205 1282 205 1282 230 1307 c 128,-1,30
 255 1332 255 1332 290 1332 c 0,31,32
 339 1332 339 1332 360 1296 c 2,33,-1
 631 838 l 1,34,-1
 899 1290 l 2,35,36
 921 1329 921 1329 970 1329 c 0,37,38
 1010 1329 1010 1329 1032.5 1302 c 128,-1,39
 1055 1275 1055 1275 1055 1240 c 0,40,41
 1055 1221 1055 1221 1047 1206 c 2,42,-1
 713 649 l 1,43,-1
 713 606 l 1,0,-1
EndSplineSet
EndChar

StartChar: brokenbar
Encoding: 166 166 104
Width: 1237
Flags: W
LayerCount: 2
Fore
SplineSet
705 870 m 2,0,1
 705 835 705 835 679.5 809.5 c 128,-1,2
 654 784 654 784 618 784 c 0,3,4
 584 784 584 784 559.5 809.5 c 128,-1,5
 535 835 535 835 535 870 c 2,6,-1
 535 1247 l 2,7,8
 535 1282 535 1282 560 1305.5 c 128,-1,9
 585 1329 585 1329 621 1329 c 0,10,11
 655 1329 655 1329 680 1305.5 c 128,-1,12
 705 1282 705 1282 705 1247 c 2,13,-1
 705 870 l 2,0,1
705 86 m 2,14,15
 705 51 705 51 679.5 25.5 c 128,-1,16
 654 0 654 0 618 0 c 0,17,18
 584 0 584 0 559.5 25.5 c 128,-1,19
 535 51 535 51 535 86 c 2,20,-1
 535 463 l 2,21,22
 535 497 535 497 560 521 c 128,-1,23
 585 545 585 545 621 545 c 0,24,25
 655 545 655 545 680 521 c 128,-1,26
 705 497 705 497 705 463 c 2,27,-1
 705 86 l 2,14,15
EndSplineSet
EndChar

StartChar: section
Encoding: 167 167 105
Width: 1237
Flags: W
LayerCount: 2
Fore
SplineSet
408 846 m 1,0,-1
 260 1012 l 1,1,2
 207 1078 207 1078 207 1141 c 0,3,4
 207 1217 207 1217 262.5 1273 c 128,-1,5
 318 1329 318 1329 397 1329 c 2,6,-1
 834 1329 l 2,7,8
 914 1329 914 1329 985.5 1261.5 c 128,-1,9
 1057 1194 1057 1194 1057 1098 c 0,10,11
 1057 1062 1057 1062 1031.5 1037 c 128,-1,12
 1006 1012 1006 1012 975 1012 c 0,13,14
 932 1012 932 1012 916 1031.5 c 128,-1,15
 900 1051 900 1051 885.5 1105 c 128,-1,16
 871 1159 871 1159 821 1159 c 2,17,-1
 416 1159 l 2,18,19
 387 1159 387 1159 387 1141 c 0,20,21
 387 1126 387 1126 399 1112 c 2,22,-1
 1001 436 l 2,23,24
 1055 377 1055 377 1055 309 c 0,25,26
 1055 235 1055 235 1001.5 179 c 128,-1,27
 948 123 948 123 881 123 c 2,28,-1
 850 123 l 1,29,-1
 1001 -47 l 2,30,31
 1055 -106 1055 -106 1055 -174 c 0,32,33
 1055 -249 1055 -249 1001.5 -304.5 c 128,-1,34
 948 -360 948 -360 881 -360 c 2,35,-1
 428 -360 l 2,36,37
 338 -360 338 -360 271.5 -291 c 128,-1,38
 205 -222 205 -222 205 -139 c 0,39,40
 205 -45 205 -45 293 -45 c 0,41,42
 327 -45 327 -45 351 -69.5 c 128,-1,43
 375 -94 375 -94 375 -127 c 0,44,45
 375 -154 375 -154 393.5 -172 c 128,-1,46
 412 -190 412 -190 440 -190 c 2,47,-1
 848 -190 l 2,48,49
 874 -190 874 -190 874 -170 c 0,50,51
 874 -157 874 -157 862 -143 c 2,52,-1
 260 528 l 1,53,54
 207 595 207 595 207 657 c 0,55,56
 207 734 207 734 262.5 790 c 128,-1,57
 318 846 318 846 397 846 c 2,58,-1
 408 846 l 1,0,-1
698 293 m 1,59,-1
 848 293 l 2,60,61
 874 293 874 293 874 313 c 0,62,63
 874 326 874 326 862 340 c 2,64,-1
 561 676 l 1,65,-1
 416 676 l 2,66,67
 387 676 387 676 387 657 c 0,68,69
 387 643 387 643 399 629 c 2,70,-1
 698 293 l 1,59,-1
EndSplineSet
EndChar

StartChar: dieresis
Encoding: 168 168 106
Width: 1237
Flags: W
LayerCount: 2
Fore
SplineSet
1049 1102 m 2,0,1
 1049 1067 1049 1067 1024.5 1042.5 c 128,-1,2
 1000 1018 1000 1018 965 1018 c 0,3,4
 929 1018 929 1018 905 1042.5 c 128,-1,5
 881 1067 881 1067 881 1102 c 2,6,-1
 881 1245 l 2,7,8
 881 1281 881 1281 905.5 1306 c 128,-1,9
 930 1331 930 1331 965 1331 c 0,10,11
 999 1331 999 1331 1024 1306 c 128,-1,12
 1049 1281 1049 1281 1049 1245 c 2,13,-1
 1049 1102 l 2,0,1
371 1102 m 2,14,15
 371 1067 371 1067 346.5 1042.5 c 128,-1,16
 322 1018 322 1018 287 1018 c 256,17,18
 252 1018 252 1018 227.5 1042.5 c 128,-1,19
 203 1067 203 1067 203 1102 c 2,20,-1
 203 1245 l 2,21,22
 203 1280 203 1280 227.5 1304.5 c 128,-1,23
 252 1329 252 1329 287 1329 c 256,24,25
 322 1329 322 1329 346.5 1304.5 c 128,-1,26
 371 1280 371 1280 371 1245 c 2,27,-1
 371 1102 l 2,14,15
EndSplineSet
EndChar

StartChar: copyright
Encoding: 169 169 107
Width: 1237
Flags: W
LayerCount: 2
Fore
SplineSet
1067 303 m 2,0,1
 1067 197 1067 197 967.5 98.5 c 128,-1,2
 868 0 868 0 739 0 c 2,3,-1
 498 0 l 2,4,5
 369 0 369 0 269.5 98.5 c 128,-1,6
 170 197 170 197 170 303 c 2,7,-1
 170 1026 l 2,8,9
 170 1132 170 1132 269.5 1230.5 c 128,-1,10
 369 1329 369 1329 498 1329 c 2,11,-1
 739 1329 l 2,12,13
 868 1329 868 1329 967.5 1230.5 c 128,-1,14
 1067 1132 1067 1132 1067 1026 c 2,15,-1
 1067 303 l 2,0,1
981 307 m 2,16,-1
 981 1022 l 2,17,18
 981 1102 981 1102 934.5 1150 c 128,-1,19
 888 1198 888 1198 858 1220.5 c 128,-1,20
 828 1243 828 1243 735 1243 c 2,21,-1
 502 1243 l 2,22,23
 401 1243 401 1243 367 1213.5 c 128,-1,24
 333 1184 333 1184 294.5 1140 c 128,-1,25
 256 1096 256 1096 256 1022 c 2,26,-1
 256 307 l 2,27,28
 256 228 256 228 302.5 179.5 c 128,-1,29
 349 131 349 131 379 108.5 c 128,-1,30
 409 86 409 86 502 86 c 2,31,-1
 735 86 l 2,32,33
 836 86 836 86 870 115.5 c 128,-1,34
 904 145 904 145 942.5 189 c 128,-1,35
 981 233 981 233 981 307 c 2,16,-1
797 924 m 2,36,-1
 629 924 l 2,37,38
 614 924 614 924 594 887 c 2,39,-1
 496 705 l 2,40,41
 489 695 489 695 489 666 c 0,42,43
 489 640 489 640 500 621 c 2,44,-1
 594 442 l 2,45,46
 613 408 613 408 629 408 c 2,47,-1
 795 408 l 2,48,49
 833 408 833 408 856 386 c 128,-1,50
 879 364 879 364 879 333 c 0,51,52
 879 301 879 301 856 279.5 c 128,-1,53
 833 258 833 258 795 258 c 2,54,-1
 641 258 l 2,55,56
 594 258 594 258 540.5 288.5 c 128,-1,57
 487 319 487 319 463 365 c 2,58,-1
 365 551 l 1,59,60
 340 620 340 620 340 666 c 0,61,62
 340 739 340 739 367 788 c 2,63,-1
 463 967 l 2,64,65
 484 1010 484 1010 535 1041.5 c 128,-1,66
 586 1073 586 1073 635 1073 c 2,67,-1
 797 1073 l 2,68,69
 835 1073 835 1073 858 1051.5 c 128,-1,70
 881 1030 881 1030 881 998 c 0,71,72
 881 967 881 967 858 945.5 c 128,-1,73
 835 924 835 924 797 924 c 2,36,-1
EndSplineSet
EndChar

StartChar: guillemotleft
Encoding: 171 171 109
Width: 1237
Flags: W
LayerCount: 2
Fore
SplineSet
1020 305 m 2,0,1
 1028 287 1028 287 1028 269 c 0,2,3
 1028 233 1028 233 1001.5 209.5 c 128,-1,4
 975 186 975 186 942 186 c 0,5,6
 888 186 888 186 866 233 c 2,7,-1
 725 539 l 2,8,9
 717 559 717 559 717 575 c 0,10,11
 717 595 717 595 725 612 c 2,12,-1
 866 918 l 2,13,14
 890 965 890 965 942 965 c 0,15,16
 975 965 975 965 1001.5 941.5 c 128,-1,17
 1028 918 1028 918 1028 882 c 0,18,19
 1028 864 1028 864 1020 846 c 2,20,-1
 895 575 l 1,21,-1
 1020 305 l 2,0,1
510 305 m 2,22,23
 518 287 518 287 518 269 c 0,24,25
 518 233 518 233 491.5 209.5 c 128,-1,26
 465 186 465 186 432 186 c 0,27,28
 378 186 378 186 356 233 c 2,29,-1
 215 539 l 2,30,31
 207 559 207 559 207 575 c 0,32,33
 207 595 207 595 215 612 c 2,34,-1
 356 918 l 2,35,36
 380 965 380 965 432 965 c 0,37,38
 465 965 465 965 491.5 941.5 c 128,-1,39
 518 918 518 918 518 882 c 0,40,41
 518 864 518 864 510 846 c 2,42,-1
 385 575 l 1,43,-1
 510 305 l 2,22,23
EndSplineSet
EndChar

StartChar: logicalnot
Encoding: 172 172 110
Width: 1237
Flags: W
LayerCount: 2
Fore
SplineSet
1047 328 m 2,0,1
 1047 294 1047 294 1021.5 269 c 128,-1,2
 996 244 996 244 963 244 c 0,3,4
 927 244 927 244 902 268.5 c 128,-1,5
 877 293 877 293 877 328 c 2,6,-1
 877 584 l 1,7,-1
 276 584 l 2,8,9
 241 584 241 584 217 608 c 128,-1,10
 193 632 193 632 193 668 c 0,11,12
 193 703 193 703 217 727.5 c 128,-1,13
 241 752 241 752 276 752 c 2,14,-1
 961 752 l 2,15,16
 996 752 996 752 1021.5 727.5 c 128,-1,17
 1047 703 1047 703 1047 668 c 2,18,-1
 1047 328 l 2,0,1
EndSplineSet
EndChar

StartChar: registered
Encoding: 174 174 112
Width: 1237
Flags: W
LayerCount: 2
Fore
SplineSet
1067 303 m 2,0,1
 1067 197 1067 197 967.5 98.5 c 128,-1,2
 868 0 868 0 739 0 c 2,3,-1
 498 0 l 2,4,5
 369 0 369 0 269.5 98.5 c 128,-1,6
 170 197 170 197 170 303 c 2,7,-1
 170 1026 l 2,8,9
 170 1132 170 1132 269.5 1230.5 c 128,-1,10
 369 1329 369 1329 498 1329 c 2,11,-1
 739 1329 l 2,12,13
 868 1329 868 1329 967.5 1230.5 c 128,-1,14
 1067 1132 1067 1132 1067 1026 c 2,15,-1
 1067 303 l 2,0,1
981 307 m 2,16,-1
 981 1022 l 2,17,18
 981 1102 981 1102 934.5 1150 c 128,-1,19
 888 1198 888 1198 858 1220.5 c 128,-1,20
 828 1243 828 1243 735 1243 c 2,21,-1
 502 1243 l 2,22,23
 401 1243 401 1243 367 1213.5 c 128,-1,24
 333 1184 333 1184 294.5 1140 c 128,-1,25
 256 1096 256 1096 256 1022 c 2,26,-1
 256 307 l 2,27,28
 256 228 256 228 302.5 179.5 c 128,-1,29
 349 131 349 131 379 108.5 c 128,-1,30
 409 86 409 86 502 86 c 2,31,-1
 735 86 l 2,32,33
 836 86 836 86 870 115.5 c 128,-1,34
 904 145 904 145 942.5 189 c 128,-1,35
 981 233 981 233 981 307 c 2,16,-1
367 1073 m 1,36,-1
 653 1073 l 2,37,38
 757 1073 757 1073 831 998 c 128,-1,39
 905 923 905 923 905 819 c 0,40,41
 905 621 905 621 725 578 c 1,42,-1
 860 391 l 2,43,44
 883 360 883 360 883 324 c 0,45,46
 883 295 883 295 863.5 275.5 c 128,-1,47
 844 256 844 256 815 256 c 0,48,49
 776 256 776 256 743 301 c 2,50,-1
 553 567 l 1,51,-1
 516 567 l 1,52,-1
 516 330 l 2,53,54
 516 298 516 298 494.5 277 c 128,-1,55
 473 256 473 256 440 256 c 0,56,57
 408 256 408 256 387.5 277 c 128,-1,58
 367 298 367 298 367 330 c 2,59,-1
 367 1073 l 1,36,-1
514 715 m 1,60,-1
 653 715 l 2,61,62
 758 715 758 715 758 819 c 0,63,64
 758 867 758 867 728.5 896.5 c 128,-1,65
 699 926 699 926 653 926 c 2,66,-1
 514 926 l 1,67,-1
 514 715 l 1,60,-1
EndSplineSet
EndChar

StartChar: uni00AF
Encoding: 175 175 113
Width: 1237
Flags: W
LayerCount: 2
Fore
SplineSet
1247 1415 m 1,0,-1
 -10 1415 l 1,1,-1
 -10 1585 l 1,2,-1
 1247 1585 l 1,3,-1
 1247 1415 l 1,0,-1
EndSplineSet
EndChar

StartChar: degree
Encoding: 176 176 114
Width: 1237
Flags: W
LayerCount: 2
Fore
SplineSet
1012 874 m 2,0,1
 1012 762 1012 762 905.5 665.5 c 128,-1,2
 799 569 799 569 686 569 c 2,3,-1
 571 569 l 2,4,5
 456 569 456 569 351 666.5 c 128,-1,6
 246 764 246 764 246 874 c 2,7,-1
 246 1024 l 2,8,9
 246 1137 246 1137 350 1233 c 128,-1,10
 454 1329 454 1329 571 1329 c 2,11,-1
 686 1329 l 2,12,13
 801 1329 801 1329 906.5 1234 c 128,-1,14
 1012 1139 1012 1139 1012 1024 c 2,15,-1
 1012 874 l 2,0,1
844 881 m 2,16,-1
 844 1016 l 2,17,18
 844 1065 844 1065 813 1090 c 2,19,-1
 754 1137 l 2,20,21
 724 1161 724 1161 684 1161 c 2,22,-1
 592 1161 l 2,23,24
 535 1161 535 1161 504 1135 c 2,25,-1
 446 1085 l 2,26,27
 416 1060 416 1060 416 1018 c 2,28,-1
 416 883 l 2,29,30
 416 836 416 836 449 809 c 2,31,-1
 512 756 l 2,32,33
 533 737 533 737 571 737 c 2,34,-1
 684 737 l 2,35,36
 727 737 727 737 762 768 c 2,37,-1
 813 813 l 2,38,39
 844 837 844 837 844 881 c 2,16,-1
EndSplineSet
EndChar

StartChar: plusminus
Encoding: 177 177 115
Width: 1237
Flags: W
LayerCount: 2
Fore
SplineSet
702 752 m 1,0,-1
 961 752 l 2,1,2
 996 752 996 752 1021.5 727.5 c 128,-1,3
 1047 703 1047 703 1047 668 c 256,4,5
 1047 633 1047 633 1021.5 608.5 c 128,-1,6
 996 584 996 584 961 584 c 2,7,-1
 705 584 l 1,8,-1
 705 326 l 2,9,10
 705 290 705 290 679.5 265 c 128,-1,11
 654 240 654 240 618 240 c 0,12,13
 584 240 584 240 559.5 265 c 128,-1,14
 535 290 535 290 535 326 c 2,15,-1
 535 584 l 1,16,-1
 276 584 l 2,17,18
 242 584 242 584 217.5 608.5 c 128,-1,19
 193 633 193 633 193 668 c 0,20,21
 193 702 193 702 217.5 727 c 128,-1,22
 242 752 242 752 276 752 c 2,23,-1
 535 752 l 1,24,-1
 535 1010 l 2,25,26
 535 1044 535 1044 560 1068 c 128,-1,27
 585 1092 585 1092 621 1092 c 0,28,29
 655 1092 655 1092 678.5 1068 c 128,-1,30
 702 1044 702 1044 702 1010 c 2,31,-1
 702 752 l 1,0,-1
961 168 m 2,32,33
 996 168 996 168 1021.5 143.5 c 128,-1,34
 1047 119 1047 119 1047 84 c 256,35,36
 1047 49 1047 49 1021.5 24.5 c 128,-1,37
 996 0 996 0 961 0 c 2,38,-1
 276 0 l 2,39,40
 242 0 242 0 217.5 24.5 c 128,-1,41
 193 49 193 49 193 84 c 256,42,43
 193 119 193 119 217.5 143.5 c 128,-1,44
 242 168 242 168 276 168 c 2,45,-1
 961 168 l 2,32,33
EndSplineSet
EndChar

StartChar: twosuperior
Encoding: 178 178 116
Width: 1237
Flags: W
LayerCount: 2
Fore
SplineSet
893 1077 m 2,0,1
 893 1025 893 1025 849.5 981.5 c 128,-1,2
 806 938 806 938 754 938 c 2,3,-1
 543 938 l 1,4,-1
 543 842 l 1,5,-1
 797 842 l 2,6,7
 830 842 830 842 850 820.5 c 128,-1,8
 870 799 870 799 870 768 c 256,9,10
 870 737 870 737 850 715.5 c 128,-1,11
 830 694 830 694 797 694 c 2,12,-1
 469 694 l 2,13,14
 395 694 395 694 395 768 c 2,15,-1
 395 946 l 2,16,17
 395 998 395 998 439 1041.5 c 128,-1,18
 483 1085 483 1085 535 1085 c 2,19,-1
 745 1085 l 1,20,-1
 745 1182 l 1,21,-1
 479 1182 l 2,22,23
 446 1182 446 1182 426 1203 c 128,-1,24
 406 1224 406 1224 406 1255 c 256,25,26
 406 1286 406 1286 426 1307.5 c 128,-1,27
 446 1329 446 1329 479 1329 c 2,28,-1
 754 1329 l 2,29,30
 806 1329 806 1329 849.5 1285.5 c 128,-1,31
 893 1242 893 1242 893 1190 c 2,32,-1
 893 1077 l 2,0,1
EndSplineSet
EndChar

StartChar: threesuperior
Encoding: 179 179 117
Width: 1237
Flags: W
LayerCount: 2
Fore
SplineSet
966 834 m 2,0,1
 966 782 966 782 922.5 738 c 128,-1,2
 879 694 879 694 827 694 c 2,3,-1
 552 694 l 2,4,5
 519 694 519 694 499 715.5 c 128,-1,6
 479 737 479 737 479 768 c 256,7,8
 479 799 479 799 499 820.5 c 128,-1,9
 519 842 519 842 552 842 c 2,10,-1
 818 842 l 1,11,-1
 818 938 l 1,12,-1
 704 938 l 2,13,14
 670 938 670 938 650 959.5 c 128,-1,15
 630 981 630 981 630 1012 c 256,16,17
 630 1043 630 1043 650 1064 c 128,-1,18
 670 1085 670 1085 704 1085 c 2,19,-1
 818 1085 l 1,20,-1
 818 1182 l 1,21,-1
 552 1182 l 2,22,23
 519 1182 519 1182 499 1203 c 128,-1,24
 479 1224 479 1224 479 1255 c 256,25,26
 479 1286 479 1286 499 1307.5 c 128,-1,27
 519 1329 519 1329 552 1329 c 2,28,-1
 827 1329 l 2,29,30
 879 1329 879 1329 922.5 1285.5 c 128,-1,31
 966 1242 966 1242 966 1190 c 2,32,-1
 966 1077 l 2,33,34
 966 1040 966 1040 941 1012 c 1,35,36
 966 984 966 984 966 946 c 2,37,-1
 966 834 l 2,0,1
EndSplineSet
EndChar

StartChar: acute
Encoding: 180 180 118
Width: 1237
Flags: W
LayerCount: 2
Fore
SplineSet
743 1321 m 2,0,1
 761 1329 761 1329 780 1329 c 0,2,3
 816 1329 816 1329 839 1302.5 c 128,-1,4
 862 1276 862 1276 862 1243 c 0,5,6
 862 1189 862 1189 815 1167 c 2,7,-1
 510 1026 l 2,8,9
 492 1018 492 1018 473 1018 c 0,10,11
 437 1018 437 1018 414 1044.5 c 128,-1,12
 391 1071 391 1071 391 1104 c 0,13,14
 391 1158 391 1158 438 1180 c 2,15,-1
 743 1321 l 2,0,1
EndSplineSet
EndChar

StartChar: uni00B5
Encoding: 181 181 119
Width: 1237
Flags: W
LayerCount: 2
Fore
SplineSet
1058 84 m 2,0,1
 1058 50 1058 50 1033 25 c 128,-1,2
 1008 0 1008 0 974 0 c 256,3,4
 940 0 940 0 915 25 c 128,-1,5
 890 50 890 50 890 84 c 2,6,-1
 890 150 l 1,7,-1
 744 55 l 2,8,9
 658 0 658 0 570 0 c 2,10,-1
 468 0 l 2,11,12
 424 0 424 0 378 16 c 1,13,-1
 378 -276 l 2,14,15
 378 -312 378 -312 353.5 -336 c 128,-1,16
 329 -360 329 -360 294 -360 c 0,17,18
 257 -360 257 -360 233.5 -331.5 c 128,-1,19
 210 -303 210 -303 210 -276 c 2,20,-1
 210 881 l 2,21,22
 207 914 207 914 232.5 939.5 c 128,-1,23
 258 965 258 965 294 965 c 0,24,25
 331 965 331 965 354.5 936.5 c 128,-1,26
 378 908 378 908 378 881 c 2,27,-1
 378 260 l 2,28,29
 381 170 381 170 480 170 c 2,30,-1
 607 170 l 1,31,-1
 890 350 l 1,32,-1
 890 881 l 2,33,34
 890 916 890 916 914.5 941.5 c 128,-1,35
 939 967 939 967 974 967 c 256,36,37
 1009 967 1009 967 1033.5 941.5 c 128,-1,38
 1058 916 1058 916 1058 881 c 2,39,-1
 1058 84 l 2,0,1
EndSplineSet
EndChar

StartChar: paragraph
Encoding: 182 182 120
Width: 1237
Flags: W
LayerCount: 2
Fore
SplineSet
1034 84 m 2,0,1
 1034 49 1034 49 1009 24.5 c 128,-1,2
 984 0 984 0 948 0 c 0,3,4
 913 0 913 0 888.5 24.5 c 128,-1,5
 864 49 864 49 864 84 c 2,6,-1
 864 1159 l 1,7,-1
 694 1159 l 1,8,-1
 694 84 l 2,9,10
 694 49 694 49 669 24.5 c 128,-1,11
 644 0 644 0 608 0 c 0,12,13
 573 0 573 0 548.5 24.5 c 128,-1,14
 524 49 524 49 524 84 c 2,15,-1
 524 508 l 1,16,-1
 438 508 l 2,17,18
 334 508 334 508 260 582 c 128,-1,19
 186 656 186 656 186 760 c 2,20,-1
 186 1075 l 2,21,22
 186 1179 186 1179 260.5 1254 c 128,-1,23
 335 1329 335 1329 438 1329 c 2,24,-1
 1034 1329 l 1,25,-1
 1034 84 l 2,0,1
EndSplineSet
EndChar

StartChar: cedilla
Encoding: 184 184 121
Width: 1237
Flags: W
LayerCount: 2
Fore
SplineSet
883 -274 m 2,0,1
 883 -310 883 -310 858.5 -335 c 128,-1,2
 834 -360 834 -360 799 -360 c 2,3,-1
 459 -360 l 2,4,5
 425 -360 425 -360 400 -335 c 128,-1,6
 375 -310 375 -310 375 -276 c 0,7,8
 375 -241 375 -241 399.5 -215.5 c 128,-1,9
 424 -190 424 -190 459 -190 c 2,10,-1
 715 -190 l 1,11,-1
 715 0 l 1,12,-1
 883 0 l 1,13,-1
 883 -274 l 2,0,1
EndSplineSet
EndChar

StartChar: onesuperior
Encoding: 185 185 122
Width: 1237
Flags: W
LayerCount: 2
Fore
SplineSet
879 694 m 2,0,-1
 551 694 l 2,1,2
 518 694 518 694 497.5 715.5 c 128,-1,3
 477 737 477 737 477 768 c 256,4,5
 477 799 477 799 497.5 820.5 c 128,-1,6
 518 842 518 842 551 842 c 2,7,-1
 641 842 l 1,8,-1
 641 1182 l 1,9,-1
 551 1182 l 2,10,11
 518 1182 518 1182 497.5 1203 c 128,-1,12
 477 1224 477 1224 477 1255 c 256,13,14
 477 1286 477 1286 497.5 1307.5 c 128,-1,15
 518 1329 518 1329 551 1329 c 2,16,-1
 715 1329 l 2,17,18
 789 1329 789 1329 789 1255 c 2,19,-1
 789 842 l 1,20,-1
 879 842 l 2,21,22
 912 842 912 842 932.5 820.5 c 128,-1,23
 953 799 953 799 953 768 c 256,24,25
 953 737 953 737 932.5 715.5 c 128,-1,26
 912 694 912 694 879 694 c 2,0,-1
EndSplineSet
EndChar

StartChar: guillemotright
Encoding: 187 187 124
Width: 1237
Flags: W
LayerCount: 2
Fore
SplineSet
860 575 m 1,0,-1
 735 846 l 2,1,2
 727 863 727 863 727 882 c 0,3,4
 727 918 727 918 753.5 941.5 c 128,-1,5
 780 965 780 965 813 965 c 0,6,7
 867 965 867 965 889 918 c 2,8,-1
 1030 612 l 2,9,10
 1038 592 1038 592 1038 575 c 0,11,12
 1038 556 1038 556 1030 539 c 2,13,-1
 889 233 l 2,14,15
 865 186 865 186 813 186 c 0,16,17
 780 186 780 186 753.5 209.5 c 128,-1,18
 727 233 727 233 727 269 c 0,19,20
 727 287 727 287 735 305 c 2,21,-1
 860 575 l 1,0,-1
350 575 m 1,22,-1
 225 846 l 2,23,24
 217 863 217 863 217 882 c 0,25,26
 217 918 217 918 243.5 941.5 c 128,-1,27
 270 965 270 965 303 965 c 0,28,29
 357 965 357 965 379 918 c 2,30,-1
 520 612 l 2,31,32
 528 592 528 592 528 575 c 0,33,34
 528 556 528 556 520 539 c 2,35,-1
 379 233 l 2,36,37
 355 186 355 186 303 186 c 0,38,39
 270 186 270 186 243.5 209.5 c 128,-1,40
 217 233 217 233 217 269 c 0,41,42
 217 287 217 287 225 305 c 2,43,-1
 350 575 l 1,22,-1
EndSplineSet
EndChar

StartChar: questiondown
Encoding: 191 191 128
Width: 1237
Flags: W
LayerCount: 2
Fore
SplineSet
778 965 m 256,0,1
 813 965 813 965 837.5 940.5 c 128,-1,2
 862 916 862 916 862 881 c 0,3,4
 862 845 862 845 837.5 820 c 128,-1,5
 813 795 813 795 778 795 c 256,6,7
 743 795 743 795 718.5 820 c 128,-1,8
 694 845 694 845 694 881 c 0,9,10
 694 916 694 916 718.5 940.5 c 128,-1,11
 743 965 743 965 778 965 c 256,0,1
1008 96 m 2,12,-1
 492 -342 l 2,13,14
 469 -362 469 -362 436 -362 c 0,15,16
 405 -362 405 -362 385 -344 c 2,17,-1
 213 -195 l 2,18,19
 184 -172 184 -172 184 -131 c 2,20,-1
 184 12 l 2,21,22
 184 50 184 50 207 70 c 2,23,-1
 692 487 l 1,24,-1
 692 592 l 2,25,26
 692 626 692 626 717 651 c 128,-1,27
 742 676 742 676 776 676 c 0,28,29
 811 676 811 676 835.5 651 c 128,-1,30
 860 626 860 626 860 592 c 2,31,-1
 860 453 l 2,32,33
 860 408 860 408 834 385 c 2,34,-1
 354 -29 l 1,35,-1
 354 -90 l 1,36,-1
 438 -166 l 1,37,-1
 885 217 l 2,38,39
 915 242 915 242 947 242 c 0,40,41
 978 242 978 242 1004 218.5 c 128,-1,42
 1030 195 1030 195 1030 157 c 0,43,44
 1030 115 1030 115 1008 96 c 2,12,-1
EndSplineSet
EndChar

StartChar: AE
Encoding: 198 198 135
Width: 1237
Flags: W
LayerCount: 2
Fore
SplineSet
978 2 m 2,0,-1
 724 2 l 2,1,2
 688 2 688 2 663 26.5 c 128,-1,3
 638 51 638 51 638 86 c 2,4,-1
 638 291 l 1,5,-1
 464 291 l 1,6,-1
 384 68 l 2,7,8
 358 2 358 2 298 2 c 0,9,10
 263 2 263 2 238 26 c 128,-1,11
 213 50 213 50 213 86 c 0,12,13
 213 103 213 103 220 121 c 2,14,-1
 642 1266 l 2,15,16
 665 1329 665 1329 732 1329 c 2,17,-1
 980 1329 l 2,18,19
 1015 1329 1015 1329 1039.5 1304.5 c 128,-1,20
 1064 1280 1064 1280 1064 1245 c 256,21,22
 1064 1210 1064 1210 1039.5 1185.5 c 128,-1,23
 1015 1161 1015 1161 980 1161 c 2,24,-1
 810 1161 l 1,25,-1
 810 750 l 1,26,-1
 980 750 l 2,27,28
 1015 750 1015 750 1039.5 725.5 c 128,-1,29
 1064 701 1064 701 1064 666 c 0,30,31
 1064 630 1064 630 1039.5 606 c 128,-1,32
 1015 582 1015 582 980 582 c 2,33,-1
 808 582 l 1,34,-1
 808 170 l 1,35,-1
 978 170 l 2,36,37
 1013 170 1013 170 1038.5 145.5 c 128,-1,38
 1064 121 1064 121 1064 86 c 0,39,40
 1064 52 1064 52 1038.5 27 c 128,-1,41
 1013 2 1013 2 978 2 c 2,0,-1
527 461 m 1,42,-1
 638 461 l 1,43,-1
 638 764 l 1,44,-1
 527 461 l 1,42,-1
EndSplineSet
EndChar

StartChar: Ccedilla
Encoding: 199 199 136
Width: 1237
Flags: W
LayerCount: 2
Fore
SplineSet
715 0 m 1,0,-1
 657 0 l 2,1,2
 597 0 597 0 533 38 c 128,-1,3
 469 76 469 76 444 123 c 2,4,-1
 250 498 l 2,5,6
 211 579 211 579 211 664 c 0,7,8
 211 758 211 758 248 827 c 2,9,-1
 444 1198 l 2,10,11
 472 1250 472 1250 531 1289.5 c 128,-1,12
 590 1329 590 1329 645 1329 c 2,13,-1
 977 1329 l 2,14,15
 1012 1329 1012 1329 1036.5 1304 c 128,-1,16
 1061 1279 1061 1279 1061 1245 c 0,17,18
 1061 1210 1061 1210 1036.5 1184.5 c 128,-1,19
 1012 1159 1012 1159 977 1159 c 2,20,-1
 657 1159 l 2,21,22
 617 1159 617 1159 592 1112 c 2,23,-1
 406 764 l 2,24,25
 384 723 384 723 384 667 c 0,26,27
 384 608 384 608 408 563 c 2,28,-1
 586 221 l 2,29,30
 611 168 611 168 668 168 c 2,31,-1
 971 168 l 2,32,33
 1006 168 1006 168 1031.5 143.5 c 128,-1,34
 1057 119 1057 119 1057 84 c 256,35,36
 1057 49 1057 49 1031.5 24.5 c 128,-1,37
 1006 0 1006 0 971 0 c 2,38,-1
 883 0 l 1,39,-1
 883 -274 l 2,40,41
 883 -310 883 -310 858.5 -335 c 128,-1,42
 834 -360 834 -360 799 -360 c 2,43,-1
 459 -360 l 2,44,45
 425 -360 425 -360 400 -335 c 128,-1,46
 375 -310 375 -310 375 -276 c 0,47,48
 375 -241 375 -241 399.5 -215.5 c 128,-1,49
 424 -190 424 -190 459 -190 c 2,50,-1
 715 -190 l 1,51,-1
 715 0 l 1,0,-1
EndSplineSet
EndChar

StartChar: Eth
Encoding: 208 208 145
Width: 1237
Flags: W
LayerCount: 2
Fore
SplineSet
375 1159 m 1,0,-1
 289 1159 l 2,1,2
 254 1159 254 1159 229.5 1184.5 c 128,-1,3
 205 1210 205 1210 205 1245 c 0,4,5
 205 1279 205 1279 229.5 1304 c 128,-1,6
 254 1329 254 1329 289 1329 c 2,7,-1
 621 1329 l 2,8,9
 686 1328 686 1328 747.5 1287 c 128,-1,10
 809 1246 809 1246 838 1188 c 2,11,-1
 1004 852 l 2,12,13
 1051 761 1051 761 1051 662 c 0,14,15
 1051 570 1051 570 1001 473 c 2,16,-1
 834 141 l 2,17,18
 802 77 802 77 742 38.5 c 128,-1,19
 682 0 682 0 608 0 c 2,20,-1
 287 0 l 2,21,22
 252 0 252 0 227.5 25 c 128,-1,23
 203 50 203 50 203 84 c 0,24,25
 203 119 203 119 227.5 144.5 c 128,-1,26
 252 170 252 170 287 170 c 2,27,-1
 375 170 l 1,28,-1
 375 584 l 1,29,-1
 287 584 l 2,30,31
 253 584 253 584 228 608.5 c 128,-1,32
 203 633 203 633 203 668 c 0,33,34
 203 702 203 702 228 727 c 128,-1,35
 253 752 253 752 287 752 c 2,36,-1
 375 752 l 1,37,-1
 375 1159 l 1,0,-1
543 168 m 1,38,-1
 602 168 l 2,39,40
 658 168 658 168 686 223 c 2,41,-1
 852 553 l 2,42,43
 883 618 883 618 883 662 c 0,44,45
 883 717 883 717 858 766 c 2,46,-1
 686 1108 l 2,47,48
 659 1159 659 1159 598 1159 c 2,49,-1
 543 1159 l 1,50,-1
 543 752 l 1,51,-1
 627 752 l 2,52,53
 662 752 662 752 687.5 727.5 c 128,-1,54
 713 703 713 703 713 668 c 256,55,56
 713 633 713 633 687.5 608.5 c 128,-1,57
 662 584 662 584 627 584 c 2,58,-1
 543 584 l 1,59,-1
 543 168 l 1,38,-1
EndSplineSet
EndChar

StartChar: multiply
Encoding: 215 215 152
Width: 1237
Flags: W
LayerCount: 2
Fore
SplineSet
761 668 m 1,0,-1
 987 442 l 2,1,2
 1013 418 1013 418 1013 382 c 0,3,4
 1013 348 1013 348 987.5 322 c 128,-1,5
 962 296 962 296 928 296 c 0,6,7
 893 296 893 296 868 322 c 2,8,-1
 640 549 l 1,9,-1
 415 322 l 2,10,11
 390 298 390 298 355 298 c 0,12,13
 319 298 319 298 295.5 323 c 128,-1,14
 272 348 272 348 272 382 c 256,15,16
 272 416 272 416 296 440 c 2,17,-1
 522 668 l 1,18,-1
 296 893 l 2,19,20
 273 917 273 917 273 950 c 0,21,22
 273 986 273 986 298.5 1011.5 c 128,-1,23
 324 1037 324 1037 359 1037 c 256,24,25
 394 1037 394 1037 417 1014 c 2,26,-1
 642 786 l 1,27,-1
 868 1012 l 2,28,29
 893 1037 893 1037 929 1037 c 0,30,31
 964 1037 964 1037 988 1012 c 128,-1,32
 1012 987 1012 987 1012 954 c 0,33,34
 1012 918 1012 918 987 893 c 2,35,-1
 761 668 l 1,0,-1
EndSplineSet
EndChar

StartChar: Oslash
Encoding: 216 216 153
Width: 1237
Flags: W
LayerCount: 2
Fore
SplineSet
263 840 m 2,0,-1
 451 1214 l 2,1,2
 477 1267 477 1267 531.5 1299 c 128,-1,3
 586 1331 586 1331 650 1331 c 0,4,5
 706 1331 706 1331 764.5 1296.5 c 128,-1,6
 823 1262 823 1262 853 1192 c 1,7,-1
 910 1286 l 2,8,9
 937 1331 937 1331 984 1331 c 0,10,11
 1020 1331 1020 1331 1044 1305.5 c 128,-1,12
 1068 1280 1068 1280 1068 1250 c 0,13,14
 1068 1222 1068 1222 1049 1190 c 2,15,-1
 943 1010 l 1,16,-1
 1035 825 l 2,17,18
 1070 754 1070 754 1070 662 c 0,19,20
 1070 575 1070 575 1037 510 c 2,21,-1
 842 125 l 2,22,23
 812 64 812 64 759.5 33 c 128,-1,24
 707 2 707 2 652 2 c 0,25,26
 582 2 582 2 523 39.5 c 128,-1,27
 464 77 464 77 439 143 c 1,28,-1
 382 45 l 2,29,30
 357 3 357 3 309 3 c 0,31,32
 277 3 277 3 250 27.5 c 128,-1,33
 223 52 223 52 223 87 c 0,34,35
 223 115 223 115 240 143 c 2,36,-1
 347 324 l 1,37,-1
 265 492 l 2,38,39
 223 576 223 576 223 669 c 0,40,41
 223 761 223 761 263 840 c 2,0,-1
595 1122 m 2,42,-1
 412 758 l 2,43,44
 392 715 392 715 392 672 c 0,45,46
 392 598 392 598 451 502 c 1,47,-1
 752 1014 l 1,48,-1
 697 1126 l 2,49,50
 679 1163 679 1163 648 1163 c 0,51,52
 615 1163 615 1163 595 1122 c 2,42,-1
838 831 m 1,53,-1
 541 319 l 1,54,-1
 592 213 l 2,55,56
 612 173 612 173 648 173 c 0,57,58
 678 173 678 173 697 211 c 2,59,-1
 881 573 l 2,60,61
 901 612 901 612 901 656 c 0,62,63
 901 735 901 735 838 831 c 1,53,-1
EndSplineSet
EndChar

StartChar: Thorn
Encoding: 222 222 159
Width: 1237
Flags: W
LayerCount: 2
Fore
SplineSet
1055 565 m 2,0,1
 1055 461 1055 461 981 387 c 128,-1,2
 907 313 907 313 803 313 c 2,3,-1
 377 313 l 1,4,-1
 377 84 l 2,5,6
 377 49 377 49 352.5 24.5 c 128,-1,7
 328 0 328 0 293 0 c 0,8,9
 257 0 257 0 232 24.5 c 128,-1,10
 207 49 207 49 207 84 c 2,11,-1
 207 1245 l 2,12,13
 207 1280 207 1280 232 1304.5 c 128,-1,14
 257 1329 257 1329 293 1329 c 0,15,16
 328 1329 328 1329 352.5 1304.5 c 128,-1,17
 377 1280 377 1280 377 1245 c 2,18,-1
 377 965 l 1,19,-1
 803 965 l 2,20,21
 906 965 906 965 980.5 890 c 128,-1,22
 1055 815 1055 815 1055 711 c 2,23,-1
 1055 565 l 2,0,1
887 565 m 2,24,-1
 887 711 l 2,25,26
 887 745 887 745 862 770 c 128,-1,27
 837 795 837 795 803 795 c 2,28,-1
 377 795 l 1,29,-1
 377 481 l 1,30,-1
 803 481 l 2,31,32
 837 481 837 481 862 506 c 128,-1,33
 887 531 887 531 887 565 c 2,24,-1
EndSplineSet
EndChar

StartChar: germandbls
Encoding: 223 223 160
Width: 1237
Flags: W
LayerCount: 2
Fore
SplineSet
920 504 m 2,0,1
 1001 431 1001 431 1027 375.5 c 128,-1,2
 1053 320 1053 320 1053 258 c 0,3,4
 1053 150 1053 150 976 75 c 128,-1,5
 899 0 899 0 803 0 c 2,6,-1
 750 0 l 2,7,8
 661 0 661 0 585.5 53 c 128,-1,9
 510 106 510 106 510 156 c 0,10,11
 510 189 510 189 535 214.5 c 128,-1,12
 560 240 560 240 598 240 c 0,13,14
 630 240 630 240 666.5 204 c 128,-1,15
 703 168 703 168 772 168 c 2,16,-1
 799 168 l 2,17,18
 836 168 836 168 859 196 c 128,-1,19
 882 224 882 224 882 264 c 0,20,21
 882 315 882 315 850 344 c 2,22,-1
 653 524 l 2,23,24
 573 598 573 598 551.5 626.5 c 128,-1,25
 530 655 530 655 530 700 c 0,26,27
 530 781 530 781 631 834 c 2,28,-1
 793 918 l 2,29,30
 852 949 852 949 868.5 964 c 128,-1,31
 885 979 885 979 885 1009 c 0,32,33
 885 1065 885 1065 854 1090 c 2,34,-1
 795 1137 l 2,35,36
 765 1161 765 1161 725 1161 c 2,37,-1
 551 1161 l 2,38,39
 494 1161 494 1161 463 1135 c 2,40,-1
 406 1085 l 2,41,42
 375 1060 375 1060 375 1018 c 2,43,-1
 375 84 l 2,44,45
 375 50 375 50 350 25 c 128,-1,46
 325 0 325 0 291 0 c 256,47,48
 257 0 257 0 231 25.5 c 128,-1,49
 205 51 205 51 205 84 c 2,50,-1
 205 1026 l 2,51,52
 205 1127 205 1127 264.5 1187.5 c 128,-1,53
 324 1248 324 1248 381.5 1288.5 c 128,-1,54
 439 1329 439 1329 530 1329 c 2,55,-1
 727 1329 l 2,56,57
 840 1331 840 1331 946.5 1235 c 128,-1,58
 1053 1139 1053 1139 1053 1024 c 0,59,60
 1053 934 1053 934 1014.5 892.5 c 128,-1,61
 976 851 976 851 874 799 c 2,62,-1
 774 748 l 2,63,64
 708 714 708 714 708 699 c 0,65,66
 708 693 708 693 743 662 c 2,67,-1
 920 504 l 2,0,1
EndSplineSet
EndChar

StartChar: ae
Encoding: 230 230 167
Width: 1237
Flags: W
LayerCount: 2
Fore
SplineSet
694 362 m 1,0,-1
 694 313 l 2,1,2
 694 270 694 270 731 240 c 2,3,-1
 780 199 l 2,4,5
 820 168 820 168 856 168 c 2,6,-1
 1077 168 l 2,7,8
 1111 168 1111 168 1136 143.5 c 128,-1,9
 1161 119 1161 119 1161 84 c 0,10,11
 1161 50 1161 50 1136 25 c 128,-1,12
 1111 0 1111 0 1077 0 c 2,13,-1
 846 0 l 2,14,15
 801 0 801 0 753 18.5 c 128,-1,16
 705 37 705 37 682 57 c 2,17,-1
 608 121 l 1,18,-1
 403 0 l 1,19,-1
 330 0 l 2,20,21
 224 0 224 0 150 74 c 128,-1,22
 76 148 76 148 76 254 c 2,23,-1
 76 352 l 2,24,25
 76 457 76 457 150.5 531.5 c 128,-1,26
 225 606 225 606 330 606 c 2,27,-1
 449 606 l 2,28,29
 474 606 474 606 524 594 c 1,30,-1
 524 713 l 2,31,32
 524 748 524 748 499.5 772.5 c 128,-1,33
 475 797 475 797 440 797 c 2,34,-1
 332 797 l 2,35,36
 298 797 298 797 273 822 c 128,-1,37
 248 847 248 847 248 881 c 0,38,39
 248 916 248 916 272.5 940.5 c 128,-1,40
 297 965 297 965 332 965 c 2,41,-1
 440 965 l 2,42,43
 558 965 558 965 637 870 c 1,44,45
 742 965 742 965 838 965 c 2,46,-1
 862 965 l 2,47,48
 951 965 951 965 1030 891 c 2,49,-1
 1094 831 l 2,50,51
 1161 770 1161 770 1161 649 c 2,52,-1
 1161 446 l 2,53,54
 1161 412 1161 412 1136.5 387 c 128,-1,55
 1112 362 1112 362 1077 362 c 2,56,-1
 694 362 l 1,0,-1
995 532 m 1,57,-1
 995 649 l 2,58,59
 995 696 995 696 967 721 c 2,60,-1
 918 764 l 2,61,62
 880 795 880 795 850 795 c 0,63,64
 810 795 810 795 778 768 c 2,65,-1
 729 727 l 2,66,67
 696 702 696 702 696 662 c 2,68,-1
 696 532 l 1,69,-1
 995 532 l 1,57,-1
524 270 m 1,70,-1
 524 389 l 1,71,72
 500 434 500 434 451 434 c 2,73,-1
 330 434 l 2,74,75
 295 434 295 434 270.5 409.5 c 128,-1,76
 246 385 246 385 246 350 c 2,77,-1
 246 256 l 2,78,79
 246 222 246 222 271 197 c 128,-1,80
 296 172 296 172 330 172 c 2,81,-1
 356 172 l 1,82,-1
 524 270 l 1,70,-1
EndSplineSet
EndChar

StartChar: ccedilla
Encoding: 231 231 168
Width: 1237
Flags: W
LayerCount: 2
Fore
SplineSet
719 0 m 1,0,-1
 612 0 l 2,1,2
 517 0 517 0 450 57 c 2,3,-1
 287 199 l 2,4,5
 209 264 209 264 209 375 c 2,6,-1
 209 594 l 1,7,8
 205 701 205 701 297 780 c 2,9,-1
 444 907 l 2,10,11
 515 965 515 965 596 965 c 2,12,-1
 973 965 l 2,13,14
 1008 965 1008 965 1032.5 940.5 c 128,-1,15
 1057 916 1057 916 1057 881 c 0,16,17
 1057 845 1057 845 1032.5 821 c 128,-1,18
 1008 797 1008 797 973 797 c 2,19,-1
 612 797 l 2,20,21
 578 797 578 797 547 770 c 2,22,-1
 412 655 l 2,23,24
 379 627 379 627 379 580 c 2,25,-1
 379 375 l 2,26,27
 379 342 379 342 405 319 c 2,28,-1
 553 193 l 2,29,30
 581 168 581 168 627 168 c 2,31,-1
 971 168 l 2,32,33
 1005 168 1005 168 1030 143.5 c 128,-1,34
 1055 119 1055 119 1055 84 c 256,35,36
 1055 49 1055 49 1030.5 24.5 c 128,-1,37
 1006 0 1006 0 971 0 c 2,38,-1
 887 0 l 1,39,-1
 887 -274 l 2,40,41
 887 -310 887 -310 862.5 -335 c 128,-1,42
 838 -360 838 -360 803 -360 c 2,43,-1
 463 -360 l 2,44,45
 429 -360 429 -360 404 -335 c 128,-1,46
 379 -310 379 -310 379 -276 c 0,47,48
 379 -241 379 -241 403.5 -215.5 c 128,-1,49
 428 -190 428 -190 463 -190 c 2,50,-1
 719 -190 l 1,51,-1
 719 0 l 1,0,-1
EndSplineSet
EndChar

StartChar: eth
Encoding: 240 240 177
Width: 1237
Flags: W
LayerCount: 2
Fore
SplineSet
1057 307 m 2,0,1
 1057 194 1057 194 950.5 98 c 128,-1,2
 844 2 844 2 731 2 c 2,3,-1
 534 2 l 2,4,5
 419 2 419 2 314 99.5 c 128,-1,6
 209 197 209 197 209 307 c 2,7,-1
 209 492 l 2,8,9
 209 602 209 602 311.5 699.5 c 128,-1,10
 414 797 414 797 534 797 c 2,11,-1
 618 797 l 1,12,-1
 461 954 l 1,13,-1
 419 911 l 1,14,-1
 350 841 l 2,15,16
 324 815 324 815 289 815 c 256,17,18
 254 815 254 815 229.5 839.5 c 128,-1,19
 205 864 205 864 205 899 c 256,20,21
 205 934 205 934 229 958 c 2,22,-1
 342 1071 l 1,23,-1
 229 1186 l 2,24,25
 205 1210 205 1210 205 1245 c 256,26,27
 205 1280 205 1280 229.5 1304.5 c 128,-1,28
 254 1329 254 1329 289 1329 c 0,29,30
 317 1329 317 1329 331 1318.5 c 128,-1,31
 345 1308 345 1308 403 1249.5 c 128,-1,32
 461 1191 461 1191 461 1190 c 1,33,-1
 575 1305 l 2,34,35
 600 1329 600 1329 635 1329 c 0,36,37
 669 1329 669 1329 694 1304.5 c 128,-1,38
 719 1280 719 1280 719 1245 c 0,39,40
 719 1217 719 1217 708.5 1203 c 128,-1,41
 698 1189 698 1189 639.5 1131 c 128,-1,42
 581 1073 581 1073 579 1073 c 1,43,-1
 989 664 l 2,44,45
 1057 596 1057 596 1057 492 c 2,46,-1
 1057 307 l 2,0,1
889 313 m 2,47,-1
 889 483 l 2,48,49
 889 533 889 533 858 557 c 2,50,-1
 799 604 l 2,51,52
 769 629 769 629 729 629 c 2,53,-1
 555 629 l 2,54,55
 498 629 498 629 467 602 c 2,56,-1
 410 553 l 2,57,58
 379 527 379 527 379 485 c 2,59,-1
 379 315 l 2,60,61
 379 269 379 269 412 242 c 2,62,-1
 475 188 l 2,63,64
 496 170 496 170 534 170 c 2,65,-1
 729 170 l 2,66,67
 772 170 772 170 807 201 c 2,68,-1
 858 246 l 2,69,70
 889 270 889 270 889 313 c 2,47,-1
EndSplineSet
EndChar

StartChar: divide
Encoding: 247 247 184
Width: 1237
Flags: W
LayerCount: 2
Fore
SplineSet
618 1092 m 0,0,1
 653 1092 653 1092 677.5 1066.5 c 128,-1,2
 702 1041 702 1041 702 1006 c 0,3,4
 702 972 702 972 677 947 c 128,-1,5
 652 922 652 922 618 922 c 0,6,7
 585 922 585 922 560 947 c 128,-1,8
 535 972 535 972 535 1006 c 0,9,10
 535 1041 535 1041 559.5 1066.5 c 128,-1,11
 584 1092 584 1092 618 1092 c 0,0,1
961 752 m 2,12,13
 996 752 996 752 1021.5 727.5 c 128,-1,14
 1047 703 1047 703 1047 668 c 256,15,16
 1047 633 1047 633 1021.5 608.5 c 128,-1,17
 996 584 996 584 961 584 c 2,18,-1
 276 584 l 2,19,20
 242 584 242 584 217.5 608.5 c 128,-1,21
 193 633 193 633 193 668 c 0,22,23
 193 702 193 702 217.5 727 c 128,-1,24
 242 752 242 752 276 752 c 2,25,-1
 961 752 l 2,12,13
618 414 m 0,26,27
 653 414 653 414 677.5 388.5 c 128,-1,28
 702 363 702 363 702 328 c 0,29,30
 702 294 702 294 677 269 c 128,-1,31
 652 244 652 244 618 244 c 0,32,33
 585 244 585 244 560 269 c 128,-1,34
 535 294 535 294 535 328 c 0,35,36
 535 363 535 363 559.5 388.5 c 128,-1,37
 584 414 584 414 618 414 c 0,26,27
EndSplineSet
EndChar

StartChar: oslash
Encoding: 248 248 185
Width: 1237
Flags: W
LayerCount: 2
Fore
SplineSet
1053 307 m 2,0,1
 1053 194 1053 194 946.5 98 c 128,-1,2
 840 2 840 2 727 2 c 2,3,-1
 530 2 l 2,4,5
 493 2 493 2 453 12 c 1,6,-1
 365 -139 l 2,7,8
 340 -181 340 -181 292 -181 c 0,9,10
 260 -181 260 -181 233 -157 c 128,-1,11
 206 -133 206 -133 206 -97 c 0,12,13
 206 -70 206 -70 256 17 c 2,14,-1
 307 102 l 1,15,16
 244 165 244 165 224.5 212.5 c 128,-1,17
 205 260 205 260 205 307 c 2,18,-1
 205 662 l 2,19,20
 205 774 205 774 309 870.5 c 128,-1,21
 413 967 413 967 530 967 c 2,22,-1
 727 967 l 2,23,24
 777 967 777 967 807 956 c 1,25,-1
 893 1102 l 2,26,27
 920 1146 920 1146 967 1146 c 0,28,29
 1003 1146 1003 1146 1027 1121 c 128,-1,30
 1051 1096 1051 1096 1051 1066 c 0,31,32
 1051 1038 1051 1038 1032 1006 c 2,33,-1
 950 866 l 1,34,35
 1053 782 1053 782 1053 662 c 2,36,-1
 1053 307 l 2,0,1
715 799 m 1,37,-1
 551 799 l 2,38,39
 494 799 494 799 463 772 c 2,40,-1
 406 723 l 2,41,42
 375 697 375 697 375 655 c 2,43,-1
 375 315 l 2,44,45
 375 279 375 279 395 252 c 1,46,-1
 715 799 l 1,37,-1
885 313 m 2,47,-1
 885 653 l 2,48,49
 885 686 885 686 864 717 c 1,50,-1
 545 170 l 1,51,-1
 725 170 l 2,52,53
 768 170 768 170 803 201 c 2,54,-1
 854 246 l 2,55,56
 885 270 885 270 885 313 c 2,47,-1
EndSplineSet
EndChar

StartChar: thorn
Encoding: 254 254 191
Width: 1237
Flags: W
LayerCount: 2
Fore
SplineSet
377 96 m 1,0,-1
 377 -276 l 2,1,2
 377 -312 377 -312 352.5 -337 c 128,-1,3
 328 -362 328 -362 293 -362 c 256,4,5
 258 -362 258 -362 232.5 -337 c 128,-1,6
 207 -312 207 -312 207 -276 c 2,7,-1
 207 1245 l 2,8,9
 207 1280 207 1280 232 1304.5 c 128,-1,10
 257 1329 257 1329 293 1329 c 0,11,12
 327 1329 327 1329 352 1304.5 c 128,-1,13
 377 1280 377 1280 377 1245 c 2,14,-1
 377 868 l 1,15,16
 499 1004 499 1004 618 1004 c 2,17,-1
 657 1004 l 2,18,19
 746 1004 746 1004 821 938 c 2,20,-1
 961 817 l 2,21,22
 1053 737 1053 737 1053 614 c 2,23,-1
 1053 352 l 2,24,25
 1053 228 1053 228 954 143 c 2,26,-1
 817 25 l 2,27,28
 749 -37 749 -37 645 -37 c 2,29,-1
 608 -37 l 2,30,31
 510 -37 510 -37 442 31 c 2,32,-1
 377 96 l 1,0,-1
614 133 m 2,33,-1
 657 133 l 2,34,35
 688 133 688 133 723 164 c 2,36,-1
 854 279 l 2,37,38
 887 305 887 305 887 350 c 2,39,-1
 887 621 l 2,40,41
 887 661 887 661 850 692 c 2,42,-1
 709 813 l 2,43,44
 685 834 685 834 657 834 c 2,45,-1
 608 834 l 2,46,47
 580 834 580 834 535 788 c 2,48,-1
 410 664 l 2,49,50
 377 631 377 631 377 590 c 2,51,-1
 377 375 l 2,52,53
 377 336 377 336 414 299 c 2,54,-1
 535 178 l 2,55,56
 580 133 580 133 614 133 c 2,33,-1
EndSplineSet
EndChar

StartChar: Amacron
Encoding: 256 256 193
Width: 1237
Flags: W
LayerCount: 2
Fore
SplineSet
889 1598 m 2,0,1
 924 1598 924 1598 949.5 1573 c 128,-1,2
 975 1548 975 1548 975 1514 c 0,3,4
 975 1478 975 1478 949.5 1454 c 128,-1,5
 924 1430 924 1430 889 1430 c 2,6,-1
 369 1430 l 2,7,8
 335 1430 335 1430 310 1455 c 128,-1,9
 285 1480 285 1480 285 1514 c 256,10,11
 285 1548 285 1548 310 1573 c 128,-1,12
 335 1598 335 1598 369 1598 c 2,13,-1
 889 1598 l 2,0,1
212 117 m 2,14,-1
 552 1266 l 2,15,16
 572 1329 572 1329 636 1329 c 0,17,18
 698 1329 698 1329 714 1276 c 2,19,-1
 1049 109 l 2,20,21
 1053 96 1053 96 1053 84 c 0,22,23
 1053 49 1053 49 1029 24.5 c 128,-1,24
 1005 0 1005 0 974 0 c 0,25,26
 908 0 908 0 890 61 c 2,27,-1
 822 289 l 1,28,-1
 439 289 l 1,29,-1
 365 45 l 2,30,31
 362 29 362 29 340 14.5 c 128,-1,32
 318 0 318 0 292 0 c 0,33,34
 255 0 255 0 231 25 c 128,-1,35
 207 50 207 50 207 86 c 0,36,37
 207 101 207 101 212 117 c 2,14,-1
634 940 m 1,38,-1
 490 459 l 1,39,-1
 773 459 l 1,40,-1
 634 940 l 1,38,-1
EndSplineSet
EndChar

StartChar: amacron
Encoding: 257 257 194
Width: 1237
Flags: W
LayerCount: 2
Fore
SplineSet
889 1283 m 2,0,1
 924 1283 924 1283 949.5 1258.5 c 128,-1,2
 975 1234 975 1234 975 1199 c 256,3,4
 975 1164 975 1164 949.5 1139.5 c 128,-1,5
 924 1115 924 1115 889 1115 c 2,6,-1
 369 1115 l 2,7,8
 335 1115 335 1115 310 1140 c 128,-1,9
 285 1165 285 1165 285 1199 c 0,10,11
 285 1234 285 1234 310 1258.5 c 128,-1,12
 335 1283 335 1283 369 1283 c 2,13,-1
 889 1283 l 2,0,1
457 606 m 2,14,-1
 786 606 l 2,15,16
 813 606 813 606 864 594 c 1,17,-1
 862 713 l 2,18,19
 862 748 862 748 837.5 772.5 c 128,-1,20
 813 797 813 797 778 797 c 2,21,-1
 459 797 l 2,22,23
 425 797 425 797 400 822 c 128,-1,24
 375 847 375 847 375 881 c 0,25,26
 375 916 375 916 399.5 940.5 c 128,-1,27
 424 965 424 965 459 965 c 2,28,-1
 778 965 l 2,29,30
 882 965 882 965 955.5 892 c 128,-1,31
 1029 819 1029 819 1032 713 c 2,32,-1
 1053 84 l 2,33,34
 1053 49 1053 49 1028 24.5 c 128,-1,35
 1003 0 1003 0 969 0 c 0,36,37
 933 0 933 0 908 24.5 c 128,-1,38
 883 49 883 49 883 84 c 1,39,-1
 741 0 l 1,40,-1
 457 0 l 2,41,42
 351 0 351 0 277 74 c 128,-1,43
 203 148 203 148 203 254 c 2,44,-1
 203 352 l 2,45,46
 203 457 203 457 277.5 531.5 c 128,-1,47
 352 606 352 606 457 606 c 2,14,-1
877 279 m 1,48,-1
 872 350 l 2,49,50
 871 386 871 386 847 410 c 128,-1,51
 823 434 823 434 788 434 c 2,52,-1
 457 434 l 2,53,54
 422 434 422 434 397.5 409.5 c 128,-1,55
 373 385 373 385 373 350 c 2,56,-1
 373 256 l 2,57,58
 373 222 373 222 398 197 c 128,-1,59
 423 172 423 172 457 172 c 2,60,-1
 694 172 l 1,61,-1
 877 279 l 1,48,-1
EndSplineSet
EndChar

StartChar: Abreve
Encoding: 258 258 195
Width: 1237
Flags: W
LayerCount: 2
Fore
SplineSet
941 1747 m 0,0,1
 976 1747 976 1747 1001.5 1725.5 c 128,-1,2
 1027 1704 1027 1704 1027 1675 c 0,3,4
 1027 1608 1027 1608 906 1522 c 128,-1,5
 785 1436 785 1436 637 1436 c 0,6,7
 490 1436 490 1436 369 1522 c 128,-1,8
 248 1608 248 1608 248 1675 c 0,9,10
 248 1704 248 1704 273.5 1725.5 c 128,-1,11
 299 1747 299 1747 334 1747 c 0,12,13
 375 1747 375 1747 400 1723 c 0,14,15
 509 1606 509 1606 637 1606 c 0,16,17
 766 1606 766 1606 875 1723 c 0,18,19
 900 1747 900 1747 941 1747 c 0,0,1
212 117 m 2,20,-1
 552 1266 l 2,21,22
 572 1329 572 1329 636 1329 c 0,23,24
 698 1329 698 1329 714 1276 c 2,25,-1
 1049 109 l 2,26,27
 1053 96 1053 96 1053 84 c 0,28,29
 1053 49 1053 49 1029 24.5 c 128,-1,30
 1005 0 1005 0 974 0 c 0,31,32
 908 0 908 0 890 61 c 2,33,-1
 822 289 l 1,34,-1
 439 289 l 1,35,-1
 365 45 l 2,36,37
 362 29 362 29 340 14.5 c 128,-1,38
 318 0 318 0 292 0 c 0,39,40
 255 0 255 0 231 25 c 128,-1,41
 207 50 207 50 207 86 c 0,42,43
 207 101 207 101 212 117 c 2,20,-1
634 940 m 1,44,-1
 490 459 l 1,45,-1
 773 459 l 1,46,-1
 634 940 l 1,44,-1
EndSplineSet
EndChar

StartChar: abreve
Encoding: 259 259 196
Width: 1237
Flags: W
LayerCount: 2
Fore
SplineSet
941 1408 m 0,0,1
 976 1408 976 1408 1001.5 1386.5 c 128,-1,2
 1027 1365 1027 1365 1027 1336 c 0,3,4
 1027 1269 1027 1269 906 1183 c 128,-1,5
 785 1097 785 1097 637 1097 c 0,6,7
 490 1097 490 1097 369 1183 c 128,-1,8
 248 1269 248 1269 248 1336 c 0,9,10
 248 1365 248 1365 273.5 1386.5 c 128,-1,11
 299 1408 299 1408 334 1408 c 0,12,13
 375 1408 375 1408 400 1384 c 0,14,15
 509 1267 509 1267 637 1267 c 0,16,17
 766 1267 766 1267 875 1384 c 0,18,19
 900 1408 900 1408 941 1408 c 0,0,1
457 606 m 2,20,-1
 786 606 l 2,21,22
 813 606 813 606 864 594 c 1,23,-1
 862 713 l 2,24,25
 862 748 862 748 837.5 772.5 c 128,-1,26
 813 797 813 797 778 797 c 2,27,-1
 459 797 l 2,28,29
 425 797 425 797 400 822 c 128,-1,30
 375 847 375 847 375 881 c 0,31,32
 375 916 375 916 399.5 940.5 c 128,-1,33
 424 965 424 965 459 965 c 2,34,-1
 778 965 l 2,35,36
 882 965 882 965 955.5 892 c 128,-1,37
 1029 819 1029 819 1032 713 c 2,38,-1
 1053 84 l 2,39,40
 1053 49 1053 49 1028 24.5 c 128,-1,41
 1003 0 1003 0 969 0 c 0,42,43
 933 0 933 0 908 24.5 c 128,-1,44
 883 49 883 49 883 84 c 1,45,-1
 741 0 l 1,46,-1
 457 0 l 2,47,48
 351 0 351 0 277 74 c 128,-1,49
 203 148 203 148 203 254 c 2,50,-1
 203 352 l 2,51,52
 203 457 203 457 277.5 531.5 c 128,-1,53
 352 606 352 606 457 606 c 2,20,-1
877 279 m 1,54,-1
 872 350 l 2,55,56
 871 386 871 386 847 410 c 128,-1,57
 823 434 823 434 788 434 c 2,58,-1
 457 434 l 2,59,60
 422 434 422 434 397.5 409.5 c 128,-1,61
 373 385 373 385 373 350 c 2,62,-1
 373 256 l 2,63,64
 373 222 373 222 398 197 c 128,-1,65
 423 172 423 172 457 172 c 2,66,-1
 694 172 l 1,67,-1
 877 279 l 1,54,-1
EndSplineSet
EndChar

StartChar: Aogonek
Encoding: 260 260 197
Width: 1237
Flags: W
LayerCount: 2
Fore
SplineSet
1053 84 m 1,0,-1
 1053 -68 l 1,1,-1
 1153 -68 l 2,2,3
 1188 -68 1188 -68 1212.5 -93.5 c 128,-1,4
 1237 -119 1237 -119 1237 -154 c 0,5,6
 1237 -188 1237 -188 1212 -213 c 128,-1,7
 1187 -238 1187 -238 1153 -238 c 2,8,-1
 969 -238 l 1,9,-1
 910 -213 l 1,10,11
 885 -198 885 -198 885 -152 c 2,12,-1
 885 84 l 1,13,-1
 1053 84 l 1,0,-1
212 117 m 2,14,-1
 552 1266 l 2,15,16
 572 1329 572 1329 636 1329 c 0,17,18
 698 1329 698 1329 714 1276 c 2,19,-1
 1049 109 l 2,20,21
 1053 96 1053 96 1053 84 c 0,22,23
 1053 49 1053 49 1029 24.5 c 128,-1,24
 1005 0 1005 0 974 0 c 0,25,26
 908 0 908 0 890 61 c 2,27,-1
 822 289 l 1,28,-1
 439 289 l 1,29,-1
 365 45 l 2,30,31
 362 29 362 29 340 14.5 c 128,-1,32
 318 0 318 0 292 0 c 0,33,34
 255 0 255 0 231 25 c 128,-1,35
 207 50 207 50 207 86 c 0,36,37
 207 101 207 101 212 117 c 2,14,-1
634 940 m 1,38,-1
 490 459 l 1,39,-1
 773 459 l 1,40,-1
 634 940 l 1,38,-1
EndSplineSet
EndChar

StartChar: aogonek
Encoding: 261 261 198
Width: 1237
Flags: W
LayerCount: 2
Fore
SplineSet
1053 84 m 1,0,-1
 1053 -106 l 1,1,-1
 1173 -106 l 2,2,3
 1208 -106 1208 -106 1232.5 -131.5 c 128,-1,4
 1257 -157 1257 -157 1257 -192 c 0,5,6
 1257 -226 1257 -226 1232 -251 c 128,-1,7
 1207 -276 1207 -276 1173 -276 c 2,8,-1
 969 -276 l 2,9,10
 954 -276 954 -276 910 -251 c 0,11,12
 885 -237 885 -237 885 -190 c 2,13,-1
 885 84 l 1,14,-1
 1053 84 l 1,0,-1
457 606 m 2,15,-1
 786 606 l 2,16,17
 813 606 813 606 864 594 c 1,18,-1
 862 713 l 2,19,20
 862 748 862 748 837.5 772.5 c 128,-1,21
 813 797 813 797 778 797 c 2,22,-1
 459 797 l 2,23,24
 425 797 425 797 400 822 c 128,-1,25
 375 847 375 847 375 881 c 0,26,27
 375 916 375 916 399.5 940.5 c 128,-1,28
 424 965 424 965 459 965 c 2,29,-1
 778 965 l 2,30,31
 882 965 882 965 955.5 892 c 128,-1,32
 1029 819 1029 819 1032 713 c 2,33,-1
 1053 84 l 2,34,35
 1053 49 1053 49 1028 24.5 c 128,-1,36
 1003 0 1003 0 969 0 c 0,37,38
 933 0 933 0 908 24.5 c 128,-1,39
 883 49 883 49 883 84 c 1,40,-1
 741 0 l 1,41,-1
 457 0 l 2,42,43
 351 0 351 0 277 74 c 128,-1,44
 203 148 203 148 203 254 c 2,45,-1
 203 352 l 2,46,47
 203 457 203 457 277.5 531.5 c 128,-1,48
 352 606 352 606 457 606 c 2,15,-1
877 279 m 1,49,-1
 872 350 l 2,50,51
 871 386 871 386 847 410 c 128,-1,52
 823 434 823 434 788 434 c 2,53,-1
 457 434 l 2,54,55
 422 434 422 434 397.5 409.5 c 128,-1,56
 373 385 373 385 373 350 c 2,57,-1
 373 256 l 2,58,59
 373 222 373 222 398 197 c 128,-1,60
 423 172 423 172 457 172 c 2,61,-1
 694 172 l 1,62,-1
 877 279 l 1,49,-1
EndSplineSet
EndChar

StartChar: Cacute
Encoding: 262 262 199
Width: 1237
Flags: W
LayerCount: 2
Fore
SplineSet
668 168 m 2,0,-1
 971 168 l 2,1,2
 1006 168 1006 168 1031.5 143.5 c 128,-1,3
 1057 119 1057 119 1057 84 c 256,4,5
 1057 49 1057 49 1031.5 24.5 c 128,-1,6
 1006 0 1006 0 971 0 c 2,7,-1
 657 0 l 2,8,9
 597 0 597 0 533 38 c 128,-1,10
 469 76 469 76 444 123 c 2,11,-1
 250 498 l 2,12,13
 211 579 211 579 211 664 c 0,14,15
 211 758 211 758 248 827 c 2,16,-1
 444 1198 l 2,17,18
 472 1250 472 1250 531 1289.5 c 128,-1,19
 590 1329 590 1329 645 1329 c 2,20,-1
 977 1329 l 2,21,22
 1012 1329 1012 1329 1036.5 1304 c 128,-1,23
 1061 1279 1061 1279 1061 1245 c 0,24,25
 1061 1210 1061 1210 1036.5 1184.5 c 128,-1,26
 1012 1159 1012 1159 977 1159 c 2,27,-1
 657 1159 l 2,28,29
 617 1159 617 1159 592 1112 c 2,30,-1
 406 764 l 2,31,32
 384 723 384 723 384 667 c 0,33,34
 384 608 384 608 408 563 c 2,35,-1
 586 221 l 2,36,37
 611 168 611 168 668 168 c 2,0,-1
735 1685 m 2,38,39
 753 1693 753 1693 772 1693 c 0,40,41
 808 1693 808 1693 831 1666.5 c 128,-1,42
 854 1640 854 1640 854 1607 c 0,43,44
 854 1553 854 1553 807 1531 c 2,45,-1
 502 1390 l 2,46,47
 484 1382 484 1382 465 1382 c 0,48,49
 429 1382 429 1382 406 1408.5 c 128,-1,50
 383 1435 383 1435 383 1468 c 0,51,52
 383 1522 383 1522 430 1544 c 2,53,-1
 735 1685 l 2,38,39
EndSplineSet
EndChar

StartChar: cacute
Encoding: 263 263 200
Width: 1237
Flags: W
LayerCount: 2
Fore
SplineSet
971 0 m 2,0,-1
 612 0 l 2,1,2
 517 0 517 0 450 57 c 2,3,-1
 287 199 l 2,4,5
 209 264 209 264 209 375 c 2,6,-1
 209 594 l 1,7,8
 205 701 205 701 297 780 c 2,9,-1
 444 907 l 2,10,11
 515 965 515 965 596 965 c 2,12,-1
 973 965 l 2,13,14
 1008 965 1008 965 1032.5 940.5 c 128,-1,15
 1057 916 1057 916 1057 881 c 0,16,17
 1057 845 1057 845 1032.5 821 c 128,-1,18
 1008 797 1008 797 973 797 c 2,19,-1
 612 797 l 2,20,21
 578 797 578 797 547 770 c 2,22,-1
 412 655 l 2,23,24
 379 627 379 627 379 580 c 2,25,-1
 379 375 l 2,26,27
 379 342 379 342 405 319 c 2,28,-1
 553 193 l 2,29,30
 581 168 581 168 627 168 c 2,31,-1
 971 168 l 2,32,33
 1005 168 1005 168 1030 143.5 c 128,-1,34
 1055 119 1055 119 1055 84 c 256,35,36
 1055 49 1055 49 1030.5 24.5 c 128,-1,37
 1006 0 1006 0 971 0 c 2,0,-1
858 1321 m 2,38,39
 876 1329 876 1329 895 1329 c 0,40,41
 931 1329 931 1329 954 1302.5 c 128,-1,42
 977 1276 977 1276 977 1243 c 0,43,44
 977 1189 977 1189 930 1167 c 2,45,-1
 625 1026 l 2,46,47
 607 1018 607 1018 588 1018 c 0,48,49
 552 1018 552 1018 529 1044.5 c 128,-1,50
 506 1071 506 1071 506 1104 c 0,51,52
 506 1158 506 1158 553 1180 c 2,53,-1
 858 1321 l 2,38,39
EndSplineSet
EndChar

StartChar: Ccircumflex
Encoding: 264 264 201
Width: 1237
Flags: W
LayerCount: 2
Fore
SplineSet
668 168 m 2,0,-1
 971 168 l 2,1,2
 1006 168 1006 168 1031.5 143.5 c 128,-1,3
 1057 119 1057 119 1057 84 c 256,4,5
 1057 49 1057 49 1031.5 24.5 c 128,-1,6
 1006 0 1006 0 971 0 c 2,7,-1
 657 0 l 2,8,9
 597 0 597 0 533 38 c 128,-1,10
 469 76 469 76 444 123 c 2,11,-1
 250 498 l 2,12,13
 211 579 211 579 211 664 c 0,14,15
 211 758 211 758 248 827 c 2,16,-1
 444 1198 l 2,17,18
 472 1250 472 1250 531 1289.5 c 128,-1,19
 590 1329 590 1329 645 1329 c 2,20,-1
 977 1329 l 2,21,22
 1012 1329 1012 1329 1036.5 1304 c 128,-1,23
 1061 1279 1061 1279 1061 1245 c 0,24,25
 1061 1210 1061 1210 1036.5 1184.5 c 128,-1,26
 1012 1159 1012 1159 977 1159 c 2,27,-1
 657 1159 l 2,28,29
 617 1159 617 1159 592 1112 c 2,30,-1
 406 764 l 2,31,32
 384 723 384 723 384 667 c 0,33,34
 384 608 384 608 408 563 c 2,35,-1
 586 221 l 2,36,37
 611 168 611 168 668 168 c 2,0,-1
744 1515 m 1,38,-1
 474 1390 l 2,39,40
 457 1382 457 1382 438 1382 c 0,41,42
 402 1382 402 1382 378.5 1408.5 c 128,-1,43
 355 1435 355 1435 355 1468 c 0,44,45
 355 1522 355 1522 402 1544 c 2,46,-1
 708 1685 l 2,47,48
 728 1693 728 1693 744 1693 c 0,49,50
 764 1693 764 1693 781 1685 c 2,51,-1
 1087 1544 l 2,52,53
 1134 1520 1134 1520 1134 1468 c 0,54,55
 1134 1435 1134 1435 1110.5 1408.5 c 128,-1,56
 1087 1382 1087 1382 1051 1382 c 0,57,58
 1033 1382 1033 1382 1015 1390 c 2,59,-1
 744 1515 l 1,38,-1
EndSplineSet
EndChar

StartChar: ccircumflex
Encoding: 265 265 202
Width: 1237
Flags: W
LayerCount: 2
Fore
SplineSet
971 0 m 2,0,-1
 612 0 l 2,1,2
 517 0 517 0 450 57 c 2,3,-1
 287 199 l 2,4,5
 209 264 209 264 209 375 c 2,6,-1
 209 594 l 1,7,8
 205 701 205 701 297 780 c 2,9,-1
 444 907 l 2,10,11
 515 965 515 965 596 965 c 2,12,-1
 973 965 l 2,13,14
 1008 965 1008 965 1032.5 940.5 c 128,-1,15
 1057 916 1057 916 1057 881 c 0,16,17
 1057 845 1057 845 1032.5 821 c 128,-1,18
 1008 797 1008 797 973 797 c 2,19,-1
 612 797 l 2,20,21
 578 797 578 797 547 770 c 2,22,-1
 412 655 l 2,23,24
 379 627 379 627 379 580 c 2,25,-1
 379 375 l 2,26,27
 379 342 379 342 405 319 c 2,28,-1
 553 193 l 2,29,30
 581 168 581 168 627 168 c 2,31,-1
 971 168 l 2,32,33
 1005 168 1005 168 1030 143.5 c 128,-1,34
 1055 119 1055 119 1055 84 c 256,35,36
 1055 49 1055 49 1030.5 24.5 c 128,-1,37
 1006 0 1006 0 971 0 c 2,0,-1
681 1151 m 1,38,-1
 411 1026 l 2,39,40
 394 1018 394 1018 375 1018 c 0,41,42
 339 1018 339 1018 315.5 1044.5 c 128,-1,43
 292 1071 292 1071 292 1104 c 0,44,45
 292 1158 292 1158 339 1180 c 2,46,-1
 645 1321 l 2,47,48
 665 1329 665 1329 681 1329 c 0,49,50
 701 1329 701 1329 718 1321 c 2,51,-1
 1024 1180 l 2,52,53
 1071 1156 1071 1156 1071 1104 c 0,54,55
 1071 1071 1071 1071 1047.5 1044.5 c 128,-1,56
 1024 1018 1024 1018 988 1018 c 0,57,58
 970 1018 970 1018 952 1026 c 2,59,-1
 681 1151 l 1,38,-1
EndSplineSet
EndChar

StartChar: Cdotaccent
Encoding: 266 266 203
Width: 1237
Flags: W
LayerCount: 2
Fore
SplineSet
854 1478 m 2,0,1
 854 1444 854 1444 830 1418 c 0,2,3
 809 1396 809 1396 770 1396 c 0,4,5
 726 1396 726 1396 711 1421 c 0,6,7
 687 1460 687 1460 687 1478 c 2,8,-1
 687 1527 l 2,9,10
 687 1562 687 1562 711 1586 c 0,11,12
 734 1611 734 1611 770 1611 c 0,13,14
 807 1612 807 1612 830 1586 c 0,15,16
 854 1560 854 1560 854 1527 c 2,17,-1
 854 1478 l 2,0,1
668 168 m 2,18,-1
 971 168 l 2,19,20
 1006 168 1006 168 1031.5 143.5 c 128,-1,21
 1057 119 1057 119 1057 84 c 256,22,23
 1057 49 1057 49 1031.5 24.5 c 128,-1,24
 1006 0 1006 0 971 0 c 2,25,-1
 657 0 l 2,26,27
 597 0 597 0 533 38 c 128,-1,28
 469 76 469 76 444 123 c 2,29,-1
 250 498 l 2,30,31
 211 579 211 579 211 664 c 0,32,33
 211 758 211 758 248 827 c 2,34,-1
 444 1198 l 2,35,36
 472 1250 472 1250 531 1289.5 c 128,-1,37
 590 1329 590 1329 645 1329 c 2,38,-1
 977 1329 l 2,39,40
 1012 1329 1012 1329 1036.5 1304 c 128,-1,41
 1061 1279 1061 1279 1061 1245 c 0,42,43
 1061 1210 1061 1210 1036.5 1184.5 c 128,-1,44
 1012 1159 1012 1159 977 1159 c 2,45,-1
 657 1159 l 2,46,47
 617 1159 617 1159 592 1112 c 2,48,-1
 406 764 l 2,49,50
 384 723 384 723 384 667 c 0,51,52
 384 608 384 608 408 563 c 2,53,-1
 586 221 l 2,54,55
 611 168 611 168 668 168 c 2,18,-1
EndSplineSet
EndChar

StartChar: cdotaccent
Encoding: 267 267 204
Width: 1237
Flags: W
LayerCount: 2
Fore
SplineSet
826 1102 m 2,0,1
 826 1068 826 1068 802 1042 c 0,2,3
 781 1020 781 1020 742 1021 c 0,4,5
 698 1020 698 1020 683 1046 c 0,6,7
 659 1084 659 1084 659 1102 c 2,8,-1
 659 1152 l 2,9,10
 659 1186 659 1186 683 1211 c 0,11,12
 706 1235 706 1235 742 1236 c 0,13,14
 779 1236 779 1236 802 1211 c 0,15,16
 826 1184 826 1184 826 1152 c 2,17,-1
 826 1102 l 2,0,1
971 0 m 2,18,-1
 612 0 l 2,19,20
 517 0 517 0 450 57 c 2,21,-1
 287 199 l 2,22,23
 209 264 209 264 209 375 c 2,24,-1
 209 594 l 1,25,26
 205 701 205 701 297 780 c 2,27,-1
 444 907 l 2,28,29
 515 965 515 965 596 965 c 2,30,-1
 973 965 l 2,31,32
 1008 965 1008 965 1032.5 940.5 c 128,-1,33
 1057 916 1057 916 1057 881 c 0,34,35
 1057 845 1057 845 1032.5 821 c 128,-1,36
 1008 797 1008 797 973 797 c 2,37,-1
 612 797 l 2,38,39
 578 797 578 797 547 770 c 2,40,-1
 412 655 l 2,41,42
 379 627 379 627 379 580 c 2,43,-1
 379 375 l 2,44,45
 379 342 379 342 405 319 c 2,46,-1
 553 193 l 2,47,48
 581 168 581 168 627 168 c 2,49,-1
 971 168 l 2,50,51
 1005 168 1005 168 1030 143.5 c 128,-1,52
 1055 119 1055 119 1055 84 c 256,53,54
 1055 49 1055 49 1030.5 24.5 c 128,-1,55
 1006 0 1006 0 971 0 c 2,18,-1
EndSplineSet
EndChar

StartChar: Ccaron
Encoding: 268 268 205
Width: 1237
Flags: W
LayerCount: 2
Fore
SplineSet
668 168 m 2,0,-1
 971 168 l 2,1,2
 1006 168 1006 168 1031.5 143.5 c 128,-1,3
 1057 119 1057 119 1057 84 c 256,4,5
 1057 49 1057 49 1031.5 24.5 c 128,-1,6
 1006 0 1006 0 971 0 c 2,7,-1
 657 0 l 2,8,9
 597 0 597 0 533 38 c 128,-1,10
 469 76 469 76 444 123 c 2,11,-1
 250 498 l 2,12,13
 211 579 211 579 211 664 c 0,14,15
 211 758 211 758 248 827 c 2,16,-1
 444 1198 l 2,17,18
 472 1250 472 1250 531 1289.5 c 128,-1,19
 590 1329 590 1329 645 1329 c 2,20,-1
 977 1329 l 2,21,22
 1012 1329 1012 1329 1036.5 1304 c 128,-1,23
 1061 1279 1061 1279 1061 1245 c 0,24,25
 1061 1210 1061 1210 1036.5 1184.5 c 128,-1,26
 1012 1159 1012 1159 977 1159 c 2,27,-1
 657 1159 l 2,28,29
 617 1159 617 1159 592 1112 c 2,30,-1
 406 764 l 2,31,32
 384 723 384 723 384 667 c 0,33,34
 384 608 384 608 408 563 c 2,35,-1
 586 221 l 2,36,37
 611 168 611 168 668 168 c 2,0,-1
750 1560 m 1,38,-1
 1021 1685 l 2,39,40
 1038 1693 1038 1693 1057 1693 c 0,41,42
 1093 1693 1093 1693 1116.5 1666.5 c 128,-1,43
 1140 1640 1140 1640 1140 1607 c 0,44,45
 1140 1553 1140 1553 1093 1531 c 2,46,-1
 787 1390 l 2,47,48
 767 1382 767 1382 750 1382 c 0,49,50
 731 1382 731 1382 714 1390 c 2,51,-1
 408 1531 l 2,52,53
 361 1555 361 1555 361 1607 c 0,54,55
 361 1640 361 1640 384.5 1666.5 c 128,-1,56
 408 1693 408 1693 444 1693 c 0,57,58
 462 1693 462 1693 480 1685 c 2,59,-1
 750 1560 l 1,38,-1
EndSplineSet
EndChar

StartChar: ccaron
Encoding: 269 269 206
Width: 1237
Flags: W
LayerCount: 2
Fore
SplineSet
971 0 m 2,0,-1
 612 0 l 2,1,2
 517 0 517 0 450 57 c 2,3,-1
 287 199 l 2,4,5
 209 264 209 264 209 375 c 2,6,-1
 209 594 l 1,7,8
 205 701 205 701 297 780 c 2,9,-1
 444 907 l 2,10,11
 515 965 515 965 596 965 c 2,12,-1
 973 965 l 2,13,14
 1008 965 1008 965 1032.5 940.5 c 128,-1,15
 1057 916 1057 916 1057 881 c 0,16,17
 1057 845 1057 845 1032.5 821 c 128,-1,18
 1008 797 1008 797 973 797 c 2,19,-1
 612 797 l 2,20,21
 578 797 578 797 547 770 c 2,22,-1
 412 655 l 2,23,24
 379 627 379 627 379 580 c 2,25,-1
 379 375 l 2,26,27
 379 342 379 342 405 319 c 2,28,-1
 553 193 l 2,29,30
 581 168 581 168 627 168 c 2,31,-1
 971 168 l 2,32,33
 1005 168 1005 168 1030 143.5 c 128,-1,34
 1055 119 1055 119 1055 84 c 256,35,36
 1055 49 1055 49 1030.5 24.5 c 128,-1,37
 1006 0 1006 0 971 0 c 2,0,-1
717 1199 m 1,38,-1
 988 1324 l 2,39,40
 1005 1332 1005 1332 1024 1332 c 0,41,42
 1060 1332 1060 1332 1083.5 1305.5 c 128,-1,43
 1107 1279 1107 1279 1107 1246 c 0,44,45
 1107 1192 1107 1192 1060 1170 c 2,46,-1
 754 1029 l 2,47,48
 734 1021 734 1021 717 1021 c 0,49,50
 698 1021 698 1021 681 1029 c 2,51,-1
 375 1170 l 2,52,53
 328 1194 328 1194 328 1246 c 0,54,55
 328 1279 328 1279 351.5 1305.5 c 128,-1,56
 375 1332 375 1332 411 1332 c 0,57,58
 429 1332 429 1332 447 1324 c 2,59,-1
 717 1199 l 1,38,-1
EndSplineSet
EndChar

StartChar: Dcaron
Encoding: 270 270 207
Width: 1237
Flags: W
LayerCount: 2
Fore
SplineSet
627 1556 m 1,0,-1
 898 1681 l 2,1,2
 915 1689 915 1689 934 1689 c 0,3,4
 970 1689 970 1689 993.5 1662.5 c 128,-1,5
 1017 1636 1017 1636 1017 1622 c 0,6,7
 1017 1549 1017 1549 970 1527 c 2,8,-1
 664 1386 l 2,9,10
 647 1378 647 1378 627 1378 c 0,11,12
 608 1378 608 1378 591 1386 c 2,13,-1
 285 1527 l 2,14,15
 238 1549 238 1549 238 1603 c 0,16,17
 238 1636 238 1636 261.5 1662.5 c 128,-1,18
 285 1689 285 1689 321 1689 c 0,19,20
 340 1689 340 1689 357 1681 c 2,21,-1
 627 1556 l 1,0,-1
289 1329 m 2,22,-1
 621 1329 l 2,23,24
 686 1328 686 1328 747.5 1287 c 128,-1,25
 809 1246 809 1246 838 1188 c 2,26,-1
 1004 852 l 2,27,28
 1051 761 1051 761 1051 662 c 0,29,30
 1051 570 1051 570 1001 473 c 2,31,-1
 834 141 l 2,32,33
 802 77 802 77 742 38.5 c 128,-1,34
 682 0 682 0 608 0 c 2,35,-1
 287 0 l 2,36,37
 252 0 252 0 227.5 25 c 128,-1,38
 203 50 203 50 203 84 c 0,39,40
 203 119 203 119 227.5 144.5 c 128,-1,41
 252 170 252 170 287 170 c 2,42,-1
 375 170 l 1,43,-1
 375 1159 l 1,44,-1
 289 1159 l 2,45,46
 254 1159 254 1159 229.5 1184.5 c 128,-1,47
 205 1210 205 1210 205 1245 c 0,48,49
 205 1279 205 1279 229.5 1304 c 128,-1,50
 254 1329 254 1329 289 1329 c 2,22,-1
543 1159 m 1,51,-1
 543 168 l 1,52,-1
 602 168 l 2,53,54
 658 168 658 168 686 223 c 2,55,-1
 852 553 l 2,56,57
 883 618 883 618 883 662 c 0,58,59
 883 717 883 717 858 766 c 2,60,-1
 686 1108 l 2,61,62
 659 1159 659 1159 598 1159 c 2,63,-1
 543 1159 l 1,51,-1
EndSplineSet
EndChar

StartChar: dcaron
Encoding: 271 271 208
Width: 1237
Flags: W
LayerCount: 2
Fore
SplineSet
1046 1319 m 2,0,-1
 1146 1319 l 2,1,2
 1167 1319 1167 1319 1182 1304 c 128,-1,3
 1197 1289 1197 1289 1197 1268 c 0,4,5
 1197 1262 1197 1262 1195 1256 c 2,6,-1
 1094 909 l 2,7,8
 1082 871 1082 871 1045 871 c 0,9,10
 1023 871 1023 871 1008 886.5 c 128,-1,11
 993 902 993 902 993 925 c 2,12,-1
 993 1263 l 2,13,14
 993 1287 993 1287 1007.5 1303 c 128,-1,15
 1022 1319 1022 1319 1046 1319 c 2,0,-1
722 848 m 1,16,-1
 722 1245 l 2,17,18
 722 1280 722 1280 746 1304.5 c 128,-1,19
 770 1329 770 1329 804 1329 c 0,20,21
 839 1329 839 1329 864.5 1304.5 c 128,-1,22
 890 1280 890 1280 890 1245 c 2,23,-1
 890 84 l 2,24,25
 890 49 890 49 865 24.5 c 128,-1,26
 840 0 840 0 806 0 c 0,27,28
 770 0 770 0 746 24.5 c 128,-1,29
 722 49 722 49 722 84 c 2,30,-1
 722 121 l 1,31,32
 599 0 599 0 492 0 c 2,33,-1
 349 0 l 2,34,35
 263 0 263 0 177 74 c 2,36,-1
 107 133 l 2,37,38
 83 156 83 156 61.5 210 c 128,-1,39
 40 264 40 264 40 311 c 2,40,-1
 40 653 l 2,41,42
 40 710 40 710 64 763.5 c 128,-1,43
 88 817 88 817 120 844 c 2,44,-1
 189 903 l 2,45,46
 263 967 263 967 363 967 c 2,47,-1
 484 967 l 2,48,49
 583 967 583 967 664 897 c 2,50,-1
 722 848 l 1,16,-1
478 797 m 2,51,-1
 361 797 l 2,52,53
 324 797 324 797 294 770 c 2,54,-1
 240 723 l 2,55,56
 212 698 212 698 212 659 c 2,57,-1
 212 303 l 2,58,59
 212 268 212 268 245 240 c 2,60,-1
 300 193 l 2,61,62
 326 170 326 170 355 170 c 2,63,-1
 492 170 l 2,64,65
 519 170 519 170 556 201 c 2,66,-1
 689 311 l 2,67,68
 722 340 722 340 722 383 c 2,69,-1
 722 565 l 2,70,71
 722 626 722 626 687 655 c 2,72,-1
 550 772 l 2,73,74
 523 797 523 797 478 797 c 2,51,-1
EndSplineSet
EndChar

StartChar: Dcroat
Encoding: 272 272 209
Width: 1237
Flags: W
LayerCount: 2
Fore
SplineSet
375 1159 m 1,0,-1
 289 1159 l 2,1,2
 254 1159 254 1159 229.5 1184.5 c 128,-1,3
 205 1210 205 1210 205 1245 c 0,4,5
 205 1279 205 1279 229.5 1304 c 128,-1,6
 254 1329 254 1329 289 1329 c 2,7,-1
 621 1329 l 2,8,9
 686 1328 686 1328 747.5 1287 c 128,-1,10
 809 1246 809 1246 838 1188 c 2,11,-1
 1004 852 l 2,12,13
 1051 761 1051 761 1051 662 c 0,14,15
 1051 570 1051 570 1001 473 c 2,16,-1
 834 141 l 2,17,18
 802 77 802 77 742 38.5 c 128,-1,19
 682 0 682 0 608 0 c 2,20,-1
 287 0 l 2,21,22
 252 0 252 0 227.5 25 c 128,-1,23
 203 50 203 50 203 84 c 0,24,25
 203 119 203 119 227.5 144.5 c 128,-1,26
 252 170 252 170 287 170 c 2,27,-1
 375 170 l 1,28,-1
 375 584 l 1,29,-1
 287 584 l 2,30,31
 253 584 253 584 228 608.5 c 128,-1,32
 203 633 203 633 203 668 c 0,33,34
 203 702 203 702 228 727 c 128,-1,35
 253 752 253 752 287 752 c 2,36,-1
 375 752 l 1,37,-1
 375 1159 l 1,0,-1
543 168 m 1,38,-1
 602 168 l 2,39,40
 658 168 658 168 686 223 c 2,41,-1
 852 553 l 2,42,43
 883 618 883 618 883 662 c 0,44,45
 883 717 883 717 858 766 c 2,46,-1
 686 1108 l 2,47,48
 659 1159 659 1159 598 1159 c 2,49,-1
 543 1159 l 1,50,-1
 543 752 l 1,51,-1
 627 752 l 2,52,53
 662 752 662 752 687.5 727.5 c 128,-1,54
 713 703 713 703 713 668 c 256,55,56
 713 633 713 633 687.5 608.5 c 128,-1,57
 662 584 662 584 627 584 c 2,58,-1
 543 584 l 1,59,-1
 543 168 l 1,38,-1
EndSplineSet
EndChar

StartChar: dcroat
Encoding: 273 273 210
Width: 1236
Flags: W
LayerCount: 2
Fore
SplineSet
885 1026 m 1,0,-1
 797 1026 l 2,1,2
 763 1026 763 1026 738 1051 c 128,-1,3
 713 1076 713 1076 713 1110 c 256,4,5
 713 1144 713 1144 738 1169 c 128,-1,6
 763 1194 763 1194 797 1194 c 2,7,-1
 1053 1194 l 1,8,-1
 1137 1194 l 2,9,10
 1172 1194 1172 1194 1197.5 1170 c 128,-1,11
 1223 1146 1223 1146 1223 1110 c 0,12,13
 1223 1076 1223 1076 1197.5 1051 c 128,-1,14
 1172 1026 1172 1026 1137 1026 c 2,15,-1
 885 1026 l 1,0,-1
883 848 m 1,16,-1
 883 1245 l 2,17,18
 883 1280 883 1280 907 1304.5 c 128,-1,19
 931 1329 931 1329 965 1329 c 0,20,21
 1000 1329 1000 1329 1025.5 1304.5 c 128,-1,22
 1051 1280 1051 1280 1051 1245 c 2,23,-1
 1051 84 l 2,24,25
 1051 49 1051 49 1026 24.5 c 128,-1,26
 1001 0 1001 0 967 0 c 0,27,28
 931 0 931 0 907 24.5 c 128,-1,29
 883 49 883 49 883 84 c 2,30,-1
 883 121 l 1,31,32
 760 0 760 0 653 0 c 2,33,-1
 510 0 l 2,34,35
 424 0 424 0 338 74 c 2,36,-1
 268 133 l 2,37,38
 244 156 244 156 222.5 210 c 128,-1,39
 201 264 201 264 201 311 c 2,40,-1
 201 653 l 2,41,42
 201 710 201 710 225 763.5 c 128,-1,43
 249 817 249 817 281 844 c 2,44,-1
 350 903 l 2,45,46
 424 967 424 967 524 967 c 2,47,-1
 645 967 l 2,48,49
 744 967 744 967 825 897 c 2,50,-1
 883 848 l 1,16,-1
639 797 m 2,51,-1
 522 797 l 2,52,53
 485 797 485 797 455 770 c 2,54,-1
 401 723 l 2,55,56
 373 698 373 698 373 659 c 2,57,-1
 373 303 l 2,58,59
 373 268 373 268 406 240 c 2,60,-1
 461 193 l 2,61,62
 487 170 487 170 516 170 c 2,63,-1
 653 170 l 2,64,65
 680 170 680 170 717 201 c 2,66,-1
 850 311 l 2,67,68
 883 340 883 340 883 383 c 2,69,-1
 883 565 l 2,70,71
 883 626 883 626 848 655 c 2,72,-1
 711 772 l 2,73,74
 684 797 684 797 639 797 c 2,51,-1
EndSplineSet
EndChar

StartChar: Emacron
Encoding: 274 274 211
Width: 1237
Flags: W
LayerCount: 2
Fore
SplineSet
889 1598 m 2,0,1
 924 1598 924 1598 949.5 1573 c 128,-1,2
 975 1548 975 1548 975 1514 c 0,3,4
 975 1478 975 1478 949.5 1454 c 128,-1,5
 924 1430 924 1430 889 1430 c 2,6,-1
 369 1430 l 2,7,8
 335 1430 335 1430 310 1455 c 128,-1,9
 285 1480 285 1480 285 1514 c 256,10,11
 285 1548 285 1548 310 1573 c 128,-1,12
 335 1598 335 1598 369 1598 c 2,13,-1
 889 1598 l 2,0,1
969 1159 m 2,14,-1
 375 1159 l 1,15,-1
 375 750 l 1,16,-1
 631 750 l 2,17,18
 665 750 665 750 690 725 c 128,-1,19
 715 700 715 700 715 666 c 0,20,21
 715 630 715 630 690.5 605 c 128,-1,22
 666 580 666 580 631 580 c 2,23,-1
 375 580 l 1,24,-1
 375 168 l 1,25,-1
 971 168 l 2,26,27
 1005 168 1005 168 1030 143.5 c 128,-1,28
 1055 119 1055 119 1055 84 c 256,29,30
 1055 49 1055 49 1029.5 24.5 c 128,-1,31
 1004 0 1004 0 969 0 c 2,32,-1
 207 0 l 1,33,-1
 207 1329 l 1,34,-1
 969 1329 l 2,35,36
 1004 1329 1004 1329 1029.5 1303.5 c 128,-1,37
 1055 1278 1055 1278 1055 1243 c 0,38,39
 1055 1209 1055 1209 1029.5 1184 c 128,-1,40
 1004 1159 1004 1159 969 1159 c 2,14,-1
EndSplineSet
EndChar

StartChar: emacron
Encoding: 275 275 212
Width: 1237
Flags: W
LayerCount: 2
Fore
SplineSet
889 1283 m 2,0,1
 924 1283 924 1283 949.5 1258.5 c 128,-1,2
 975 1234 975 1234 975 1199 c 256,3,4
 975 1164 975 1164 949.5 1139.5 c 128,-1,5
 924 1115 924 1115 889 1115 c 2,6,-1
 369 1115 l 2,7,8
 335 1115 335 1115 310 1140 c 128,-1,9
 285 1165 285 1165 285 1199 c 0,10,11
 285 1234 285 1234 310 1258.5 c 128,-1,12
 335 1283 335 1283 369 1283 c 2,13,-1
 889 1283 l 2,0,1
1053 649 m 2,14,-1
 1053 446 l 2,15,16
 1053 412 1053 412 1028 387 c 128,-1,17
 1003 362 1003 362 969 362 c 2,18,-1
 375 362 l 1,19,-1
 375 313 l 2,20,21
 375 270 375 270 412 240 c 2,22,-1
 461 199 l 2,23,24
 501 168 501 168 537 168 c 2,25,-1
 969 168 l 2,26,27
 1003 168 1003 168 1028 143.5 c 128,-1,28
 1053 119 1053 119 1053 84 c 0,29,30
 1053 50 1053 50 1027.5 25 c 128,-1,31
 1002 0 1002 0 969 0 c 2,32,-1
 526 0 l 2,33,34
 482 0 482 0 433.5 18.5 c 128,-1,35
 385 37 385 37 362 57 c 2,36,-1
 287 123 l 2,37,38
 252 151 252 151 228.5 201 c 128,-1,39
 205 251 205 251 205 293 c 2,40,-1
 205 678 l 2,41,42
 205 711 205 711 230.5 767 c 128,-1,43
 256 823 256 823 295 854 c 2,44,-1
 365 909 l 2,45,46
 434 965 434 965 518 965 c 2,47,-1
 754 965 l 2,48,49
 843 965 843 965 922 891 c 2,50,-1
 985 831 l 2,51,52
 1053 770 1053 770 1053 649 c 2,14,-1
377 662 m 2,53,-1
 377 532 l 1,54,-1
 887 532 l 1,55,-1
 887 649 l 2,56,57
 887 696 887 696 858 721 c 2,58,-1
 809 764 l 2,59,60
 771 795 771 795 741 795 c 2,61,-1
 530 795 l 2,62,63
 491 795 491 795 459 768 c 2,64,-1
 410 727 l 2,65,66
 377 702 377 702 377 662 c 2,53,-1
EndSplineSet
EndChar

StartChar: Ebreve
Encoding: 276 276 213
Width: 1237
Flags: W
LayerCount: 2
Fore
SplineSet
941 1747 m 0,0,1
 976 1747 976 1747 1001.5 1725.5 c 128,-1,2
 1027 1704 1027 1704 1027 1675 c 0,3,4
 1027 1608 1027 1608 906 1522 c 128,-1,5
 785 1436 785 1436 637 1436 c 0,6,7
 490 1436 490 1436 369 1522 c 128,-1,8
 248 1608 248 1608 248 1675 c 0,9,10
 248 1704 248 1704 273.5 1725.5 c 128,-1,11
 299 1747 299 1747 334 1747 c 0,12,13
 375 1747 375 1747 400 1723 c 0,14,15
 509 1606 509 1606 637 1606 c 0,16,17
 766 1606 766 1606 875 1723 c 0,18,19
 900 1747 900 1747 941 1747 c 0,0,1
969 1159 m 2,20,-1
 375 1159 l 1,21,-1
 375 750 l 1,22,-1
 631 750 l 2,23,24
 665 750 665 750 690 725 c 128,-1,25
 715 700 715 700 715 666 c 0,26,27
 715 630 715 630 690.5 605 c 128,-1,28
 666 580 666 580 631 580 c 2,29,-1
 375 580 l 1,30,-1
 375 168 l 1,31,-1
 971 168 l 2,32,33
 1005 168 1005 168 1030 143.5 c 128,-1,34
 1055 119 1055 119 1055 84 c 256,35,36
 1055 49 1055 49 1029.5 24.5 c 128,-1,37
 1004 0 1004 0 969 0 c 2,38,-1
 207 0 l 1,39,-1
 207 1329 l 1,40,-1
 969 1329 l 2,41,42
 1004 1329 1004 1329 1029.5 1303.5 c 128,-1,43
 1055 1278 1055 1278 1055 1243 c 0,44,45
 1055 1209 1055 1209 1029.5 1184 c 128,-1,46
 1004 1159 1004 1159 969 1159 c 2,20,-1
EndSplineSet
EndChar

StartChar: ebreve
Encoding: 277 277 214
Width: 1237
Flags: W
LayerCount: 2
Fore
SplineSet
941 1408 m 0,0,1
 976 1408 976 1408 1001.5 1386.5 c 128,-1,2
 1027 1365 1027 1365 1027 1336 c 0,3,4
 1027 1269 1027 1269 906 1183 c 128,-1,5
 785 1097 785 1097 637 1097 c 0,6,7
 490 1097 490 1097 369 1183 c 128,-1,8
 248 1269 248 1269 248 1336 c 0,9,10
 248 1365 248 1365 273.5 1386.5 c 128,-1,11
 299 1408 299 1408 334 1408 c 0,12,13
 375 1408 375 1408 400 1384 c 0,14,15
 509 1267 509 1267 637 1267 c 0,16,17
 766 1267 766 1267 875 1384 c 0,18,19
 900 1408 900 1408 941 1408 c 0,0,1
1053 649 m 2,20,-1
 1053 446 l 2,21,22
 1053 412 1053 412 1028 387 c 128,-1,23
 1003 362 1003 362 969 362 c 2,24,-1
 375 362 l 1,25,-1
 375 313 l 2,26,27
 375 270 375 270 412 240 c 2,28,-1
 461 199 l 2,29,30
 501 168 501 168 537 168 c 2,31,-1
 969 168 l 2,32,33
 1003 168 1003 168 1028 143.5 c 128,-1,34
 1053 119 1053 119 1053 84 c 0,35,36
 1053 50 1053 50 1027.5 25 c 128,-1,37
 1002 0 1002 0 969 0 c 2,38,-1
 526 0 l 2,39,40
 482 0 482 0 433.5 18.5 c 128,-1,41
 385 37 385 37 362 57 c 2,42,-1
 287 123 l 2,43,44
 252 151 252 151 228.5 201 c 128,-1,45
 205 251 205 251 205 293 c 2,46,-1
 205 678 l 2,47,48
 205 711 205 711 230.5 767 c 128,-1,49
 256 823 256 823 295 854 c 2,50,-1
 365 909 l 2,51,52
 434 965 434 965 518 965 c 2,53,-1
 754 965 l 2,54,55
 843 965 843 965 922 891 c 2,56,-1
 985 831 l 2,57,58
 1053 770 1053 770 1053 649 c 2,20,-1
377 662 m 2,59,-1
 377 532 l 1,60,-1
 887 532 l 1,61,-1
 887 649 l 2,62,63
 887 696 887 696 858 721 c 2,64,-1
 809 764 l 2,65,66
 771 795 771 795 741 795 c 2,67,-1
 530 795 l 2,68,69
 491 795 491 795 459 768 c 2,70,-1
 410 727 l 2,71,72
 377 702 377 702 377 662 c 2,59,-1
EndSplineSet
EndChar

StartChar: Edotaccent
Encoding: 278 278 215
Width: 1237
Flags: W
LayerCount: 2
Fore
SplineSet
731 1478 m 2,0,1
 731 1444 731 1444 707 1418 c 0,2,3
 686 1396 686 1396 647 1396 c 0,4,5
 603 1396 603 1396 588 1421 c 0,6,7
 564 1460 564 1460 564 1478 c 2,8,-1
 564 1527 l 2,9,10
 564 1562 564 1562 588 1586 c 0,11,12
 611 1611 611 1611 647 1611 c 0,13,14
 684 1612 684 1612 707 1586 c 0,15,16
 731 1560 731 1560 731 1527 c 2,17,-1
 731 1478 l 2,0,1
969 1159 m 2,18,-1
 375 1159 l 1,19,-1
 375 750 l 1,20,-1
 631 750 l 2,21,22
 665 750 665 750 690 725 c 128,-1,23
 715 700 715 700 715 666 c 0,24,25
 715 630 715 630 690.5 605 c 128,-1,26
 666 580 666 580 631 580 c 2,27,-1
 375 580 l 1,28,-1
 375 168 l 1,29,-1
 971 168 l 2,30,31
 1005 168 1005 168 1030 143.5 c 128,-1,32
 1055 119 1055 119 1055 84 c 256,33,34
 1055 49 1055 49 1029.5 24.5 c 128,-1,35
 1004 0 1004 0 969 0 c 2,36,-1
 207 0 l 1,37,-1
 207 1329 l 1,38,-1
 969 1329 l 2,39,40
 1004 1329 1004 1329 1029.5 1303.5 c 128,-1,41
 1055 1278 1055 1278 1055 1243 c 0,42,43
 1055 1209 1055 1209 1029.5 1184 c 128,-1,44
 1004 1159 1004 1159 969 1159 c 2,18,-1
EndSplineSet
EndChar

StartChar: edotaccent
Encoding: 279 279 216
Width: 1237
Flags: W
LayerCount: 2
Fore
SplineSet
731 1118 m 2,0,1
 731 1084 731 1084 707 1058 c 0,2,3
 686 1036 686 1036 647 1036 c 0,4,5
 603 1036 603 1036 588 1061 c 0,6,7
 564 1100 564 1100 564 1118 c 2,8,-1
 564 1167 l 2,9,10
 564 1202 564 1202 588 1226 c 0,11,12
 611 1251 611 1251 647 1251 c 0,13,14
 684 1252 684 1252 707 1226 c 0,15,16
 731 1200 731 1200 731 1167 c 2,17,-1
 731 1118 l 2,0,1
1053 649 m 2,18,-1
 1053 446 l 2,19,20
 1053 412 1053 412 1028 387 c 128,-1,21
 1003 362 1003 362 969 362 c 2,22,-1
 375 362 l 1,23,-1
 375 313 l 2,24,25
 375 270 375 270 412 240 c 2,26,-1
 461 199 l 2,27,28
 501 168 501 168 537 168 c 2,29,-1
 969 168 l 2,30,31
 1003 168 1003 168 1028 143.5 c 128,-1,32
 1053 119 1053 119 1053 84 c 0,33,34
 1053 50 1053 50 1027.5 25 c 128,-1,35
 1002 0 1002 0 969 0 c 2,36,-1
 526 0 l 2,37,38
 482 0 482 0 433.5 18.5 c 128,-1,39
 385 37 385 37 362 57 c 2,40,-1
 287 123 l 2,41,42
 252 151 252 151 228.5 201 c 128,-1,43
 205 251 205 251 205 293 c 2,44,-1
 205 678 l 2,45,46
 205 711 205 711 230.5 767 c 128,-1,47
 256 823 256 823 295 854 c 2,48,-1
 365 909 l 2,49,50
 434 965 434 965 518 965 c 2,51,-1
 754 965 l 2,52,53
 843 965 843 965 922 891 c 2,54,-1
 985 831 l 2,55,56
 1053 770 1053 770 1053 649 c 2,18,-1
377 662 m 2,57,-1
 377 532 l 1,58,-1
 887 532 l 1,59,-1
 887 649 l 2,60,61
 887 696 887 696 858 721 c 2,62,-1
 809 764 l 2,63,64
 771 795 771 795 741 795 c 2,65,-1
 530 795 l 2,66,67
 491 795 491 795 459 768 c 2,68,-1
 410 727 l 2,69,70
 377 702 377 702 377 662 c 2,57,-1
EndSplineSet
EndChar

StartChar: Eogonek
Encoding: 280 280 217
Width: 1237
Flags: W
LayerCount: 2
Fore
SplineSet
969 0 m 1,0,-1
 969 -190 l 1,1,-1
 1089 -190 l 2,2,3
 1124 -190 1124 -190 1148.5 -215.5 c 128,-1,4
 1173 -241 1173 -241 1173 -276 c 0,5,6
 1173 -310 1173 -310 1148 -335 c 128,-1,7
 1123 -360 1123 -360 1089 -360 c 2,8,-1
 885 -360 l 2,9,10
 870 -360 870 -360 826 -335 c 0,11,12
 801 -321 801 -321 801 -274 c 2,13,-1
 801 0 l 1,14,-1
 969 0 l 1,0,-1
969 0 m 1024,15,16
799 0 m 1024,17,-1
969 1159 m 2,18,-1
 375 1159 l 1,19,-1
 375 750 l 1,20,-1
 631 750 l 2,21,22
 665 750 665 750 690 725 c 128,-1,23
 715 700 715 700 715 666 c 0,24,25
 715 630 715 630 690.5 605 c 128,-1,26
 666 580 666 580 631 580 c 2,27,-1
 375 580 l 1,28,-1
 375 168 l 1,29,-1
 971 168 l 2,30,31
 1005 168 1005 168 1030 143.5 c 128,-1,32
 1055 119 1055 119 1055 84 c 256,33,34
 1055 49 1055 49 1029.5 24.5 c 128,-1,35
 1004 0 1004 0 969 0 c 2,36,-1
 207 0 l 1,37,-1
 207 1329 l 1,38,-1
 969 1329 l 2,39,40
 1004 1329 1004 1329 1029.5 1303.5 c 128,-1,41
 1055 1278 1055 1278 1055 1243 c 0,42,43
 1055 1209 1055 1209 1029.5 1184 c 128,-1,44
 1004 1159 1004 1159 969 1159 c 2,18,-1
EndSplineSet
EndChar

StartChar: eogonek
Encoding: 281 281 218
Width: 1237
Flags: W
LayerCount: 2
Fore
SplineSet
969 0 m 1,0,-1
 969 -190 l 1,1,-1
 1089 -190 l 2,2,3
 1124 -190 1124 -190 1148.5 -215.5 c 128,-1,4
 1173 -241 1173 -241 1173 -276 c 0,5,6
 1173 -310 1173 -310 1148 -335 c 128,-1,7
 1123 -360 1123 -360 1089 -360 c 2,8,-1
 885 -360 l 2,9,10
 870 -360 870 -360 826 -335 c 0,11,12
 801 -321 801 -321 801 -274 c 2,13,-1
 801 0 l 1,14,-1
 969 0 l 1,0,-1
969 0 m 1024,15,16
799 0 m 1024,17,-1
1053 649 m 2,18,-1
 1053 446 l 2,19,20
 1053 412 1053 412 1028 387 c 128,-1,21
 1003 362 1003 362 969 362 c 2,22,-1
 375 362 l 1,23,-1
 375 313 l 2,24,25
 375 270 375 270 412 240 c 2,26,-1
 461 199 l 2,27,28
 501 168 501 168 537 168 c 2,29,-1
 969 168 l 2,30,31
 1003 168 1003 168 1028 143.5 c 128,-1,32
 1053 119 1053 119 1053 84 c 0,33,34
 1053 50 1053 50 1027.5 25 c 128,-1,35
 1002 0 1002 0 969 0 c 2,36,-1
 526 0 l 2,37,38
 482 0 482 0 433.5 18.5 c 128,-1,39
 385 37 385 37 362 57 c 2,40,-1
 287 123 l 2,41,42
 252 151 252 151 228.5 201 c 128,-1,43
 205 251 205 251 205 293 c 2,44,-1
 205 678 l 2,45,46
 205 711 205 711 230.5 767 c 128,-1,47
 256 823 256 823 295 854 c 2,48,-1
 365 909 l 2,49,50
 434 965 434 965 518 965 c 2,51,-1
 754 965 l 2,52,53
 843 965 843 965 922 891 c 2,54,-1
 985 831 l 2,55,56
 1053 770 1053 770 1053 649 c 2,18,-1
377 662 m 2,57,-1
 377 532 l 1,58,-1
 887 532 l 1,59,-1
 887 649 l 2,60,61
 887 696 887 696 858 721 c 2,62,-1
 809 764 l 2,63,64
 771 795 771 795 741 795 c 2,65,-1
 530 795 l 2,66,67
 491 795 491 795 459 768 c 2,68,-1
 410 727 l 2,69,70
 377 702 377 702 377 662 c 2,57,-1
EndSplineSet
EndChar

StartChar: Ecaron
Encoding: 282 282 219
Width: 1237
Flags: W
LayerCount: 2
Fore
SplineSet
627 1556 m 1,0,-1
 898 1681 l 2,1,2
 915 1689 915 1689 934 1689 c 0,3,4
 970 1689 970 1689 993.5 1662.5 c 128,-1,5
 1017 1636 1017 1636 1017 1622 c 0,6,7
 1017 1549 1017 1549 970 1527 c 2,8,-1
 664 1386 l 2,9,10
 647 1378 647 1378 627 1378 c 0,11,12
 608 1378 608 1378 591 1386 c 2,13,-1
 285 1527 l 2,14,15
 238 1549 238 1549 238 1603 c 0,16,17
 238 1636 238 1636 261.5 1662.5 c 128,-1,18
 285 1689 285 1689 321 1689 c 0,19,20
 340 1689 340 1689 357 1681 c 2,21,-1
 627 1556 l 1,0,-1
969 1159 m 2,22,-1
 375 1159 l 1,23,-1
 375 750 l 1,24,-1
 631 750 l 2,25,26
 665 750 665 750 690 725 c 128,-1,27
 715 700 715 700 715 666 c 0,28,29
 715 630 715 630 690.5 605 c 128,-1,30
 666 580 666 580 631 580 c 2,31,-1
 375 580 l 1,32,-1
 375 168 l 1,33,-1
 971 168 l 2,34,35
 1005 168 1005 168 1030 143.5 c 128,-1,36
 1055 119 1055 119 1055 84 c 256,37,38
 1055 49 1055 49 1029.5 24.5 c 128,-1,39
 1004 0 1004 0 969 0 c 2,40,-1
 207 0 l 1,41,-1
 207 1329 l 1,42,-1
 969 1329 l 2,43,44
 1004 1329 1004 1329 1029.5 1303.5 c 128,-1,45
 1055 1278 1055 1278 1055 1243 c 0,46,47
 1055 1209 1055 1209 1029.5 1184 c 128,-1,48
 1004 1159 1004 1159 969 1159 c 2,22,-1
EndSplineSet
EndChar

StartChar: ecaron
Encoding: 283 283 220
Width: 1237
Flags: W
LayerCount: 2
Fore
SplineSet
1053 649 m 2,0,-1
 1053 446 l 2,1,2
 1053 412 1053 412 1028 387 c 128,-1,3
 1003 362 1003 362 969 362 c 2,4,-1
 375 362 l 1,5,-1
 375 313 l 2,6,7
 375 270 375 270 412 240 c 2,8,-1
 461 199 l 2,9,10
 501 168 501 168 537 168 c 2,11,-1
 969 168 l 2,12,13
 1003 168 1003 168 1028 143.5 c 128,-1,14
 1053 119 1053 119 1053 84 c 0,15,16
 1053 50 1053 50 1027.5 25 c 128,-1,17
 1002 0 1002 0 969 0 c 2,18,-1
 526 0 l 2,19,20
 482 0 482 0 433.5 18.5 c 128,-1,21
 385 37 385 37 362 57 c 2,22,-1
 287 123 l 2,23,24
 252 151 252 151 228.5 201 c 128,-1,25
 205 251 205 251 205 293 c 2,26,-1
 205 678 l 2,27,28
 205 711 205 711 230.5 767 c 128,-1,29
 256 823 256 823 295 854 c 2,30,-1
 365 909 l 2,31,32
 434 965 434 965 518 965 c 2,33,-1
 754 965 l 2,34,35
 843 965 843 965 922 891 c 2,36,-1
 985 831 l 2,37,38
 1053 770 1053 770 1053 649 c 2,0,-1
377 662 m 2,39,-1
 377 532 l 1,40,-1
 887 532 l 1,41,-1
 887 649 l 2,42,43
 887 696 887 696 858 721 c 2,44,-1
 809 764 l 2,45,46
 771 795 771 795 741 795 c 2,47,-1
 530 795 l 2,48,49
 491 795 491 795 459 768 c 2,50,-1
 410 727 l 2,51,52
 377 702 377 702 377 662 c 2,39,-1
645 1202 m 1,53,-1
 916 1327 l 2,54,55
 933 1335 933 1335 952 1335 c 0,56,57
 988 1335 988 1335 1011.5 1308.5 c 128,-1,58
 1035 1282 1035 1282 1035 1249 c 0,59,60
 1035 1195 1035 1195 988 1173 c 2,61,-1
 682 1032 l 2,62,63
 662 1024 662 1024 645 1024 c 0,64,65
 626 1024 626 1024 609 1032 c 2,66,-1
 303 1173 l 2,67,68
 256 1197 256 1197 256 1249 c 0,69,70
 256 1282 256 1282 279.5 1308.5 c 128,-1,71
 303 1335 303 1335 339 1335 c 0,72,73
 357 1335 357 1335 375 1327 c 2,74,-1
 645 1202 l 1,53,-1
EndSplineSet
EndChar

StartChar: Gcircumflex
Encoding: 284 284 221
Width: 1237
Flags: W
LayerCount: 2
Fore
SplineSet
694 1329 m 2,0,-1
 973 1329 l 2,1,2
 1008 1329 1008 1329 1032.5 1304.5 c 128,-1,3
 1057 1280 1057 1280 1057 1245 c 0,4,5
 1057 1208 1057 1208 1030.5 1183.5 c 128,-1,6
 1004 1159 1004 1159 973 1159 c 2,7,-1
 707 1159 l 2,8,9
 668 1159 668 1159 639 1122 c 2,10,-1
 403 819 l 2,11,12
 373 783 373 783 373 719 c 2,13,-1
 373 254 l 2,14,15
 373 218 373 218 397.5 193 c 128,-1,16
 422 168 422 168 457 168 c 2,17,-1
 799 168 l 2,18,19
 833 168 833 168 858 193 c 128,-1,20
 883 218 883 218 883 252 c 2,21,-1
 883 434 l 1,22,-1
 709 434 l 2,23,24
 673 434 673 434 649 458.5 c 128,-1,25
 625 483 625 483 625 518 c 256,26,27
 625 553 625 553 649 577.5 c 128,-1,28
 673 602 673 602 709 602 c 2,29,-1
 1051 602 l 1,30,-1
 1051 252 l 2,31,32
 1051 148 1051 148 977 74 c 128,-1,33
 903 0 903 0 799 0 c 2,34,-1
 457 0 l 2,35,36
 352 0 352 0 277.5 74 c 128,-1,37
 203 148 203 148 203 252 c 2,38,-1
 203 717 l 2,39,40
 203 842 203 842 270 928 c 2,41,-1
 518 1243 l 2,42,43
 545 1279 545 1279 593.5 1304 c 128,-1,44
 642 1329 642 1329 694 1329 c 2,0,-1
694 1329 m 2,45,-1
 973 1329 l 2,46,47
 1008 1329 1008 1329 1032.5 1304.5 c 128,-1,48
 1057 1280 1057 1280 1057 1245 c 0,49,50
 1057 1208 1057 1208 1030.5 1183.5 c 128,-1,51
 1004 1159 1004 1159 973 1159 c 2,52,-1
 707 1159 l 2,53,54
 668 1159 668 1159 639 1122 c 2,55,-1
 403 819 l 2,56,57
 373 783 373 783 373 719 c 2,58,-1
 373 254 l 2,59,60
 373 218 373 218 397.5 193 c 128,-1,61
 422 168 422 168 457 168 c 2,62,-1
 799 168 l 2,63,64
 833 168 833 168 858 193 c 128,-1,65
 883 218 883 218 883 252 c 2,66,-1
 883 434 l 1,67,-1
 709 434 l 2,68,69
 673 434 673 434 649 458.5 c 128,-1,70
 625 483 625 483 625 518 c 256,71,72
 625 553 625 553 649 577.5 c 128,-1,73
 673 602 673 602 709 602 c 2,74,-1
 1051 602 l 1,75,-1
 1051 252 l 2,76,77
 1051 148 1051 148 977 74 c 128,-1,78
 903 0 903 0 799 0 c 2,79,-1
 457 0 l 2,80,81
 352 0 352 0 277.5 74 c 128,-1,82
 203 148 203 148 203 252 c 2,83,-1
 203 717 l 2,84,85
 203 842 203 842 270 928 c 2,86,-1
 518 1243 l 2,87,88
 545 1279 545 1279 593.5 1304 c 128,-1,89
 642 1329 642 1329 694 1329 c 2,45,-1
717 1515 m 1,90,-1
 447 1390 l 2,91,92
 430 1382 430 1382 411 1382 c 0,93,94
 375 1382 375 1382 351.5 1408.5 c 128,-1,95
 328 1435 328 1435 328 1468 c 0,96,97
 328 1522 328 1522 375 1544 c 2,98,-1
 681 1685 l 2,99,100
 701 1693 701 1693 717 1693 c 0,101,102
 737 1693 737 1693 754 1685 c 2,103,-1
 1060 1544 l 2,104,105
 1107 1520 1107 1520 1107 1468 c 0,106,107
 1107 1435 1107 1435 1083.5 1408.5 c 128,-1,108
 1060 1382 1060 1382 1024 1382 c 0,109,110
 1006 1382 1006 1382 988 1390 c 2,111,-1
 717 1515 l 1,90,-1
EndSplineSet
EndChar

StartChar: gcircumflex
Encoding: 285 285 222
Width: 1237
Flags: W
LayerCount: 2
Fore
SplineSet
735 -360 m 2,0,-1
 371 -360 l 2,1,2
 336 -360 336 -360 311.5 -336 c 128,-1,3
 287 -312 287 -312 287 -276 c 0,4,5
 287 -241 287 -241 311.5 -217 c 128,-1,6
 336 -193 336 -193 371 -193 c 2,7,-1
 735 -193 l 2,8,9
 768 -193 768 -193 797 -168 c 2,10,-1
 854 -119 l 2,11,12
 883 -97 883 -97 883 -61 c 2,13,-1
 883 195 l 1,14,15
 765 76 765 76 653 76 c 2,16,-1
 524 76 l 2,17,18
 424 76 424 76 344 145 c 2,19,-1
 281 201 l 2,20,21
 250 227 250 227 227.5 277 c 128,-1,22
 205 327 205 327 205 375 c 2,23,-1
 205 653 l 2,24,25
 205 712 205 712 227.5 765 c 128,-1,26
 250 818 250 818 281 844 c 2,27,-1
 350 903 l 2,28,29
 424 967 424 967 524 967 c 2,30,-1
 645 967 l 2,31,32
 744 967 744 967 825 897 c 2,33,-1
 883 848 l 1,34,-1
 881 881 l 2,35,36
 881 915 881 915 906 940 c 128,-1,37
 931 965 931 965 965 965 c 0,38,39
 1000 965 1000 965 1025.5 940.5 c 128,-1,40
 1051 916 1051 916 1051 881 c 2,41,-1
 1051 -61 l 2,42,43
 1051 -168 1051 -168 965 -244 c 2,44,-1
 897 -303 l 2,45,46
 871 -326 871 -326 823.5 -343 c 128,-1,47
 776 -360 776 -360 735 -360 c 2,0,-1
639 799 m 2,48,-1
 526 799 l 2,49,50
 489 799 489 799 455 770 c 2,51,-1
 403 727 l 2,52,53
 373 702 373 702 373 659 c 2,54,-1
 373 379 l 2,55,56
 373 345 373 345 406 315 c 2,57,-1
 461 266 l 2,58,59
 487 244 487 244 516 244 c 2,60,-1
 653 244 l 2,61,62
 683 244 683 244 719 274 c 2,63,-1
 852 387 l 2,64,65
 883 414 883 414 883 453 c 2,66,-1
 883 580 l 2,67,68
 883 626 883 626 848 655 c 2,69,-1
 711 772 l 2,70,71
 682 799 682 799 639 799 c 2,48,-1
618 1151 m 1,72,-1
 348 1026 l 2,73,74
 331 1018 331 1018 312 1018 c 0,75,76
 276 1018 276 1018 252.5 1044.5 c 128,-1,77
 229 1071 229 1071 229 1104 c 0,78,79
 229 1158 229 1158 276 1180 c 2,80,-1
 582 1321 l 2,81,82
 602 1329 602 1329 618 1329 c 0,83,84
 638 1329 638 1329 655 1321 c 2,85,-1
 961 1180 l 2,86,87
 1008 1156 1008 1156 1008 1104 c 0,88,89
 1008 1071 1008 1071 984.5 1044.5 c 128,-1,90
 961 1018 961 1018 925 1018 c 0,91,92
 907 1018 907 1018 889 1026 c 2,93,-1
 618 1151 l 1,72,-1
EndSplineSet
EndChar

StartChar: Gbreve
Encoding: 286 286 223
Width: 1237
Flags: W
LayerCount: 2
Fore
SplineSet
941 1747 m 0,0,1
 976 1747 976 1747 1001.5 1725.5 c 128,-1,2
 1027 1704 1027 1704 1027 1675 c 0,3,4
 1027 1608 1027 1608 906 1522 c 128,-1,5
 785 1436 785 1436 637 1436 c 0,6,7
 490 1436 490 1436 369 1522 c 128,-1,8
 248 1608 248 1608 248 1675 c 0,9,10
 248 1704 248 1704 273.5 1725.5 c 128,-1,11
 299 1747 299 1747 334 1747 c 0,12,13
 375 1747 375 1747 400 1723 c 0,14,15
 509 1606 509 1606 637 1606 c 0,16,17
 766 1606 766 1606 875 1723 c 0,18,19
 900 1747 900 1747 941 1747 c 0,0,1
694 1329 m 2,20,-1
 973 1329 l 2,21,22
 1008 1329 1008 1329 1032.5 1304.5 c 128,-1,23
 1057 1280 1057 1280 1057 1245 c 0,24,25
 1057 1208 1057 1208 1030.5 1183.5 c 128,-1,26
 1004 1159 1004 1159 973 1159 c 2,27,-1
 707 1159 l 2,28,29
 668 1159 668 1159 639 1122 c 2,30,-1
 403 819 l 2,31,32
 373 783 373 783 373 719 c 2,33,-1
 373 254 l 2,34,35
 373 218 373 218 397.5 193 c 128,-1,36
 422 168 422 168 457 168 c 2,37,-1
 799 168 l 2,38,39
 833 168 833 168 858 193 c 128,-1,40
 883 218 883 218 883 252 c 2,41,-1
 883 434 l 1,42,-1
 709 434 l 2,43,44
 673 434 673 434 649 458.5 c 128,-1,45
 625 483 625 483 625 518 c 256,46,47
 625 553 625 553 649 577.5 c 128,-1,48
 673 602 673 602 709 602 c 2,49,-1
 1051 602 l 1,50,-1
 1051 252 l 2,51,52
 1051 148 1051 148 977 74 c 128,-1,53
 903 0 903 0 799 0 c 2,54,-1
 457 0 l 2,55,56
 352 0 352 0 277.5 74 c 128,-1,57
 203 148 203 148 203 252 c 2,58,-1
 203 717 l 2,59,60
 203 842 203 842 270 928 c 2,61,-1
 518 1243 l 2,62,63
 545 1279 545 1279 593.5 1304 c 128,-1,64
 642 1329 642 1329 694 1329 c 2,20,-1
EndSplineSet
EndChar

StartChar: gbreve
Encoding: 287 287 224
Width: 1237
Flags: W
LayerCount: 2
Fore
SplineSet
941 1408 m 0,0,1
 976 1408 976 1408 1001.5 1386.5 c 128,-1,2
 1027 1365 1027 1365 1027 1336 c 0,3,4
 1027 1269 1027 1269 906 1183 c 128,-1,5
 785 1097 785 1097 637 1097 c 0,6,7
 490 1097 490 1097 369 1183 c 128,-1,8
 248 1269 248 1269 248 1336 c 0,9,10
 248 1365 248 1365 273.5 1386.5 c 128,-1,11
 299 1408 299 1408 334 1408 c 0,12,13
 375 1408 375 1408 400 1384 c 0,14,15
 509 1267 509 1267 637 1267 c 0,16,17
 766 1267 766 1267 875 1384 c 0,18,19
 900 1408 900 1408 941 1408 c 0,0,1
735 -360 m 2,20,-1
 371 -360 l 2,21,22
 336 -360 336 -360 311.5 -336 c 128,-1,23
 287 -312 287 -312 287 -276 c 0,24,25
 287 -241 287 -241 311.5 -217 c 128,-1,26
 336 -193 336 -193 371 -193 c 2,27,-1
 735 -193 l 2,28,29
 768 -193 768 -193 797 -168 c 2,30,-1
 854 -119 l 2,31,32
 883 -97 883 -97 883 -61 c 2,33,-1
 883 195 l 1,34,35
 765 76 765 76 653 76 c 2,36,-1
 524 76 l 2,37,38
 424 76 424 76 344 145 c 2,39,-1
 281 201 l 2,40,41
 250 227 250 227 227.5 277 c 128,-1,42
 205 327 205 327 205 375 c 2,43,-1
 205 653 l 2,44,45
 205 712 205 712 227.5 765 c 128,-1,46
 250 818 250 818 281 844 c 2,47,-1
 350 903 l 2,48,49
 424 967 424 967 524 967 c 2,50,-1
 645 967 l 2,51,52
 744 967 744 967 825 897 c 2,53,-1
 883 848 l 1,54,-1
 881 881 l 2,55,56
 881 915 881 915 906 940 c 128,-1,57
 931 965 931 965 965 965 c 0,58,59
 1000 965 1000 965 1025.5 940.5 c 128,-1,60
 1051 916 1051 916 1051 881 c 2,61,-1
 1051 -61 l 2,62,63
 1051 -168 1051 -168 965 -244 c 2,64,-1
 897 -303 l 2,65,66
 871 -326 871 -326 823.5 -343 c 128,-1,67
 776 -360 776 -360 735 -360 c 2,20,-1
639 799 m 2,68,-1
 526 799 l 2,69,70
 489 799 489 799 455 770 c 2,71,-1
 403 727 l 2,72,73
 373 702 373 702 373 659 c 2,74,-1
 373 379 l 2,75,76
 373 345 373 345 406 315 c 2,77,-1
 461 266 l 2,78,79
 487 244 487 244 516 244 c 2,80,-1
 653 244 l 2,81,82
 683 244 683 244 719 274 c 2,83,-1
 852 387 l 2,84,85
 883 414 883 414 883 453 c 2,86,-1
 883 580 l 2,87,88
 883 626 883 626 848 655 c 2,89,-1
 711 772 l 2,90,91
 682 799 682 799 639 799 c 2,68,-1
EndSplineSet
EndChar

StartChar: Gdotaccent
Encoding: 288 288 225
Width: 1237
Flags: W
LayerCount: 2
Fore
SplineSet
731 1478 m 2,0,1
 731 1444 731 1444 707 1418 c 0,2,3
 686 1396 686 1396 647 1396 c 0,4,5
 603 1396 603 1396 588 1421 c 0,6,7
 564 1460 564 1460 564 1478 c 2,8,-1
 564 1527 l 2,9,10
 564 1562 564 1562 588 1586 c 0,11,12
 611 1611 611 1611 647 1611 c 0,13,14
 684 1612 684 1612 707 1586 c 0,15,16
 731 1560 731 1560 731 1527 c 2,17,-1
 731 1478 l 2,0,1
694 1329 m 2,18,-1
 973 1329 l 2,19,20
 1008 1329 1008 1329 1032.5 1304.5 c 128,-1,21
 1057 1280 1057 1280 1057 1245 c 0,22,23
 1057 1208 1057 1208 1030.5 1183.5 c 128,-1,24
 1004 1159 1004 1159 973 1159 c 2,25,-1
 707 1159 l 2,26,27
 668 1159 668 1159 639 1122 c 2,28,-1
 403 819 l 2,29,30
 373 783 373 783 373 719 c 2,31,-1
 373 254 l 2,32,33
 373 218 373 218 397.5 193 c 128,-1,34
 422 168 422 168 457 168 c 2,35,-1
 799 168 l 2,36,37
 833 168 833 168 858 193 c 128,-1,38
 883 218 883 218 883 252 c 2,39,-1
 883 434 l 1,40,-1
 709 434 l 2,41,42
 673 434 673 434 649 458.5 c 128,-1,43
 625 483 625 483 625 518 c 256,44,45
 625 553 625 553 649 577.5 c 128,-1,46
 673 602 673 602 709 602 c 2,47,-1
 1051 602 l 1,48,-1
 1051 252 l 2,49,50
 1051 148 1051 148 977 74 c 128,-1,51
 903 0 903 0 799 0 c 2,52,-1
 457 0 l 2,53,54
 352 0 352 0 277.5 74 c 128,-1,55
 203 148 203 148 203 252 c 2,56,-1
 203 717 l 2,57,58
 203 842 203 842 270 928 c 2,59,-1
 518 1243 l 2,60,61
 545 1279 545 1279 593.5 1304 c 128,-1,62
 642 1329 642 1329 694 1329 c 2,18,-1
EndSplineSet
EndChar

StartChar: gdotaccent
Encoding: 289 289 226
Width: 1237
Flags: W
LayerCount: 2
Fore
SplineSet
670 1118 m 2,0,1
 670 1084 670 1084 646 1058 c 0,2,3
 625 1036 625 1036 586 1036 c 0,4,5
 542 1036 542 1036 527 1061 c 0,6,7
 503 1100 503 1100 503 1118 c 2,8,-1
 503 1167 l 2,9,10
 503 1202 503 1202 527 1226 c 0,11,12
 550 1251 550 1251 586 1251 c 0,13,14
 623 1252 623 1252 646 1226 c 0,15,16
 670 1200 670 1200 670 1167 c 2,17,-1
 670 1118 l 2,0,1
735 -360 m 2,18,-1
 371 -360 l 2,19,20
 336 -360 336 -360 311.5 -336 c 128,-1,21
 287 -312 287 -312 287 -276 c 0,22,23
 287 -241 287 -241 311.5 -217 c 128,-1,24
 336 -193 336 -193 371 -193 c 2,25,-1
 735 -193 l 2,26,27
 768 -193 768 -193 797 -168 c 2,28,-1
 854 -119 l 2,29,30
 883 -97 883 -97 883 -61 c 2,31,-1
 883 195 l 1,32,33
 765 76 765 76 653 76 c 2,34,-1
 524 76 l 2,35,36
 424 76 424 76 344 145 c 2,37,-1
 281 201 l 2,38,39
 250 227 250 227 227.5 277 c 128,-1,40
 205 327 205 327 205 375 c 2,41,-1
 205 653 l 2,42,43
 205 712 205 712 227.5 765 c 128,-1,44
 250 818 250 818 281 844 c 2,45,-1
 350 903 l 2,46,47
 424 967 424 967 524 967 c 2,48,-1
 645 967 l 2,49,50
 744 967 744 967 825 897 c 2,51,-1
 883 848 l 1,52,-1
 881 881 l 2,53,54
 881 915 881 915 906 940 c 128,-1,55
 931 965 931 965 965 965 c 0,56,57
 1000 965 1000 965 1025.5 940.5 c 128,-1,58
 1051 916 1051 916 1051 881 c 2,59,-1
 1051 -61 l 2,60,61
 1051 -168 1051 -168 965 -244 c 2,62,-1
 897 -303 l 2,63,64
 871 -326 871 -326 823.5 -343 c 128,-1,65
 776 -360 776 -360 735 -360 c 2,18,-1
639 799 m 2,66,-1
 526 799 l 2,67,68
 489 799 489 799 455 770 c 2,69,-1
 403 727 l 2,70,71
 373 702 373 702 373 659 c 2,72,-1
 373 379 l 2,73,74
 373 345 373 345 406 315 c 2,75,-1
 461 266 l 2,76,77
 487 244 487 244 516 244 c 2,78,-1
 653 244 l 2,79,80
 683 244 683 244 719 274 c 2,81,-1
 852 387 l 2,82,83
 883 414 883 414 883 453 c 2,84,-1
 883 580 l 2,85,86
 883 626 883 626 848 655 c 2,87,-1
 711 772 l 2,88,89
 682 799 682 799 639 799 c 2,66,-1
EndSplineSet
EndChar

StartChar: uni0122
Encoding: 290 290 227
Width: 1237
Flags: W
LayerCount: 2
Fore
SplineSet
734 -282 m 2,0,1
 734 -317 734 -317 710 -341.5 c 128,-1,2
 686 -366 686 -366 650 -366 c 0,3,4
 615 -366 615 -366 591 -341.5 c 128,-1,5
 567 -317 567 -317 567 -282 c 2,6,-1
 567 -139 l 2,7,8
 567 -104 567 -104 591 -79.5 c 128,-1,9
 615 -55 615 -55 650 -55 c 0,10,11
 686 -55 686 -55 710 -79.5 c 128,-1,12
 734 -104 734 -104 734 -139 c 2,13,-1
 734 -282 l 2,0,1
694 1329 m 2,14,-1
 973 1329 l 2,15,16
 1008 1329 1008 1329 1032.5 1304.5 c 128,-1,17
 1057 1280 1057 1280 1057 1245 c 0,18,19
 1057 1208 1057 1208 1030.5 1183.5 c 128,-1,20
 1004 1159 1004 1159 973 1159 c 2,21,-1
 707 1159 l 2,22,23
 668 1159 668 1159 639 1122 c 2,24,-1
 403 819 l 2,25,26
 373 783 373 783 373 719 c 2,27,-1
 373 254 l 2,28,29
 373 218 373 218 397.5 193 c 128,-1,30
 422 168 422 168 457 168 c 2,31,-1
 799 168 l 2,32,33
 833 168 833 168 858 193 c 128,-1,34
 883 218 883 218 883 252 c 2,35,-1
 883 434 l 1,36,-1
 709 434 l 2,37,38
 673 434 673 434 649 458.5 c 128,-1,39
 625 483 625 483 625 518 c 256,40,41
 625 553 625 553 649 577.5 c 128,-1,42
 673 602 673 602 709 602 c 2,43,-1
 1051 602 l 1,44,-1
 1051 252 l 2,45,46
 1051 148 1051 148 977 74 c 128,-1,47
 903 0 903 0 799 0 c 2,48,-1
 457 0 l 2,49,50
 352 0 352 0 277.5 74 c 128,-1,51
 203 148 203 148 203 252 c 2,52,-1
 203 717 l 2,53,54
 203 842 203 842 270 928 c 2,55,-1
 518 1243 l 2,56,57
 545 1279 545 1279 593.5 1304 c 128,-1,58
 642 1329 642 1329 694 1329 c 2,14,-1
EndSplineSet
EndChar

StartChar: uni0123
Encoding: 291 291 228
Width: 1237
Flags: W
LayerCount: 2
Fore
SplineSet
663 1118 m 2,0,1
 663 1082 663 1082 639 1058 c 128,-1,2
 615 1034 615 1034 579 1034 c 0,3,4
 544 1034 544 1034 520 1058 c 128,-1,5
 496 1082 496 1082 496 1118 c 2,6,-1
 496 1260 l 2,7,8
 496 1296 496 1296 520 1320 c 128,-1,9
 544 1344 544 1344 579 1344 c 0,10,11
 615 1344 615 1344 639 1320 c 128,-1,12
 663 1296 663 1296 663 1260 c 2,13,-1
 663 1118 l 2,0,1
735 -360 m 2,14,-1
 371 -360 l 2,15,16
 336 -360 336 -360 311.5 -336 c 128,-1,17
 287 -312 287 -312 287 -276 c 0,18,19
 287 -241 287 -241 311.5 -217 c 128,-1,20
 336 -193 336 -193 371 -193 c 2,21,-1
 735 -193 l 2,22,23
 768 -193 768 -193 797 -168 c 2,24,-1
 854 -119 l 2,25,26
 883 -97 883 -97 883 -61 c 2,27,-1
 883 195 l 1,28,29
 765 76 765 76 653 76 c 2,30,-1
 524 76 l 2,31,32
 424 76 424 76 344 145 c 2,33,-1
 281 201 l 2,34,35
 250 227 250 227 227.5 277 c 128,-1,36
 205 327 205 327 205 375 c 2,37,-1
 205 653 l 2,38,39
 205 712 205 712 227.5 765 c 128,-1,40
 250 818 250 818 281 844 c 2,41,-1
 350 903 l 2,42,43
 424 967 424 967 524 967 c 2,44,-1
 645 967 l 2,45,46
 744 967 744 967 825 897 c 2,47,-1
 883 848 l 1,48,-1
 881 881 l 2,49,50
 881 915 881 915 906 940 c 128,-1,51
 931 965 931 965 965 965 c 0,52,53
 1000 965 1000 965 1025.5 940.5 c 128,-1,54
 1051 916 1051 916 1051 881 c 2,55,-1
 1051 -61 l 2,56,57
 1051 -168 1051 -168 965 -244 c 2,58,-1
 897 -303 l 2,59,60
 871 -326 871 -326 823.5 -343 c 128,-1,61
 776 -360 776 -360 735 -360 c 2,14,-1
639 799 m 2,62,-1
 526 799 l 2,63,64
 489 799 489 799 455 770 c 2,65,-1
 403 727 l 2,66,67
 373 702 373 702 373 659 c 2,68,-1
 373 379 l 2,69,70
 373 345 373 345 406 315 c 2,71,-1
 461 266 l 2,72,73
 487 244 487 244 516 244 c 2,74,-1
 653 244 l 2,75,76
 683 244 683 244 719 274 c 2,77,-1
 852 387 l 2,78,79
 883 414 883 414 883 453 c 2,80,-1
 883 580 l 2,81,82
 883 626 883 626 848 655 c 2,83,-1
 711 772 l 2,84,85
 682 799 682 799 639 799 c 2,62,-1
EndSplineSet
EndChar

StartChar: Hcircumflex
Encoding: 292 292 229
Width: 1237
Flags: W
LayerCount: 2
Fore
SplineSet
203 84 m 2,0,-1
 203 1245 l 2,1,2
 203 1279 203 1279 227.5 1304 c 128,-1,3
 252 1329 252 1329 287 1329 c 0,4,5
 321 1329 321 1329 346 1304 c 128,-1,6
 371 1279 371 1279 371 1245 c 2,7,-1
 371 750 l 1,8,-1
 883 750 l 1,9,-1
 883 1245 l 2,10,11
 883 1279 883 1279 907.5 1304 c 128,-1,12
 932 1329 932 1329 967 1329 c 256,13,14
 1002 1329 1002 1329 1026.5 1304 c 128,-1,15
 1051 1279 1051 1279 1051 1243 c 2,16,-1
 1051 84 l 2,17,18
 1051 50 1051 50 1025.5 25 c 128,-1,19
 1000 0 1000 0 967 0 c 0,20,21
 931 0 931 0 907 24.5 c 128,-1,22
 883 49 883 49 883 84 c 2,23,-1
 883 582 l 1,24,-1
 373 582 l 1,25,-1
 373 84 l 2,26,27
 373 50 373 50 347.5 25 c 128,-1,28
 322 0 322 0 287 0 c 0,29,30
 253 0 253 0 228 24.5 c 128,-1,31
 203 49 203 49 203 84 c 2,0,-1
618 1515 m 1,32,-1
 348 1390 l 2,33,34
 331 1382 331 1382 312 1382 c 0,35,36
 276 1382 276 1382 252.5 1408.5 c 128,-1,37
 229 1435 229 1435 229 1468 c 0,38,39
 229 1522 229 1522 276 1544 c 2,40,-1
 582 1685 l 2,41,42
 602 1693 602 1693 618 1693 c 0,43,44
 638 1693 638 1693 655 1685 c 2,45,-1
 961 1544 l 2,46,47
 1008 1520 1008 1520 1008 1468 c 0,48,49
 1008 1435 1008 1435 984.5 1408.5 c 128,-1,50
 961 1382 961 1382 925 1382 c 0,51,52
 907 1382 907 1382 889 1390 c 2,53,-1
 618 1515 l 1,32,-1
EndSplineSet
EndChar

StartChar: hcircumflex
Encoding: 293 293 230
Width: 1237
Flags: W
LayerCount: 2
Fore
SplineSet
205 84 m 2,0,-1
 205 1245 l 2,1,2
 205 1279 205 1279 229.5 1303 c 128,-1,3
 254 1327 254 1327 289 1327 c 256,4,5
 324 1327 324 1327 348.5 1302.5 c 128,-1,6
 373 1278 373 1278 373 1243 c 2,7,-1
 373 819 l 1,8,-1
 508 907 l 2,9,10
 600 965 600 965 672 965 c 2,11,-1
 776 965 l 2,12,13
 879 965 879 965 953 891.5 c 128,-1,14
 1027 818 1027 818 1030 713 c 2,15,-1
 1051 84 l 2,16,17
 1052 49 1052 49 1027 24.5 c 128,-1,18
 1002 0 1002 0 967 0 c 256,19,20
 932 0 932 0 908 25.5 c 128,-1,21
 884 51 884 51 883 84 c 2,22,-1
 862 715 l 2,23,24
 861 749 861 749 836 774 c 128,-1,25
 811 799 811 799 776 799 c 2,26,-1
 682 799 l 2,27,28
 650 799 650 799 612 774 c 2,29,-1
 373 618 l 1,30,-1
 373 84 l 2,31,32
 373 49 373 49 348.5 24.5 c 128,-1,33
 324 0 324 0 289 0 c 256,34,35
 254 0 254 0 229.5 24.5 c 128,-1,36
 205 49 205 49 205 84 c 2,0,-1
618 1515 m 1,37,-1
 348 1390 l 2,38,39
 331 1382 331 1382 312 1382 c 0,40,41
 276 1382 276 1382 252.5 1408.5 c 128,-1,42
 229 1435 229 1435 229 1468 c 0,43,44
 229 1522 229 1522 276 1544 c 2,45,-1
 582 1685 l 2,46,47
 602 1693 602 1693 618 1693 c 0,48,49
 638 1693 638 1693 655 1685 c 2,50,-1
 961 1544 l 2,51,52
 1008 1520 1008 1520 1008 1468 c 0,53,54
 1008 1435 1008 1435 984.5 1408.5 c 128,-1,55
 961 1382 961 1382 925 1382 c 0,56,57
 907 1382 907 1382 889 1390 c 2,58,-1
 618 1515 l 1,37,-1
EndSplineSet
EndChar

StartChar: Hbar
Encoding: 294 294 231
Width: 1237
Flags: W
LayerCount: 2
Fore
SplineSet
1113 1104 m 2,0,1
 1143 1104 1143 1104 1164.5 1078.5 c 128,-1,2
 1186 1053 1186 1053 1186 1017 c 0,3,4
 1186 983 1186 983 1164.5 958.5 c 128,-1,5
 1143 934 1143 934 1113 934 c 2,6,-1
 135 934 l 2,7,8
 106 934 106 934 86 959 c 128,-1,9
 66 984 66 984 66 1020 c 0,10,11
 66 1054 66 1054 86 1079 c 128,-1,12
 106 1104 106 1104 135 1104 c 2,13,-1
 1113 1104 l 2,0,1
203 84 m 2,14,-1
 203 1245 l 2,15,16
 203 1279 203 1279 227.5 1304 c 128,-1,17
 252 1329 252 1329 287 1329 c 0,18,19
 321 1329 321 1329 346 1304 c 128,-1,20
 371 1279 371 1279 371 1245 c 2,21,-1
 371 750 l 1,22,-1
 883 750 l 1,23,-1
 883 1245 l 2,24,25
 883 1279 883 1279 907.5 1304 c 128,-1,26
 932 1329 932 1329 967 1329 c 256,27,28
 1002 1329 1002 1329 1026.5 1304 c 128,-1,29
 1051 1279 1051 1279 1051 1243 c 2,30,-1
 1051 84 l 2,31,32
 1051 50 1051 50 1025.5 25 c 128,-1,33
 1000 0 1000 0 967 0 c 0,34,35
 931 0 931 0 907 24.5 c 128,-1,36
 883 49 883 49 883 84 c 2,37,-1
 883 582 l 1,38,-1
 373 582 l 1,39,-1
 373 84 l 2,40,41
 373 50 373 50 347.5 25 c 128,-1,42
 322 0 322 0 287 0 c 0,43,44
 253 0 253 0 228 24.5 c 128,-1,45
 203 49 203 49 203 84 c 2,14,-1
EndSplineSet
EndChar

StartChar: hbar
Encoding: 295 295 232
Width: 1237
Flags: W
LayerCount: 2
Fore
SplineSet
205 1026 m 1,0,-1
 117 1026 l 2,1,2
 83 1026 83 1026 58 1051 c 128,-1,3
 33 1076 33 1076 33 1110 c 256,4,5
 33 1144 33 1144 58 1169 c 128,-1,6
 83 1194 83 1194 117 1194 c 2,7,-1
 373 1194 l 1,8,-1
 457 1194 l 2,9,10
 492 1194 492 1194 517.5 1170 c 128,-1,11
 543 1146 543 1146 543 1110 c 0,12,13
 543 1076 543 1076 517.5 1051 c 128,-1,14
 492 1026 492 1026 457 1026 c 2,15,-1
 205 1026 l 1,0,-1
205 84 m 2,16,-1
 205 1245 l 2,17,18
 205 1279 205 1279 229.5 1303 c 128,-1,19
 254 1327 254 1327 289 1327 c 256,20,21
 324 1327 324 1327 348.5 1302.5 c 128,-1,22
 373 1278 373 1278 373 1243 c 2,23,-1
 373 819 l 1,24,-1
 508 907 l 2,25,26
 600 965 600 965 672 965 c 2,27,-1
 776 965 l 2,28,29
 879 965 879 965 953 891.5 c 128,-1,30
 1027 818 1027 818 1030 713 c 2,31,-1
 1051 84 l 2,32,33
 1052 49 1052 49 1027 24.5 c 128,-1,34
 1002 0 1002 0 967 0 c 256,35,36
 932 0 932 0 908 25.5 c 128,-1,37
 884 51 884 51 883 84 c 2,38,-1
 862 715 l 2,39,40
 861 749 861 749 836 774 c 128,-1,41
 811 799 811 799 776 799 c 2,42,-1
 682 799 l 2,43,44
 650 799 650 799 612 774 c 2,45,-1
 373 618 l 1,46,-1
 373 84 l 2,47,48
 373 49 373 49 348.5 24.5 c 128,-1,49
 324 0 324 0 289 0 c 256,50,51
 254 0 254 0 229.5 24.5 c 128,-1,52
 205 49 205 49 205 84 c 2,16,-1
EndSplineSet
EndChar

StartChar: Itilde
Encoding: 296 296 233
Width: 1237
Flags: W
LayerCount: 2
Fore
SplineSet
289 1329 m 2,0,-1
 969 1329 l 2,1,2
 1002 1329 1002 1329 1027.5 1304 c 128,-1,3
 1053 1279 1053 1279 1053 1245 c 0,4,5
 1053 1210 1053 1210 1028 1184.5 c 128,-1,6
 1003 1159 1003 1159 969 1159 c 2,7,-1
 715 1159 l 1,8,-1
 715 168 l 1,9,-1
 969 168 l 2,10,11
 1004 168 1004 168 1028.5 143.5 c 128,-1,12
 1053 119 1053 119 1053 84 c 256,13,14
 1053 49 1053 49 1028 24.5 c 128,-1,15
 1003 0 1003 0 969 0 c 2,16,-1
 289 0 l 2,17,18
 254 0 254 0 229.5 24.5 c 128,-1,19
 205 49 205 49 205 84 c 256,20,21
 205 119 205 119 229.5 143.5 c 128,-1,22
 254 168 254 168 289 168 c 2,23,-1
 547 168 l 1,24,-1
 547 1159 l 1,25,-1
 289 1159 l 2,26,27
 254 1159 254 1159 229.5 1184 c 128,-1,28
 205 1209 205 1209 205 1243 c 0,29,30
 205 1279 205 1279 229.5 1304 c 128,-1,31
 254 1329 254 1329 289 1329 c 2,0,-1
1025 1536 m 2,32,-1
 873 1444 l 2,33,34
 845 1430 845 1430 828 1430 c 2,35,-1
 775 1430 l 2,36,37
 767 1430 767 1430 748 1436 c 2,38,-1
 492 1522 l 1,39,-1
 468 1522 l 1,40,-1
 341 1444 l 2,41,42
 318 1430 318 1430 294 1430 c 0,43,44
 260 1430 260 1430 235 1457 c 128,-1,45
 210 1484 210 1484 210 1519 c 0,46,47
 210 1563 210 1563 251 1588 c 2,48,-1
 402 1680 l 2,49,50
 421 1692 421 1692 447 1692 c 2,51,-1
 501 1692 l 2,52,53
 515 1692 515 1692 527 1688 c 2,54,-1
 789 1600 l 1,55,-1
 804 1600 l 1,56,-1
 935 1680 l 2,57,58
 958 1694 958 1694 981 1694 c 0,59,60
 1016 1694 1016 1694 1041 1667 c 128,-1,61
 1066 1640 1066 1640 1066 1605 c 0,62,63
 1066 1561 1066 1561 1025 1536 c 2,32,-1
EndSplineSet
EndChar

StartChar: itilde
Encoding: 297 297 234
Width: 1237
Flags: W
LayerCount: 2
Fore
SplineSet
885 2 m 2,0,-1
 373 2 l 2,1,2
 338 2 338 2 313.5 26.5 c 128,-1,3
 289 51 289 51 289 86 c 0,4,5
 289 120 289 120 313.5 145 c 128,-1,6
 338 170 338 170 373 170 c 2,7,-1
 545 170 l 1,8,-1
 545 797 l 1,9,-1
 375 797 l 2,10,11
 340 797 340 797 315.5 822 c 128,-1,12
 291 847 291 847 291 881 c 0,13,14
 291 916 291 916 315.5 941.5 c 128,-1,15
 340 967 340 967 375 967 c 2,16,-1
 631 967 l 2,17,18
 666 967 666 967 690.5 941.5 c 128,-1,19
 715 916 715 916 715 881 c 2,20,-1
 715 170 l 1,21,-1
 883 170 l 2,22,23
 918 170 918 170 943.5 145.5 c 128,-1,24
 969 121 969 121 969 86 c 256,25,26
 969 51 969 51 944 26.5 c 128,-1,27
 919 2 919 2 885 2 c 2,0,-1
954 1171 m 2,28,-1
 802 1079 l 2,29,30
 774 1065 774 1065 757 1065 c 2,31,-1
 704 1065 l 2,32,33
 696 1065 696 1065 677 1071 c 2,34,-1
 421 1157 l 1,35,-1
 397 1157 l 1,36,-1
 270 1079 l 2,37,38
 247 1065 247 1065 223 1065 c 0,39,40
 189 1065 189 1065 164 1092 c 128,-1,41
 139 1119 139 1119 139 1154 c 0,42,43
 139 1198 139 1198 180 1223 c 2,44,-1
 331 1315 l 2,45,46
 350 1327 350 1327 376 1327 c 2,47,-1
 430 1327 l 2,48,49
 444 1327 444 1327 456 1323 c 2,50,-1
 718 1235 l 1,51,-1
 733 1235 l 1,52,-1
 864 1315 l 2,53,54
 887 1329 887 1329 910 1329 c 0,55,56
 945 1329 945 1329 970 1302 c 128,-1,57
 995 1275 995 1275 995 1240 c 0,58,59
 995 1196 995 1196 954 1171 c 2,28,-1
EndSplineSet
EndChar

StartChar: Imacron
Encoding: 298 298 235
Width: 1237
Flags: W
LayerCount: 2
Fore
SplineSet
889 1598 m 2,0,1
 924 1598 924 1598 949.5 1573 c 128,-1,2
 975 1548 975 1548 975 1514 c 0,3,4
 975 1478 975 1478 949.5 1454 c 128,-1,5
 924 1430 924 1430 889 1430 c 2,6,-1
 369 1430 l 2,7,8
 335 1430 335 1430 310 1455 c 128,-1,9
 285 1480 285 1480 285 1514 c 256,10,11
 285 1548 285 1548 310 1573 c 128,-1,12
 335 1598 335 1598 369 1598 c 2,13,-1
 889 1598 l 2,0,1
289 1329 m 2,14,-1
 969 1329 l 2,15,16
 1002 1329 1002 1329 1027.5 1304 c 128,-1,17
 1053 1279 1053 1279 1053 1245 c 0,18,19
 1053 1210 1053 1210 1028 1184.5 c 128,-1,20
 1003 1159 1003 1159 969 1159 c 2,21,-1
 715 1159 l 1,22,-1
 715 168 l 1,23,-1
 969 168 l 2,24,25
 1004 168 1004 168 1028.5 143.5 c 128,-1,26
 1053 119 1053 119 1053 84 c 256,27,28
 1053 49 1053 49 1028 24.5 c 128,-1,29
 1003 0 1003 0 969 0 c 2,30,-1
 289 0 l 2,31,32
 254 0 254 0 229.5 24.5 c 128,-1,33
 205 49 205 49 205 84 c 256,34,35
 205 119 205 119 229.5 143.5 c 128,-1,36
 254 168 254 168 289 168 c 2,37,-1
 547 168 l 1,38,-1
 547 1159 l 1,39,-1
 289 1159 l 2,40,41
 254 1159 254 1159 229.5 1184 c 128,-1,42
 205 1209 205 1209 205 1243 c 0,43,44
 205 1279 205 1279 229.5 1304 c 128,-1,45
 254 1329 254 1329 289 1329 c 2,14,-1
EndSplineSet
EndChar

StartChar: imacron
Encoding: 299 299 236
Width: 1237
Flags: W
LayerCount: 2
Fore
SplineSet
824 1283 m 2,0,1
 859 1283 859 1283 884.5 1258.5 c 128,-1,2
 910 1234 910 1234 910 1199 c 256,3,4
 910 1164 910 1164 884.5 1139.5 c 128,-1,5
 859 1115 859 1115 824 1115 c 2,6,-1
 304 1115 l 2,7,8
 270 1115 270 1115 245 1140 c 128,-1,9
 220 1165 220 1165 220 1199 c 0,10,11
 220 1234 220 1234 245 1258.5 c 128,-1,12
 270 1283 270 1283 304 1283 c 2,13,-1
 824 1283 l 2,0,1
885 2 m 2,14,-1
 373 2 l 2,15,16
 338 2 338 2 313.5 26.5 c 128,-1,17
 289 51 289 51 289 86 c 0,18,19
 289 120 289 120 313.5 145 c 128,-1,20
 338 170 338 170 373 170 c 2,21,-1
 545 170 l 1,22,-1
 545 797 l 1,23,-1
 375 797 l 2,24,25
 340 797 340 797 315.5 822 c 128,-1,26
 291 847 291 847 291 881 c 0,27,28
 291 916 291 916 315.5 941.5 c 128,-1,29
 340 967 340 967 375 967 c 2,30,-1
 631 967 l 2,31,32
 666 967 666 967 690.5 941.5 c 128,-1,33
 715 916 715 916 715 881 c 2,34,-1
 715 170 l 1,35,-1
 883 170 l 2,36,37
 918 170 918 170 943.5 145.5 c 128,-1,38
 969 121 969 121 969 86 c 256,39,40
 969 51 969 51 944 26.5 c 128,-1,41
 919 2 919 2 885 2 c 2,14,-1
EndSplineSet
EndChar

StartChar: Ibreve
Encoding: 300 300 237
Width: 1237
Flags: W
LayerCount: 2
Fore
SplineSet
941 1747 m 0,0,1
 976 1747 976 1747 1001.5 1725.5 c 128,-1,2
 1027 1704 1027 1704 1027 1675 c 0,3,4
 1027 1608 1027 1608 906 1522 c 128,-1,5
 785 1436 785 1436 637 1436 c 0,6,7
 490 1436 490 1436 369 1522 c 128,-1,8
 248 1608 248 1608 248 1675 c 0,9,10
 248 1704 248 1704 273.5 1725.5 c 128,-1,11
 299 1747 299 1747 334 1747 c 0,12,13
 375 1747 375 1747 400 1723 c 0,14,15
 509 1606 509 1606 637 1606 c 0,16,17
 766 1606 766 1606 875 1723 c 0,18,19
 900 1747 900 1747 941 1747 c 0,0,1
289 1329 m 2,20,-1
 969 1329 l 2,21,22
 1002 1329 1002 1329 1027.5 1304 c 128,-1,23
 1053 1279 1053 1279 1053 1245 c 0,24,25
 1053 1210 1053 1210 1028 1184.5 c 128,-1,26
 1003 1159 1003 1159 969 1159 c 2,27,-1
 715 1159 l 1,28,-1
 715 168 l 1,29,-1
 969 168 l 2,30,31
 1004 168 1004 168 1028.5 143.5 c 128,-1,32
 1053 119 1053 119 1053 84 c 256,33,34
 1053 49 1053 49 1028 24.5 c 128,-1,35
 1003 0 1003 0 969 0 c 2,36,-1
 289 0 l 2,37,38
 254 0 254 0 229.5 24.5 c 128,-1,39
 205 49 205 49 205 84 c 256,40,41
 205 119 205 119 229.5 143.5 c 128,-1,42
 254 168 254 168 289 168 c 2,43,-1
 547 168 l 1,44,-1
 547 1159 l 1,45,-1
 289 1159 l 2,46,47
 254 1159 254 1159 229.5 1184 c 128,-1,48
 205 1209 205 1209 205 1243 c 0,49,50
 205 1279 205 1279 229.5 1304 c 128,-1,51
 254 1329 254 1329 289 1329 c 2,20,-1
EndSplineSet
EndChar

StartChar: ibreve
Encoding: 301 301 238
Width: 1237
Flags: W
LayerCount: 2
Fore
SplineSet
860 1408 m 0,0,1
 895 1408 895 1408 920.5 1386.5 c 128,-1,2
 946 1365 946 1365 946 1336 c 0,3,4
 946 1269 946 1269 825 1183 c 128,-1,5
 704 1097 704 1097 556 1097 c 0,6,7
 409 1097 409 1097 288 1183 c 128,-1,8
 167 1269 167 1269 167 1336 c 0,9,10
 167 1365 167 1365 192.5 1386.5 c 128,-1,11
 218 1408 218 1408 253 1408 c 0,12,13
 294 1408 294 1408 319 1384 c 0,14,15
 428 1267 428 1267 556 1267 c 0,16,17
 685 1267 685 1267 794 1384 c 0,18,19
 819 1408 819 1408 860 1408 c 0,0,1
885 2 m 2,20,-1
 373 2 l 2,21,22
 338 2 338 2 313.5 26.5 c 128,-1,23
 289 51 289 51 289 86 c 0,24,25
 289 120 289 120 313.5 145 c 128,-1,26
 338 170 338 170 373 170 c 2,27,-1
 545 170 l 1,28,-1
 545 797 l 1,29,-1
 375 797 l 2,30,31
 340 797 340 797 315.5 822 c 128,-1,32
 291 847 291 847 291 881 c 0,33,34
 291 916 291 916 315.5 941.5 c 128,-1,35
 340 967 340 967 375 967 c 2,36,-1
 631 967 l 2,37,38
 666 967 666 967 690.5 941.5 c 128,-1,39
 715 916 715 916 715 881 c 2,40,-1
 715 170 l 1,41,-1
 883 170 l 2,42,43
 918 170 918 170 943.5 145.5 c 128,-1,44
 969 121 969 121 969 86 c 256,45,46
 969 51 969 51 944 26.5 c 128,-1,47
 919 2 919 2 885 2 c 2,20,-1
EndSplineSet
EndChar

StartChar: Iogonek
Encoding: 302 302 239
Width: 1237
Flags: W
LayerCount: 2
Fore
SplineSet
969 0 m 1,0,-1
 969 -190 l 1,1,-1
 1089 -190 l 2,2,3
 1124 -190 1124 -190 1148.5 -215.5 c 128,-1,4
 1173 -241 1173 -241 1173 -276 c 0,5,6
 1173 -310 1173 -310 1148 -335 c 128,-1,7
 1123 -360 1123 -360 1089 -360 c 2,8,-1
 885 -360 l 2,9,10
 870 -360 870 -360 826 -335 c 0,11,12
 801 -321 801 -321 801 -274 c 2,13,-1
 801 0 l 1,14,-1
 969 0 l 1,0,-1
289 1329 m 2,15,-1
 969 1329 l 2,16,17
 1002 1329 1002 1329 1027.5 1304 c 128,-1,18
 1053 1279 1053 1279 1053 1245 c 0,19,20
 1053 1210 1053 1210 1028 1184.5 c 128,-1,21
 1003 1159 1003 1159 969 1159 c 2,22,-1
 715 1159 l 1,23,-1
 715 168 l 1,24,-1
 969 168 l 2,25,26
 1004 168 1004 168 1028.5 143.5 c 128,-1,27
 1053 119 1053 119 1053 84 c 256,28,29
 1053 49 1053 49 1028 24.5 c 128,-1,30
 1003 0 1003 0 969 0 c 2,31,-1
 289 0 l 2,32,33
 254 0 254 0 229.5 24.5 c 128,-1,34
 205 49 205 49 205 84 c 256,35,36
 205 119 205 119 229.5 143.5 c 128,-1,37
 254 168 254 168 289 168 c 2,38,-1
 547 168 l 1,39,-1
 547 1159 l 1,40,-1
 289 1159 l 2,41,42
 254 1159 254 1159 229.5 1184 c 128,-1,43
 205 1209 205 1209 205 1243 c 0,44,45
 205 1279 205 1279 229.5 1304 c 128,-1,46
 254 1329 254 1329 289 1329 c 2,15,-1
EndSplineSet
EndChar

StartChar: iogonek
Encoding: 303 303 240
Width: 1237
Flags: W
LayerCount: 2
Fore
SplineSet
885 2 m 1,0,-1
 885 -188 l 1,1,-1
 1005 -188 l 2,2,3
 1040 -188 1040 -188 1064.5 -213.5 c 128,-1,4
 1089 -239 1089 -239 1089 -274 c 0,5,6
 1089 -308 1089 -308 1064 -333 c 128,-1,7
 1039 -358 1039 -358 1005 -358 c 2,8,-1
 801 -358 l 2,9,10
 786 -358 786 -358 742 -333 c 0,11,12
 717 -319 717 -319 717 -272 c 2,13,-1
 717 2 l 1,14,-1
 885 2 l 1,0,-1
543 1403 m 2,15,-1
 631 1403 l 2,16,17
 666 1403 666 1403 690.5 1378.5 c 128,-1,18
 715 1354 715 1354 715 1319 c 2,19,-1
 715 1247 l 2,20,21
 715 1212 715 1212 690.5 1186.5 c 128,-1,22
 666 1161 666 1161 631 1161 c 2,23,-1
 541 1161 l 2,24,25
 505 1161 505 1161 480.5 1187 c 128,-1,26
 456 1213 456 1213 457 1245 c 2,27,-1
 459 1319 l 2,28,29
 459 1354 459 1354 483.5 1378.5 c 128,-1,30
 508 1403 508 1403 543 1403 c 2,15,-1
885 2 m 2,31,-1
 373 2 l 2,32,33
 338 2 338 2 313.5 26.5 c 128,-1,34
 289 51 289 51 289 86 c 0,35,36
 289 120 289 120 313.5 145 c 128,-1,37
 338 170 338 170 373 170 c 2,38,-1
 545 170 l 1,39,-1
 545 797 l 1,40,-1
 375 797 l 2,41,42
 340 797 340 797 315.5 822 c 128,-1,43
 291 847 291 847 291 881 c 0,44,45
 291 916 291 916 315.5 941.5 c 128,-1,46
 340 967 340 967 375 967 c 2,47,-1
 631 967 l 2,48,49
 666 967 666 967 690.5 941.5 c 128,-1,50
 715 916 715 916 715 881 c 2,51,-1
 715 170 l 1,52,-1
 883 170 l 2,53,54
 918 170 918 170 943.5 145.5 c 128,-1,55
 969 121 969 121 969 86 c 256,56,57
 969 51 969 51 944 26.5 c 128,-1,58
 919 2 919 2 885 2 c 2,31,-1
EndSplineSet
EndChar

